M48
; DRILL file {KiCad 8.0.5} date 2024-11-07T10:17:15+0000
; FORMAT={-:-/ absolute / metric / decimal}
; #@! TF.CreationDate,2024-11-07T10:17:15+00:00
; #@! TF.GenerationSoftware,Kicad,Pcbnew,8.0.5
; #@! TF.FileFunction,Plated,1,4,PTH
FMAT,2
METRIC
; #@! TA.AperFunction,Plated,PTH,ViaDrill
T1C0.400
; #@! TA.AperFunction,Plated,PTH,ComponentDrill
T2C0.762
; #@! TA.AperFunction,Plated,PTH,ComponentDrill
T3C1.000
; #@! TA.AperFunction,Plated,PTH,ComponentDrill
T4C1.020
; #@! TA.AperFunction,Plated,PTH,ComponentDrill
T5C1.100
; #@! TA.AperFunction,Plated,PTH,ComponentDrill
T6C1.190
; #@! TA.AperFunction,Plated,PTH,ComponentDrill
T7C3.200
; #@! TA.AperFunction,Plated,PTH,ComponentDrill
T8C4.500
%
G90
G05
T1
X151.5Y-100.41
X151.91Y-90.41
X151.91Y-130.41
X156.16Y-104.66
X156.41Y-101.705
X156.41Y-129.66
X158.91Y-128.66
X158.91Y-140.41
X159.75Y-81.75
X159.75Y-85.25
X159.91Y-73.41
X159.91Y-79.91
X160.66Y-123.91
X160.91Y-108.91
X161.91Y-90.41
X161.91Y-100.41
X161.91Y-113.66
X161.91Y-120.41
X161.91Y-130.41
X161.91Y-140.41
X161.91Y-150.41
X161.91Y-159.41
X162.504Y-146.16
X163.16Y-145.21
X163.41Y-73.41
X163.66Y-136.41
X164.035Y-108.035
X164.41Y-121.91
X165.91Y-97.91
X166.66Y-139.91
X166.91Y-73.41
X166.91Y-79.91
X167.0Y-81.75
X167.0Y-85.25
X168.41Y-110.41
X168.91Y-99.66
X169.235Y-142.91
X169.91Y-132.91
X169.91Y-136.91
X170.16Y-73.41
X170.16Y-79.91
X170.91Y-141.41
X171.16Y-120.41
X171.16Y-130.41
X171.16Y-150.41
X171.16Y-159.41
X171.91Y-90.41
X171.91Y-100.41
X172.66Y-73.41
X172.66Y-78.16
X173.39Y-90.16
X173.66Y-106.41
X174.66Y-98.66
X175.41Y-73.41
X175.66Y-78.16
X175.93Y-90.41
X176.37Y-111.16
X176.66Y-103.91
X177.16Y-95.91
X178.147Y-106.0
X178.16Y-73.41
X178.16Y-79.91
X179.06Y-97.75
X179.5Y-82.5
X179.5Y-84.75
X179.66Y-110.16
X179.66Y-125.16
X180.0Y-94.75
X180.41Y-150.41
X181.25Y-103.75
X181.41Y-110.16
X181.91Y-73.41
X181.91Y-79.91
X181.91Y-101.16
X181.91Y-162.16
X182.66Y-130.41
X182.66Y-140.41
X182.75Y-84.75
X182.75Y-88.5
X182.75Y-93.5
X182.96Y-146.71
X183.0Y-149.25
X183.5Y-116.75
X184.25Y-130.75
X184.75Y-125.0
X185.5Y-84.75
X185.5Y-88.5
X185.5Y-93.5
X185.66Y-73.41
X185.66Y-79.91
X185.75Y-128.93
X186.5Y-148.0
X187.25Y-134.0
X188.16Y-152.16
X188.75Y-98.5
X188.75Y-99.5
X189.16Y-103.91
X189.41Y-73.41
X189.41Y-79.91
X190.16Y-100.66
X190.41Y-156.41
X190.41Y-164.66
X190.91Y-111.66
X191.66Y-169.16
X191.91Y-102.16
X191.91Y-110.41
X191.91Y-113.46
X192.16Y-117.16
X192.41Y-107.41
X192.91Y-73.41
X192.91Y-79.91
X192.91Y-145.41
X193.16Y-130.41
X193.16Y-140.41
X193.16Y-166.41
X193.25Y-105.5
X193.41Y-156.41
X194.25Y-87.0
X194.25Y-108.75
X195.16Y-114.91
X196.16Y-111.41
X196.66Y-73.41
X196.66Y-79.91
X196.66Y-93.66
X198.66Y-100.91
X199.41Y-73.41
X199.41Y-79.91
X200.0Y-82.5
X200.16Y-111.41
X200.66Y-103.66
X200.66Y-105.185
X201.75Y-123.625
X201.91Y-90.91
X201.91Y-120.41
X201.91Y-140.41
X201.91Y-149.91
X201.91Y-159.16
X202.66Y-130.41
X202.75Y-153.0
X203.0Y-117.25
X203.16Y-73.41
X203.16Y-79.91
X203.16Y-160.66
X205.25Y-81.75
X205.25Y-85.25
X205.275Y-111.0
X205.41Y-73.41
X205.41Y-79.91
X205.91Y-167.41
X207.25Y-121.25
X208.16Y-105.41
X208.25Y-101.75
X208.41Y-154.33
X208.91Y-73.41
X209.0Y-103.25
X211.91Y-160.41
X212.41Y-73.41
X212.41Y-79.91
X212.5Y-81.75
X212.5Y-85.5
X212.91Y-149.91
X216.66Y-157.16
X217.16Y-90.91
X217.16Y-114.91
X217.16Y-121.16
X217.91Y-123.625
X217.91Y-151.41
X218.66Y-100.66
X219.41Y-130.41
X219.91Y-116.7
X220.41Y-110.41
X220.66Y-100.41
X220.91Y-120.16
X220.91Y-155.66
X221.91Y-90.41
T2
X196.66Y-84.58
X196.66Y-87.12
X196.66Y-89.66
T3
X152.41Y-155.58
X152.41Y-158.12
X152.41Y-160.66
X209.085Y-144.41
X209.085Y-146.95
X211.625Y-144.41
X211.625Y-146.95
X212.48Y-104.235
X212.48Y-107.005
X212.48Y-109.775
X212.48Y-112.545
X212.48Y-115.315
X212.48Y-118.085
X212.48Y-120.855
X212.48Y-123.625
X214.165Y-144.41
X214.165Y-146.95
X215.32Y-105.62
X215.32Y-108.39
X215.32Y-111.16
X215.32Y-113.93
X215.32Y-116.7
X215.32Y-119.47
X215.32Y-122.24
X216.705Y-144.41
X216.705Y-146.95
X219.245Y-144.41
X219.245Y-146.95
T4
X177.27Y-121.31
X177.27Y-123.85
X177.27Y-126.39
X177.27Y-128.93
X177.27Y-131.47
X177.27Y-134.01
X177.27Y-136.55
X177.27Y-139.09
X177.27Y-141.63
X177.27Y-144.17
X177.27Y-146.71
X177.27Y-149.25
X177.27Y-151.79
X177.27Y-154.33
X177.27Y-156.87
X177.27Y-159.41
X177.27Y-161.95
X177.27Y-164.49
X177.27Y-167.03
X177.27Y-169.57
X183.62Y-121.54
X186.16Y-121.54
X188.7Y-121.54
X195.05Y-121.31
X195.05Y-123.85
X195.05Y-126.39
X195.05Y-128.93
X195.05Y-131.47
X195.05Y-134.01
X195.05Y-136.55
X195.05Y-139.09
X195.05Y-141.63
X195.05Y-144.17
X195.05Y-146.71
X195.05Y-149.25
X195.05Y-151.79
X195.05Y-154.33
X195.05Y-156.87
X195.05Y-159.41
X195.05Y-161.95
X195.05Y-164.49
X195.05Y-167.03
X195.05Y-169.57
T5
X207.91Y-160.91
X207.91Y-165.41
X214.41Y-160.91
X214.41Y-165.41
T6
X152.41Y-106.675
X152.41Y-109.215
X152.41Y-111.755
X152.41Y-114.295
X152.41Y-132.33
X152.41Y-134.87
X152.41Y-137.41
X152.41Y-142.33
X152.41Y-144.87
X152.41Y-147.41
X152.41Y-149.95
X152.43Y-119.37
X152.43Y-121.91
X152.43Y-124.45
X152.43Y-126.99
T7
X213.9Y-97.28
X213.9Y-130.58
T8
X163.41Y-77.06
X163.41Y-84.26
X208.91Y-77.06
X208.91Y-84.26
M30
