%TF.GenerationSoftware,KiCad,Pcbnew,8.0.5*%
%TF.CreationDate,2024-11-07T10:17:29+00:00*%
%TF.ProjectId,test-rig-black-box,74657374-2d72-4696-972d-626c61636b2d,1.0*%
%TF.SameCoordinates,Original*%
%TF.FileFunction,Drillmap*%
%TF.FilePolarity,Positive*%
%FSLAX45Y45*%
G04 Gerber Fmt 4.5, Leading zero omitted, Abs format (unit mm)*
G04 Created by KiCad (PCBNEW 8.0.5) date 2024-11-07 10:17:29*
%MOMM*%
%LPD*%
G01*
G04 APERTURE LIST*
%ADD10C,0.100000*%
%ADD11C,0.200000*%
%ADD12C,0.102000*%
%ADD13C,0.110000*%
%ADD14C,0.119000*%
%ADD15C,0.320000*%
%ADD16C,0.450000*%
G04 APERTURE END LIST*
D10*
X14866000Y-7216000D02*
X22366000Y-7216000D01*
X22366000Y-17216000D01*
X14866000Y-17216000D01*
X14866000Y-7216000D01*
D11*
D10*
X15130000Y-10021000D02*
X15170000Y-10061000D01*
X15170000Y-10021000D02*
X15130000Y-10061000D01*
X15171000Y-9021000D02*
X15211000Y-9061000D01*
X15211000Y-9021000D02*
X15171000Y-9061000D01*
X15171000Y-13021000D02*
X15211000Y-13061000D01*
X15211000Y-13021000D02*
X15171000Y-13061000D01*
X15596000Y-10446000D02*
X15636000Y-10486000D01*
X15636000Y-10446000D02*
X15596000Y-10486000D01*
X15621000Y-10150500D02*
X15661000Y-10190500D01*
X15661000Y-10150500D02*
X15621000Y-10190500D01*
X15621000Y-12946000D02*
X15661000Y-12986000D01*
X15661000Y-12946000D02*
X15621000Y-12986000D01*
X15871000Y-12846000D02*
X15911000Y-12886000D01*
X15911000Y-12846000D02*
X15871000Y-12886000D01*
X15871000Y-14021000D02*
X15911000Y-14061000D01*
X15911000Y-14021000D02*
X15871000Y-14061000D01*
X15955000Y-8155000D02*
X15995000Y-8195000D01*
X15995000Y-8155000D02*
X15955000Y-8195000D01*
X15955000Y-8505000D02*
X15995000Y-8545000D01*
X15995000Y-8505000D02*
X15955000Y-8545000D01*
X15971000Y-7321000D02*
X16011000Y-7361000D01*
X16011000Y-7321000D02*
X15971000Y-7361000D01*
X15971000Y-7971000D02*
X16011000Y-8011000D01*
X16011000Y-7971000D02*
X15971000Y-8011000D01*
X16046000Y-12371000D02*
X16086000Y-12411000D01*
X16086000Y-12371000D02*
X16046000Y-12411000D01*
X16071000Y-10871000D02*
X16111000Y-10911000D01*
X16111000Y-10871000D02*
X16071000Y-10911000D01*
X16171000Y-9021000D02*
X16211000Y-9061000D01*
X16211000Y-9021000D02*
X16171000Y-9061000D01*
X16171000Y-10021000D02*
X16211000Y-10061000D01*
X16211000Y-10021000D02*
X16171000Y-10061000D01*
X16171000Y-11346000D02*
X16211000Y-11386000D01*
X16211000Y-11346000D02*
X16171000Y-11386000D01*
X16171000Y-12021000D02*
X16211000Y-12061000D01*
X16211000Y-12021000D02*
X16171000Y-12061000D01*
X16171000Y-13021000D02*
X16211000Y-13061000D01*
X16211000Y-13021000D02*
X16171000Y-13061000D01*
X16171000Y-14021000D02*
X16211000Y-14061000D01*
X16211000Y-14021000D02*
X16171000Y-14061000D01*
X16171000Y-15021000D02*
X16211000Y-15061000D01*
X16211000Y-15021000D02*
X16171000Y-15061000D01*
X16171000Y-15921000D02*
X16211000Y-15961000D01*
X16211000Y-15921000D02*
X16171000Y-15961000D01*
X16230375Y-14596000D02*
X16270375Y-14636000D01*
X16270375Y-14596000D02*
X16230375Y-14636000D01*
X16296000Y-14501000D02*
X16336000Y-14541000D01*
X16336000Y-14501000D02*
X16296000Y-14541000D01*
X16321000Y-7321000D02*
X16361000Y-7361000D01*
X16361000Y-7321000D02*
X16321000Y-7361000D01*
X16346000Y-13621000D02*
X16386000Y-13661000D01*
X16386000Y-13621000D02*
X16346000Y-13661000D01*
X16383500Y-10783500D02*
X16423500Y-10823500D01*
X16423500Y-10783500D02*
X16383500Y-10823500D01*
X16421000Y-12171000D02*
X16461000Y-12211000D01*
X16461000Y-12171000D02*
X16421000Y-12211000D01*
X16571000Y-9771000D02*
X16611000Y-9811000D01*
X16611000Y-9771000D02*
X16571000Y-9811000D01*
X16646000Y-13971000D02*
X16686000Y-14011000D01*
X16686000Y-13971000D02*
X16646000Y-14011000D01*
X16671000Y-7321000D02*
X16711000Y-7361000D01*
X16711000Y-7321000D02*
X16671000Y-7361000D01*
X16671000Y-7971000D02*
X16711000Y-8011000D01*
X16711000Y-7971000D02*
X16671000Y-8011000D01*
X16680000Y-8155000D02*
X16720000Y-8195000D01*
X16720000Y-8155000D02*
X16680000Y-8195000D01*
X16680000Y-8505000D02*
X16720000Y-8545000D01*
X16720000Y-8505000D02*
X16680000Y-8545000D01*
X16821000Y-11021000D02*
X16861000Y-11061000D01*
X16861000Y-11021000D02*
X16821000Y-11061000D01*
X16871000Y-9946000D02*
X16911000Y-9986000D01*
X16911000Y-9946000D02*
X16871000Y-9986000D01*
X16903500Y-14271000D02*
X16943500Y-14311000D01*
X16943500Y-14271000D02*
X16903500Y-14311000D01*
X16971000Y-13271000D02*
X17011000Y-13311000D01*
X17011000Y-13271000D02*
X16971000Y-13311000D01*
X16971000Y-13671000D02*
X17011000Y-13711000D01*
X17011000Y-13671000D02*
X16971000Y-13711000D01*
X16996000Y-7321000D02*
X17036000Y-7361000D01*
X17036000Y-7321000D02*
X16996000Y-7361000D01*
X16996000Y-7971000D02*
X17036000Y-8011000D01*
X17036000Y-7971000D02*
X16996000Y-8011000D01*
X17071000Y-14121000D02*
X17111000Y-14161000D01*
X17111000Y-14121000D02*
X17071000Y-14161000D01*
X17096000Y-12021000D02*
X17136000Y-12061000D01*
X17136000Y-12021000D02*
X17096000Y-12061000D01*
X17096000Y-13021000D02*
X17136000Y-13061000D01*
X17136000Y-13021000D02*
X17096000Y-13061000D01*
X17096000Y-15021000D02*
X17136000Y-15061000D01*
X17136000Y-15021000D02*
X17096000Y-15061000D01*
X17096000Y-15921000D02*
X17136000Y-15961000D01*
X17136000Y-15921000D02*
X17096000Y-15961000D01*
X17171000Y-9021000D02*
X17211000Y-9061000D01*
X17211000Y-9021000D02*
X17171000Y-9061000D01*
X17171000Y-10021000D02*
X17211000Y-10061000D01*
X17211000Y-10021000D02*
X17171000Y-10061000D01*
X17246000Y-7321000D02*
X17286000Y-7361000D01*
X17286000Y-7321000D02*
X17246000Y-7361000D01*
X17246000Y-7796000D02*
X17286000Y-7836000D01*
X17286000Y-7796000D02*
X17246000Y-7836000D01*
X17319000Y-8996000D02*
X17359000Y-9036000D01*
X17359000Y-8996000D02*
X17319000Y-9036000D01*
X17346000Y-10621000D02*
X17386000Y-10661000D01*
X17386000Y-10621000D02*
X17346000Y-10661000D01*
X17446000Y-9846000D02*
X17486000Y-9886000D01*
X17486000Y-9846000D02*
X17446000Y-9886000D01*
X17521000Y-7321000D02*
X17561000Y-7361000D01*
X17561000Y-7321000D02*
X17521000Y-7361000D01*
X17546000Y-7796000D02*
X17586000Y-7836000D01*
X17586000Y-7796000D02*
X17546000Y-7836000D01*
X17573000Y-9021000D02*
X17613000Y-9061000D01*
X17613000Y-9021000D02*
X17573000Y-9061000D01*
X17617000Y-11096000D02*
X17657000Y-11136000D01*
X17657000Y-11096000D02*
X17617000Y-11136000D01*
X17646000Y-10371000D02*
X17686000Y-10411000D01*
X17686000Y-10371000D02*
X17646000Y-10411000D01*
X17696000Y-9571000D02*
X17736000Y-9611000D01*
X17736000Y-9571000D02*
X17696000Y-9611000D01*
X17794750Y-10580000D02*
X17834750Y-10620000D01*
X17834750Y-10580000D02*
X17794750Y-10620000D01*
X17796000Y-7321000D02*
X17836000Y-7361000D01*
X17836000Y-7321000D02*
X17796000Y-7361000D01*
X17796000Y-7971000D02*
X17836000Y-8011000D01*
X17836000Y-7971000D02*
X17796000Y-8011000D01*
X17886000Y-9755000D02*
X17926000Y-9795000D01*
X17926000Y-9755000D02*
X17886000Y-9795000D01*
X17930000Y-8230000D02*
X17970000Y-8270000D01*
X17970000Y-8230000D02*
X17930000Y-8270000D01*
X17930000Y-8455000D02*
X17970000Y-8495000D01*
X17970000Y-8455000D02*
X17930000Y-8495000D01*
X17946000Y-10996000D02*
X17986000Y-11036000D01*
X17986000Y-10996000D02*
X17946000Y-11036000D01*
X17946000Y-12496000D02*
X17986000Y-12536000D01*
X17986000Y-12496000D02*
X17946000Y-12536000D01*
X17980000Y-9455000D02*
X18020000Y-9495000D01*
X18020000Y-9455000D02*
X17980000Y-9495000D01*
X18021000Y-15021000D02*
X18061000Y-15061000D01*
X18061000Y-15021000D02*
X18021000Y-15061000D01*
X18105000Y-10355000D02*
X18145000Y-10395000D01*
X18145000Y-10355000D02*
X18105000Y-10395000D01*
X18121000Y-10996000D02*
X18161000Y-11036000D01*
X18161000Y-10996000D02*
X18121000Y-11036000D01*
X18171000Y-7321000D02*
X18211000Y-7361000D01*
X18211000Y-7321000D02*
X18171000Y-7361000D01*
X18171000Y-7971000D02*
X18211000Y-8011000D01*
X18211000Y-7971000D02*
X18171000Y-8011000D01*
X18171000Y-10096000D02*
X18211000Y-10136000D01*
X18211000Y-10096000D02*
X18171000Y-10136000D01*
X18171000Y-16196000D02*
X18211000Y-16236000D01*
X18211000Y-16196000D02*
X18171000Y-16236000D01*
X18246000Y-13021000D02*
X18286000Y-13061000D01*
X18286000Y-13021000D02*
X18246000Y-13061000D01*
X18246000Y-14021000D02*
X18286000Y-14061000D01*
X18286000Y-14021000D02*
X18246000Y-14061000D01*
X18255000Y-8455000D02*
X18295000Y-8495000D01*
X18295000Y-8455000D02*
X18255000Y-8495000D01*
X18255000Y-8830000D02*
X18295000Y-8870000D01*
X18295000Y-8830000D02*
X18255000Y-8870000D01*
X18255000Y-9330000D02*
X18295000Y-9370000D01*
X18295000Y-9330000D02*
X18255000Y-9370000D01*
X18276000Y-14651000D02*
X18316000Y-14691000D01*
X18316000Y-14651000D02*
X18276000Y-14691000D01*
X18280000Y-14905000D02*
X18320000Y-14945000D01*
X18320000Y-14905000D02*
X18280000Y-14945000D01*
X18330000Y-11655000D02*
X18370000Y-11695000D01*
X18370000Y-11655000D02*
X18330000Y-11695000D01*
X18405000Y-13055000D02*
X18445000Y-13095000D01*
X18445000Y-13055000D02*
X18405000Y-13095000D01*
X18455000Y-12480000D02*
X18495000Y-12520000D01*
X18495000Y-12480000D02*
X18455000Y-12520000D01*
X18530000Y-8455000D02*
X18570000Y-8495000D01*
X18570000Y-8455000D02*
X18530000Y-8495000D01*
X18530000Y-8830000D02*
X18570000Y-8870000D01*
X18570000Y-8830000D02*
X18530000Y-8870000D01*
X18530000Y-9330000D02*
X18570000Y-9370000D01*
X18570000Y-9330000D02*
X18530000Y-9370000D01*
X18546000Y-7321000D02*
X18586000Y-7361000D01*
X18586000Y-7321000D02*
X18546000Y-7361000D01*
X18546000Y-7971000D02*
X18586000Y-8011000D01*
X18586000Y-7971000D02*
X18546000Y-8011000D01*
X18555000Y-12873000D02*
X18595000Y-12913000D01*
X18595000Y-12873000D02*
X18555000Y-12913000D01*
X18630000Y-14780000D02*
X18670000Y-14820000D01*
X18670000Y-14780000D02*
X18630000Y-14820000D01*
X18705000Y-13380000D02*
X18745000Y-13420000D01*
X18745000Y-13380000D02*
X18705000Y-13420000D01*
X18796000Y-15196000D02*
X18836000Y-15236000D01*
X18836000Y-15196000D02*
X18796000Y-15236000D01*
X18855000Y-9830000D02*
X18895000Y-9870000D01*
X18895000Y-9830000D02*
X18855000Y-9870000D01*
X18855000Y-9930000D02*
X18895000Y-9970000D01*
X18895000Y-9930000D02*
X18855000Y-9970000D01*
X18896000Y-10371000D02*
X18936000Y-10411000D01*
X18936000Y-10371000D02*
X18896000Y-10411000D01*
X18921000Y-7321000D02*
X18961000Y-7361000D01*
X18961000Y-7321000D02*
X18921000Y-7361000D01*
X18921000Y-7971000D02*
X18961000Y-8011000D01*
X18961000Y-7971000D02*
X18921000Y-8011000D01*
X18996000Y-10046000D02*
X19036000Y-10086000D01*
X19036000Y-10046000D02*
X18996000Y-10086000D01*
X19021000Y-15621000D02*
X19061000Y-15661000D01*
X19061000Y-15621000D02*
X19021000Y-15661000D01*
X19021000Y-16446000D02*
X19061000Y-16486000D01*
X19061000Y-16446000D02*
X19021000Y-16486000D01*
X19071000Y-11146000D02*
X19111000Y-11186000D01*
X19111000Y-11146000D02*
X19071000Y-11186000D01*
X19146000Y-16896000D02*
X19186000Y-16936000D01*
X19186000Y-16896000D02*
X19146000Y-16936000D01*
X19171000Y-10196000D02*
X19211000Y-10236000D01*
X19211000Y-10196000D02*
X19171000Y-10236000D01*
X19171000Y-11021000D02*
X19211000Y-11061000D01*
X19211000Y-11021000D02*
X19171000Y-11061000D01*
X19171000Y-11326000D02*
X19211000Y-11366000D01*
X19211000Y-11326000D02*
X19171000Y-11366000D01*
X19196000Y-11696000D02*
X19236000Y-11736000D01*
X19236000Y-11696000D02*
X19196000Y-11736000D01*
X19221000Y-10721000D02*
X19261000Y-10761000D01*
X19261000Y-10721000D02*
X19221000Y-10761000D01*
X19271000Y-7321000D02*
X19311000Y-7361000D01*
X19311000Y-7321000D02*
X19271000Y-7361000D01*
X19271000Y-7971000D02*
X19311000Y-8011000D01*
X19311000Y-7971000D02*
X19271000Y-8011000D01*
X19271000Y-14521000D02*
X19311000Y-14561000D01*
X19311000Y-14521000D02*
X19271000Y-14561000D01*
X19296000Y-13021000D02*
X19336000Y-13061000D01*
X19336000Y-13021000D02*
X19296000Y-13061000D01*
X19296000Y-14021000D02*
X19336000Y-14061000D01*
X19336000Y-14021000D02*
X19296000Y-14061000D01*
X19296000Y-16621000D02*
X19336000Y-16661000D01*
X19336000Y-16621000D02*
X19296000Y-16661000D01*
X19305000Y-10530000D02*
X19345000Y-10570000D01*
X19345000Y-10530000D02*
X19305000Y-10570000D01*
X19321000Y-15621000D02*
X19361000Y-15661000D01*
X19361000Y-15621000D02*
X19321000Y-15661000D01*
X19405000Y-8680000D02*
X19445000Y-8720000D01*
X19445000Y-8680000D02*
X19405000Y-8720000D01*
X19405000Y-10855000D02*
X19445000Y-10895000D01*
X19445000Y-10855000D02*
X19405000Y-10895000D01*
X19496000Y-11471000D02*
X19536000Y-11511000D01*
X19536000Y-11471000D02*
X19496000Y-11511000D01*
X19596000Y-11121000D02*
X19636000Y-11161000D01*
X19636000Y-11121000D02*
X19596000Y-11161000D01*
X19646000Y-7321000D02*
X19686000Y-7361000D01*
X19686000Y-7321000D02*
X19646000Y-7361000D01*
X19646000Y-7971000D02*
X19686000Y-8011000D01*
X19686000Y-7971000D02*
X19646000Y-8011000D01*
X19646000Y-9346000D02*
X19686000Y-9386000D01*
X19686000Y-9346000D02*
X19646000Y-9386000D01*
X19846000Y-10071000D02*
X19886000Y-10111000D01*
X19886000Y-10071000D02*
X19846000Y-10111000D01*
X19921000Y-7321000D02*
X19961000Y-7361000D01*
X19961000Y-7321000D02*
X19921000Y-7361000D01*
X19921000Y-7971000D02*
X19961000Y-8011000D01*
X19961000Y-7971000D02*
X19921000Y-8011000D01*
X19980000Y-8230000D02*
X20020000Y-8270000D01*
X20020000Y-8230000D02*
X19980000Y-8270000D01*
X19996000Y-11121000D02*
X20036000Y-11161000D01*
X20036000Y-11121000D02*
X19996000Y-11161000D01*
X20046000Y-10346000D02*
X20086000Y-10386000D01*
X20086000Y-10346000D02*
X20046000Y-10386000D01*
X20046000Y-10498500D02*
X20086000Y-10538500D01*
X20086000Y-10498500D02*
X20046000Y-10538500D01*
X20155000Y-12342500D02*
X20195000Y-12382500D01*
X20195000Y-12342500D02*
X20155000Y-12382500D01*
X20171000Y-9071000D02*
X20211000Y-9111000D01*
X20211000Y-9071000D02*
X20171000Y-9111000D01*
X20171000Y-12021000D02*
X20211000Y-12061000D01*
X20211000Y-12021000D02*
X20171000Y-12061000D01*
X20171000Y-14021000D02*
X20211000Y-14061000D01*
X20211000Y-14021000D02*
X20171000Y-14061000D01*
X20171000Y-14971000D02*
X20211000Y-15011000D01*
X20211000Y-14971000D02*
X20171000Y-15011000D01*
X20171000Y-15896000D02*
X20211000Y-15936000D01*
X20211000Y-15896000D02*
X20171000Y-15936000D01*
X20246000Y-13021000D02*
X20286000Y-13061000D01*
X20286000Y-13021000D02*
X20246000Y-13061000D01*
X20255000Y-15280000D02*
X20295000Y-15320000D01*
X20295000Y-15280000D02*
X20255000Y-15320000D01*
X20280000Y-11705000D02*
X20320000Y-11745000D01*
X20320000Y-11705000D02*
X20280000Y-11745000D01*
X20296000Y-7321000D02*
X20336000Y-7361000D01*
X20336000Y-7321000D02*
X20296000Y-7361000D01*
X20296000Y-7971000D02*
X20336000Y-8011000D01*
X20336000Y-7971000D02*
X20296000Y-8011000D01*
X20296000Y-16046000D02*
X20336000Y-16086000D01*
X20336000Y-16046000D02*
X20296000Y-16086000D01*
X20505000Y-8155000D02*
X20545000Y-8195000D01*
X20545000Y-8155000D02*
X20505000Y-8195000D01*
X20505000Y-8505000D02*
X20545000Y-8545000D01*
X20545000Y-8505000D02*
X20505000Y-8545000D01*
X20507500Y-11080000D02*
X20547500Y-11120000D01*
X20547500Y-11080000D02*
X20507500Y-11120000D01*
X20521000Y-7321000D02*
X20561000Y-7361000D01*
X20561000Y-7321000D02*
X20521000Y-7361000D01*
X20521000Y-7971000D02*
X20561000Y-8011000D01*
X20561000Y-7971000D02*
X20521000Y-8011000D01*
X20571000Y-16721000D02*
X20611000Y-16761000D01*
X20611000Y-16721000D02*
X20571000Y-16761000D01*
X20705000Y-12105000D02*
X20745000Y-12145000D01*
X20745000Y-12105000D02*
X20705000Y-12145000D01*
X20796000Y-10521000D02*
X20836000Y-10561000D01*
X20836000Y-10521000D02*
X20796000Y-10561000D01*
X20805000Y-10155000D02*
X20845000Y-10195000D01*
X20845000Y-10155000D02*
X20805000Y-10195000D01*
X20821000Y-15413000D02*
X20861000Y-15453000D01*
X20861000Y-15413000D02*
X20821000Y-15453000D01*
X20871000Y-7321000D02*
X20911000Y-7361000D01*
X20911000Y-7321000D02*
X20871000Y-7361000D01*
X20880000Y-10305000D02*
X20920000Y-10345000D01*
X20920000Y-10305000D02*
X20880000Y-10345000D01*
X21171000Y-16021000D02*
X21211000Y-16061000D01*
X21211000Y-16021000D02*
X21171000Y-16061000D01*
X21221000Y-7321000D02*
X21261000Y-7361000D01*
X21261000Y-7321000D02*
X21221000Y-7361000D01*
X21221000Y-7971000D02*
X21261000Y-8011000D01*
X21261000Y-7971000D02*
X21221000Y-8011000D01*
X21230000Y-8155000D02*
X21270000Y-8195000D01*
X21270000Y-8155000D02*
X21230000Y-8195000D01*
X21230000Y-8530000D02*
X21270000Y-8570000D01*
X21270000Y-8530000D02*
X21230000Y-8570000D01*
X21271000Y-14971000D02*
X21311000Y-15011000D01*
X21311000Y-14971000D02*
X21271000Y-15011000D01*
X21646000Y-15696000D02*
X21686000Y-15736000D01*
X21686000Y-15696000D02*
X21646000Y-15736000D01*
X21696000Y-9071000D02*
X21736000Y-9111000D01*
X21736000Y-9071000D02*
X21696000Y-9111000D01*
X21696000Y-11471000D02*
X21736000Y-11511000D01*
X21736000Y-11471000D02*
X21696000Y-11511000D01*
X21696000Y-12096000D02*
X21736000Y-12136000D01*
X21736000Y-12096000D02*
X21696000Y-12136000D01*
X21771000Y-12342500D02*
X21811000Y-12382500D01*
X21811000Y-12342500D02*
X21771000Y-12382500D01*
X21771000Y-15121000D02*
X21811000Y-15161000D01*
X21811000Y-15121000D02*
X21771000Y-15161000D01*
X21846000Y-10046000D02*
X21886000Y-10086000D01*
X21886000Y-10046000D02*
X21846000Y-10086000D01*
X21921000Y-13021000D02*
X21961000Y-13061000D01*
X21961000Y-13021000D02*
X21921000Y-13061000D01*
X21971000Y-11650000D02*
X22011000Y-11690000D01*
X22011000Y-11650000D02*
X21971000Y-11690000D01*
X22021000Y-11021000D02*
X22061000Y-11061000D01*
X22061000Y-11021000D02*
X22021000Y-11061000D01*
X22046000Y-10021000D02*
X22086000Y-10061000D01*
X22086000Y-10021000D02*
X22046000Y-10061000D01*
X22071000Y-11996000D02*
X22111000Y-12036000D01*
X22111000Y-11996000D02*
X22071000Y-12036000D01*
X22071000Y-15546000D02*
X22111000Y-15586000D01*
X22111000Y-15546000D02*
X22071000Y-15586000D01*
X22171000Y-9021000D02*
X22211000Y-9061000D01*
X22211000Y-9021000D02*
X22171000Y-9061000D01*
X19704100Y-8458000D02*
G75*
G02*
X19627900Y-8458000I-38100J0D01*
G01*
X19627900Y-8458000D02*
G75*
G02*
X19704100Y-8458000I38100J0D01*
G01*
X19704100Y-8712000D02*
G75*
G02*
X19627900Y-8712000I-38100J0D01*
G01*
X19627900Y-8712000D02*
G75*
G02*
X19704100Y-8712000I38100J0D01*
G01*
X19704100Y-8966000D02*
G75*
G02*
X19627900Y-8966000I-38100J0D01*
G01*
X19627900Y-8966000D02*
G75*
G02*
X19704100Y-8966000I38100J0D01*
G01*
X15241000Y-15508000D02*
X15241000Y-15608000D01*
X15191000Y-15558000D02*
X15291000Y-15558000D01*
X15241000Y-15762000D02*
X15241000Y-15862000D01*
X15191000Y-15812000D02*
X15291000Y-15812000D01*
X15241000Y-16016000D02*
X15241000Y-16116000D01*
X15191000Y-16066000D02*
X15291000Y-16066000D01*
X20908500Y-14391000D02*
X20908500Y-14491000D01*
X20858500Y-14441000D02*
X20958500Y-14441000D01*
X20908500Y-14645000D02*
X20908500Y-14745000D01*
X20858500Y-14695000D02*
X20958500Y-14695000D01*
X21162500Y-14391000D02*
X21162500Y-14491000D01*
X21112500Y-14441000D02*
X21212500Y-14441000D01*
X21162500Y-14645000D02*
X21162500Y-14745000D01*
X21112500Y-14695000D02*
X21212500Y-14695000D01*
X21247967Y-10373500D02*
X21247967Y-10473500D01*
X21197967Y-10423500D02*
X21297967Y-10423500D01*
X21247967Y-10650500D02*
X21247967Y-10750500D01*
X21197967Y-10700500D02*
X21297967Y-10700500D01*
X21247967Y-10927500D02*
X21247967Y-11027500D01*
X21197967Y-10977500D02*
X21297967Y-10977500D01*
X21247967Y-11204500D02*
X21247967Y-11304500D01*
X21197967Y-11254500D02*
X21297967Y-11254500D01*
X21247967Y-11481500D02*
X21247967Y-11581500D01*
X21197967Y-11531500D02*
X21297967Y-11531500D01*
X21247967Y-11758500D02*
X21247967Y-11858500D01*
X21197967Y-11808500D02*
X21297967Y-11808500D01*
X21247967Y-12035500D02*
X21247967Y-12135500D01*
X21197967Y-12085500D02*
X21297967Y-12085500D01*
X21247967Y-12312500D02*
X21247967Y-12412500D01*
X21197967Y-12362500D02*
X21297967Y-12362500D01*
X21416500Y-14391000D02*
X21416500Y-14491000D01*
X21366500Y-14441000D02*
X21466500Y-14441000D01*
X21416500Y-14645000D02*
X21416500Y-14745000D01*
X21366500Y-14695000D02*
X21466500Y-14695000D01*
X21531967Y-10512000D02*
X21531967Y-10612000D01*
X21481967Y-10562000D02*
X21581967Y-10562000D01*
X21531967Y-10789000D02*
X21531967Y-10889000D01*
X21481967Y-10839000D02*
X21581967Y-10839000D01*
X21531967Y-11066000D02*
X21531967Y-11166000D01*
X21481967Y-11116000D02*
X21581967Y-11116000D01*
X21531967Y-11343000D02*
X21531967Y-11443000D01*
X21481967Y-11393000D02*
X21581967Y-11393000D01*
X21531967Y-11620000D02*
X21531967Y-11720000D01*
X21481967Y-11670000D02*
X21581967Y-11670000D01*
X21531967Y-11897000D02*
X21531967Y-11997000D01*
X21481967Y-11947000D02*
X21581967Y-11947000D01*
X21531967Y-12174000D02*
X21531967Y-12274000D01*
X21481967Y-12224000D02*
X21581967Y-12224000D01*
X21670500Y-14391000D02*
X21670500Y-14491000D01*
X21620500Y-14441000D02*
X21720500Y-14441000D01*
X21670500Y-14645000D02*
X21670500Y-14745000D01*
X21620500Y-14695000D02*
X21720500Y-14695000D01*
X21924500Y-14391000D02*
X21924500Y-14491000D01*
X21874500Y-14441000D02*
X21974500Y-14441000D01*
X21924500Y-14645000D02*
X21924500Y-14745000D01*
X21874500Y-14695000D02*
X21974500Y-14695000D01*
D12*
X17763063Y-12167063D02*
X17763063Y-12094937D01*
X17690937Y-12094937D01*
X17690937Y-12167063D01*
X17763063Y-12167063D01*
X17763063Y-12421063D02*
X17763063Y-12348937D01*
X17690937Y-12348937D01*
X17690937Y-12421063D01*
X17763063Y-12421063D01*
X17763063Y-12675063D02*
X17763063Y-12602937D01*
X17690937Y-12602937D01*
X17690937Y-12675063D01*
X17763063Y-12675063D01*
X17763063Y-12929063D02*
X17763063Y-12856937D01*
X17690937Y-12856937D01*
X17690937Y-12929063D01*
X17763063Y-12929063D01*
X17763063Y-13183063D02*
X17763063Y-13110937D01*
X17690937Y-13110937D01*
X17690937Y-13183063D01*
X17763063Y-13183063D01*
X17763063Y-13437063D02*
X17763063Y-13364937D01*
X17690937Y-13364937D01*
X17690937Y-13437063D01*
X17763063Y-13437063D01*
X17763063Y-13691063D02*
X17763063Y-13618937D01*
X17690937Y-13618937D01*
X17690937Y-13691063D01*
X17763063Y-13691063D01*
X17763063Y-13945063D02*
X17763063Y-13872937D01*
X17690937Y-13872937D01*
X17690937Y-13945063D01*
X17763063Y-13945063D01*
X17763063Y-14199063D02*
X17763063Y-14126937D01*
X17690937Y-14126937D01*
X17690937Y-14199063D01*
X17763063Y-14199063D01*
X17763063Y-14453063D02*
X17763063Y-14380937D01*
X17690937Y-14380937D01*
X17690937Y-14453063D01*
X17763063Y-14453063D01*
X17763063Y-14707063D02*
X17763063Y-14634937D01*
X17690937Y-14634937D01*
X17690937Y-14707063D01*
X17763063Y-14707063D01*
X17763063Y-14961063D02*
X17763063Y-14888937D01*
X17690937Y-14888937D01*
X17690937Y-14961063D01*
X17763063Y-14961063D01*
X17763063Y-15215063D02*
X17763063Y-15142937D01*
X17690937Y-15142937D01*
X17690937Y-15215063D01*
X17763063Y-15215063D01*
X17763063Y-15469063D02*
X17763063Y-15396937D01*
X17690937Y-15396937D01*
X17690937Y-15469063D01*
X17763063Y-15469063D01*
X17763063Y-15723063D02*
X17763063Y-15650937D01*
X17690937Y-15650937D01*
X17690937Y-15723063D01*
X17763063Y-15723063D01*
X17763063Y-15977063D02*
X17763063Y-15904937D01*
X17690937Y-15904937D01*
X17690937Y-15977063D01*
X17763063Y-15977063D01*
X17763063Y-16231063D02*
X17763063Y-16158937D01*
X17690937Y-16158937D01*
X17690937Y-16231063D01*
X17763063Y-16231063D01*
X17763063Y-16485063D02*
X17763063Y-16412937D01*
X17690937Y-16412937D01*
X17690937Y-16485063D01*
X17763063Y-16485063D01*
X17763063Y-16739063D02*
X17763063Y-16666937D01*
X17690937Y-16666937D01*
X17690937Y-16739063D01*
X17763063Y-16739063D01*
X17763063Y-16993063D02*
X17763063Y-16920937D01*
X17690937Y-16920937D01*
X17690937Y-16993063D01*
X17763063Y-16993063D01*
X18398063Y-12190063D02*
X18398063Y-12117937D01*
X18325937Y-12117937D01*
X18325937Y-12190063D01*
X18398063Y-12190063D01*
X18652063Y-12190063D02*
X18652063Y-12117937D01*
X18579937Y-12117937D01*
X18579937Y-12190063D01*
X18652063Y-12190063D01*
X18906063Y-12190063D02*
X18906063Y-12117937D01*
X18833937Y-12117937D01*
X18833937Y-12190063D01*
X18906063Y-12190063D01*
X19541063Y-12167063D02*
X19541063Y-12094937D01*
X19468937Y-12094937D01*
X19468937Y-12167063D01*
X19541063Y-12167063D01*
X19541063Y-12421063D02*
X19541063Y-12348937D01*
X19468937Y-12348937D01*
X19468937Y-12421063D01*
X19541063Y-12421063D01*
X19541063Y-12675063D02*
X19541063Y-12602937D01*
X19468937Y-12602937D01*
X19468937Y-12675063D01*
X19541063Y-12675063D01*
X19541063Y-12929063D02*
X19541063Y-12856937D01*
X19468937Y-12856937D01*
X19468937Y-12929063D01*
X19541063Y-12929063D01*
X19541063Y-13183063D02*
X19541063Y-13110937D01*
X19468937Y-13110937D01*
X19468937Y-13183063D01*
X19541063Y-13183063D01*
X19541063Y-13437063D02*
X19541063Y-13364937D01*
X19468937Y-13364937D01*
X19468937Y-13437063D01*
X19541063Y-13437063D01*
X19541063Y-13691063D02*
X19541063Y-13618937D01*
X19468937Y-13618937D01*
X19468937Y-13691063D01*
X19541063Y-13691063D01*
X19541063Y-13945063D02*
X19541063Y-13872937D01*
X19468937Y-13872937D01*
X19468937Y-13945063D01*
X19541063Y-13945063D01*
X19541063Y-14199063D02*
X19541063Y-14126937D01*
X19468937Y-14126937D01*
X19468937Y-14199063D01*
X19541063Y-14199063D01*
X19541063Y-14453063D02*
X19541063Y-14380937D01*
X19468937Y-14380937D01*
X19468937Y-14453063D01*
X19541063Y-14453063D01*
X19541063Y-14707063D02*
X19541063Y-14634937D01*
X19468937Y-14634937D01*
X19468937Y-14707063D01*
X19541063Y-14707063D01*
X19541063Y-14961063D02*
X19541063Y-14888937D01*
X19468937Y-14888937D01*
X19468937Y-14961063D01*
X19541063Y-14961063D01*
X19541063Y-15215063D02*
X19541063Y-15142937D01*
X19468937Y-15142937D01*
X19468937Y-15215063D01*
X19541063Y-15215063D01*
X19541063Y-15469063D02*
X19541063Y-15396937D01*
X19468937Y-15396937D01*
X19468937Y-15469063D01*
X19541063Y-15469063D01*
X19541063Y-15723063D02*
X19541063Y-15650937D01*
X19468937Y-15650937D01*
X19468937Y-15723063D01*
X19541063Y-15723063D01*
X19541063Y-15977063D02*
X19541063Y-15904937D01*
X19468937Y-15904937D01*
X19468937Y-15977063D01*
X19541063Y-15977063D01*
X19541063Y-16231063D02*
X19541063Y-16158937D01*
X19468937Y-16158937D01*
X19468937Y-16231063D01*
X19541063Y-16231063D01*
X19541063Y-16485063D02*
X19541063Y-16412937D01*
X19468937Y-16412937D01*
X19468937Y-16485063D01*
X19541063Y-16485063D01*
X19541063Y-16739063D02*
X19541063Y-16666937D01*
X19468937Y-16666937D01*
X19468937Y-16739063D01*
X19541063Y-16739063D01*
X19541063Y-16993063D02*
X19541063Y-16920937D01*
X19468937Y-16920937D01*
X19468937Y-16993063D01*
X19541063Y-16993063D01*
D13*
X20791000Y-16146000D02*
X20846000Y-16091000D01*
X20791000Y-16036000D01*
X20736000Y-16091000D01*
X20791000Y-16146000D01*
X20791000Y-16596000D02*
X20846000Y-16541000D01*
X20791000Y-16486000D01*
X20736000Y-16541000D01*
X20791000Y-16596000D01*
X21441000Y-16146000D02*
X21496000Y-16091000D01*
X21441000Y-16036000D01*
X21386000Y-16091000D01*
X21441000Y-16146000D01*
X21441000Y-16596000D02*
X21496000Y-16541000D01*
X21441000Y-16486000D01*
X21386000Y-16541000D01*
X21441000Y-16596000D01*
D14*
X15181500Y-10608000D02*
X15300500Y-10727000D01*
X15300500Y-10608000D02*
X15181500Y-10727000D01*
X15300500Y-10667500D02*
G75*
G02*
X15181500Y-10667500I-59500J0D01*
G01*
X15181500Y-10667500D02*
G75*
G02*
X15300500Y-10667500I59500J0D01*
G01*
X15181500Y-10862000D02*
X15300500Y-10981000D01*
X15300500Y-10862000D02*
X15181500Y-10981000D01*
X15300500Y-10921500D02*
G75*
G02*
X15181500Y-10921500I-59500J0D01*
G01*
X15181500Y-10921500D02*
G75*
G02*
X15300500Y-10921500I59500J0D01*
G01*
X15181500Y-11116000D02*
X15300500Y-11235000D01*
X15300500Y-11116000D02*
X15181500Y-11235000D01*
X15300500Y-11175500D02*
G75*
G02*
X15181500Y-11175500I-59500J0D01*
G01*
X15181500Y-11175500D02*
G75*
G02*
X15300500Y-11175500I59500J0D01*
G01*
X15181500Y-11370000D02*
X15300500Y-11489000D01*
X15300500Y-11370000D02*
X15181500Y-11489000D01*
X15300500Y-11429500D02*
G75*
G02*
X15181500Y-11429500I-59500J0D01*
G01*
X15181500Y-11429500D02*
G75*
G02*
X15300500Y-11429500I59500J0D01*
G01*
X15181500Y-13173500D02*
X15300500Y-13292500D01*
X15300500Y-13173500D02*
X15181500Y-13292500D01*
X15300500Y-13233000D02*
G75*
G02*
X15181500Y-13233000I-59500J0D01*
G01*
X15181500Y-13233000D02*
G75*
G02*
X15300500Y-13233000I59500J0D01*
G01*
X15181500Y-13427500D02*
X15300500Y-13546500D01*
X15300500Y-13427500D02*
X15181500Y-13546500D01*
X15300500Y-13487000D02*
G75*
G02*
X15181500Y-13487000I-59500J0D01*
G01*
X15181500Y-13487000D02*
G75*
G02*
X15300500Y-13487000I59500J0D01*
G01*
X15181500Y-13681500D02*
X15300500Y-13800500D01*
X15300500Y-13681500D02*
X15181500Y-13800500D01*
X15300500Y-13741000D02*
G75*
G02*
X15181500Y-13741000I-59500J0D01*
G01*
X15181500Y-13741000D02*
G75*
G02*
X15300500Y-13741000I59500J0D01*
G01*
X15181500Y-14173500D02*
X15300500Y-14292500D01*
X15300500Y-14173500D02*
X15181500Y-14292500D01*
X15300500Y-14233000D02*
G75*
G02*
X15181500Y-14233000I-59500J0D01*
G01*
X15181500Y-14233000D02*
G75*
G02*
X15300500Y-14233000I59500J0D01*
G01*
X15181500Y-14427500D02*
X15300500Y-14546500D01*
X15300500Y-14427500D02*
X15181500Y-14546500D01*
X15300500Y-14487000D02*
G75*
G02*
X15181500Y-14487000I-59500J0D01*
G01*
X15181500Y-14487000D02*
G75*
G02*
X15300500Y-14487000I59500J0D01*
G01*
X15181500Y-14681500D02*
X15300500Y-14800500D01*
X15300500Y-14681500D02*
X15181500Y-14800500D01*
X15300500Y-14741000D02*
G75*
G02*
X15181500Y-14741000I-59500J0D01*
G01*
X15181500Y-14741000D02*
G75*
G02*
X15300500Y-14741000I59500J0D01*
G01*
X15181500Y-14935500D02*
X15300500Y-15054500D01*
X15300500Y-14935500D02*
X15181500Y-15054500D01*
X15300500Y-14995000D02*
G75*
G02*
X15181500Y-14995000I-59500J0D01*
G01*
X15181500Y-14995000D02*
G75*
G02*
X15300500Y-14995000I59500J0D01*
G01*
X15183500Y-11877500D02*
X15302500Y-11996500D01*
X15302500Y-11877500D02*
X15183500Y-11996500D01*
X15302500Y-11937000D02*
G75*
G02*
X15183500Y-11937000I-59500J0D01*
G01*
X15183500Y-11937000D02*
G75*
G02*
X15302500Y-11937000I59500J0D01*
G01*
X15183500Y-12131500D02*
X15302500Y-12250500D01*
X15302500Y-12131500D02*
X15183500Y-12250500D01*
X15302500Y-12191000D02*
G75*
G02*
X15183500Y-12191000I-59500J0D01*
G01*
X15183500Y-12191000D02*
G75*
G02*
X15302500Y-12191000I59500J0D01*
G01*
X15183500Y-12385500D02*
X15302500Y-12504500D01*
X15302500Y-12385500D02*
X15183500Y-12504500D01*
X15302500Y-12445000D02*
G75*
G02*
X15183500Y-12445000I-59500J0D01*
G01*
X15183500Y-12445000D02*
G75*
G02*
X15302500Y-12445000I59500J0D01*
G01*
X15183500Y-12639500D02*
X15302500Y-12758500D01*
X15302500Y-12639500D02*
X15183500Y-12758500D01*
X15302500Y-12699000D02*
G75*
G02*
X15183500Y-12699000I-59500J0D01*
G01*
X15183500Y-12699000D02*
G75*
G02*
X15302500Y-12699000I59500J0D01*
G01*
D15*
X21229967Y-9568000D02*
X21549967Y-9888000D01*
X21549967Y-9568000D02*
X21229967Y-9888000D01*
X21389967Y-9568000D02*
X21389967Y-9888000D01*
X21229967Y-9728000D02*
X21549967Y-9728000D01*
X21229967Y-12898000D02*
X21549967Y-13218000D01*
X21549967Y-12898000D02*
X21229967Y-13218000D01*
X21389967Y-12898000D02*
X21389967Y-13218000D01*
X21229967Y-13058000D02*
X21549967Y-13058000D01*
D16*
X16116000Y-7481000D02*
X16566000Y-7931000D01*
X16566000Y-7481000D02*
X16116000Y-7931000D01*
X16500101Y-7865101D02*
X16500101Y-7546899D01*
X16181899Y-7546899D01*
X16181899Y-7865101D01*
X16500101Y-7865101D01*
X16116000Y-8201000D02*
X16566000Y-8651000D01*
X16566000Y-8201000D02*
X16116000Y-8651000D01*
X16500101Y-8585101D02*
X16500101Y-8266899D01*
X16181899Y-8266899D01*
X16181899Y-8585101D01*
X16500101Y-8585101D01*
X20666000Y-7481000D02*
X21116000Y-7931000D01*
X21116000Y-7481000D02*
X20666000Y-7931000D01*
X21050101Y-7865101D02*
X21050101Y-7546899D01*
X20731899Y-7546899D01*
X20731899Y-7865101D01*
X21050101Y-7865101D01*
X20666000Y-8201000D02*
X21116000Y-8651000D01*
X21116000Y-8201000D02*
X20666000Y-8651000D01*
X21050101Y-8585101D02*
X21050101Y-8266899D01*
X20731899Y-8266899D01*
X20731899Y-8585101D01*
X21050101Y-8585101D01*
D11*
X15121777Y-17532484D02*
X15121777Y-17332484D01*
X15121777Y-17332484D02*
X15169396Y-17332484D01*
X15169396Y-17332484D02*
X15197967Y-17342008D01*
X15197967Y-17342008D02*
X15217015Y-17361055D01*
X15217015Y-17361055D02*
X15226539Y-17380103D01*
X15226539Y-17380103D02*
X15236062Y-17418198D01*
X15236062Y-17418198D02*
X15236062Y-17446770D01*
X15236062Y-17446770D02*
X15226539Y-17484865D01*
X15226539Y-17484865D02*
X15217015Y-17503912D01*
X15217015Y-17503912D02*
X15197967Y-17522960D01*
X15197967Y-17522960D02*
X15169396Y-17532484D01*
X15169396Y-17532484D02*
X15121777Y-17532484D01*
X15321777Y-17532484D02*
X15321777Y-17399150D01*
X15321777Y-17437246D02*
X15331301Y-17418198D01*
X15331301Y-17418198D02*
X15340824Y-17408674D01*
X15340824Y-17408674D02*
X15359872Y-17399150D01*
X15359872Y-17399150D02*
X15378920Y-17399150D01*
X15445586Y-17532484D02*
X15445586Y-17399150D01*
X15445586Y-17332484D02*
X15436062Y-17342008D01*
X15436062Y-17342008D02*
X15445586Y-17351531D01*
X15445586Y-17351531D02*
X15455110Y-17342008D01*
X15455110Y-17342008D02*
X15445586Y-17332484D01*
X15445586Y-17332484D02*
X15445586Y-17351531D01*
X15569396Y-17532484D02*
X15550348Y-17522960D01*
X15550348Y-17522960D02*
X15540824Y-17503912D01*
X15540824Y-17503912D02*
X15540824Y-17332484D01*
X15674158Y-17532484D02*
X15655110Y-17522960D01*
X15655110Y-17522960D02*
X15645586Y-17503912D01*
X15645586Y-17503912D02*
X15645586Y-17332484D01*
X15902729Y-17532484D02*
X15902729Y-17332484D01*
X15902729Y-17332484D02*
X15969396Y-17475341D01*
X15969396Y-17475341D02*
X16036062Y-17332484D01*
X16036062Y-17332484D02*
X16036062Y-17532484D01*
X16217015Y-17532484D02*
X16217015Y-17427722D01*
X16217015Y-17427722D02*
X16207491Y-17408674D01*
X16207491Y-17408674D02*
X16188443Y-17399150D01*
X16188443Y-17399150D02*
X16150348Y-17399150D01*
X16150348Y-17399150D02*
X16131301Y-17408674D01*
X16217015Y-17522960D02*
X16197967Y-17532484D01*
X16197967Y-17532484D02*
X16150348Y-17532484D01*
X16150348Y-17532484D02*
X16131301Y-17522960D01*
X16131301Y-17522960D02*
X16121777Y-17503912D01*
X16121777Y-17503912D02*
X16121777Y-17484865D01*
X16121777Y-17484865D02*
X16131301Y-17465817D01*
X16131301Y-17465817D02*
X16150348Y-17456293D01*
X16150348Y-17456293D02*
X16197967Y-17456293D01*
X16197967Y-17456293D02*
X16217015Y-17446770D01*
X16312253Y-17399150D02*
X16312253Y-17599150D01*
X16312253Y-17408674D02*
X16331301Y-17399150D01*
X16331301Y-17399150D02*
X16369396Y-17399150D01*
X16369396Y-17399150D02*
X16388443Y-17408674D01*
X16388443Y-17408674D02*
X16397967Y-17418198D01*
X16397967Y-17418198D02*
X16407491Y-17437246D01*
X16407491Y-17437246D02*
X16407491Y-17494389D01*
X16407491Y-17494389D02*
X16397967Y-17513436D01*
X16397967Y-17513436D02*
X16388443Y-17522960D01*
X16388443Y-17522960D02*
X16369396Y-17532484D01*
X16369396Y-17532484D02*
X16331301Y-17532484D01*
X16331301Y-17532484D02*
X16312253Y-17522960D01*
X16493205Y-17513436D02*
X16502729Y-17522960D01*
X16502729Y-17522960D02*
X16493205Y-17532484D01*
X16493205Y-17532484D02*
X16483682Y-17522960D01*
X16483682Y-17522960D02*
X16493205Y-17513436D01*
X16493205Y-17513436D02*
X16493205Y-17532484D01*
X16493205Y-17408674D02*
X16502729Y-17418198D01*
X16502729Y-17418198D02*
X16493205Y-17427722D01*
X16493205Y-17427722D02*
X16483682Y-17418198D01*
X16483682Y-17418198D02*
X16493205Y-17408674D01*
X16493205Y-17408674D02*
X16493205Y-17427722D01*
D10*
X14821000Y-17841000D02*
X14861000Y-17881000D01*
X14861000Y-17841000D02*
X14821000Y-17881000D01*
D11*
X15159872Y-17752484D02*
X15178920Y-17752484D01*
X15178920Y-17752484D02*
X15197967Y-17762008D01*
X15197967Y-17762008D02*
X15207491Y-17771531D01*
X15207491Y-17771531D02*
X15217015Y-17790579D01*
X15217015Y-17790579D02*
X15226539Y-17828674D01*
X15226539Y-17828674D02*
X15226539Y-17876293D01*
X15226539Y-17876293D02*
X15217015Y-17914389D01*
X15217015Y-17914389D02*
X15207491Y-17933436D01*
X15207491Y-17933436D02*
X15197967Y-17942960D01*
X15197967Y-17942960D02*
X15178920Y-17952484D01*
X15178920Y-17952484D02*
X15159872Y-17952484D01*
X15159872Y-17952484D02*
X15140824Y-17942960D01*
X15140824Y-17942960D02*
X15131301Y-17933436D01*
X15131301Y-17933436D02*
X15121777Y-17914389D01*
X15121777Y-17914389D02*
X15112253Y-17876293D01*
X15112253Y-17876293D02*
X15112253Y-17828674D01*
X15112253Y-17828674D02*
X15121777Y-17790579D01*
X15121777Y-17790579D02*
X15131301Y-17771531D01*
X15131301Y-17771531D02*
X15140824Y-17762008D01*
X15140824Y-17762008D02*
X15159872Y-17752484D01*
X15312253Y-17933436D02*
X15321777Y-17942960D01*
X15321777Y-17942960D02*
X15312253Y-17952484D01*
X15312253Y-17952484D02*
X15302729Y-17942960D01*
X15302729Y-17942960D02*
X15312253Y-17933436D01*
X15312253Y-17933436D02*
X15312253Y-17952484D01*
X15493205Y-17819150D02*
X15493205Y-17952484D01*
X15445586Y-17742960D02*
X15397967Y-17885817D01*
X15397967Y-17885817D02*
X15521777Y-17885817D01*
X15636062Y-17752484D02*
X15655110Y-17752484D01*
X15655110Y-17752484D02*
X15674158Y-17762008D01*
X15674158Y-17762008D02*
X15683682Y-17771531D01*
X15683682Y-17771531D02*
X15693205Y-17790579D01*
X15693205Y-17790579D02*
X15702729Y-17828674D01*
X15702729Y-17828674D02*
X15702729Y-17876293D01*
X15702729Y-17876293D02*
X15693205Y-17914389D01*
X15693205Y-17914389D02*
X15683682Y-17933436D01*
X15683682Y-17933436D02*
X15674158Y-17942960D01*
X15674158Y-17942960D02*
X15655110Y-17952484D01*
X15655110Y-17952484D02*
X15636062Y-17952484D01*
X15636062Y-17952484D02*
X15617015Y-17942960D01*
X15617015Y-17942960D02*
X15607491Y-17933436D01*
X15607491Y-17933436D02*
X15597967Y-17914389D01*
X15597967Y-17914389D02*
X15588443Y-17876293D01*
X15588443Y-17876293D02*
X15588443Y-17828674D01*
X15588443Y-17828674D02*
X15597967Y-17790579D01*
X15597967Y-17790579D02*
X15607491Y-17771531D01*
X15607491Y-17771531D02*
X15617015Y-17762008D01*
X15617015Y-17762008D02*
X15636062Y-17752484D01*
X15826539Y-17752484D02*
X15845586Y-17752484D01*
X15845586Y-17752484D02*
X15864634Y-17762008D01*
X15864634Y-17762008D02*
X15874158Y-17771531D01*
X15874158Y-17771531D02*
X15883682Y-17790579D01*
X15883682Y-17790579D02*
X15893205Y-17828674D01*
X15893205Y-17828674D02*
X15893205Y-17876293D01*
X15893205Y-17876293D02*
X15883682Y-17914389D01*
X15883682Y-17914389D02*
X15874158Y-17933436D01*
X15874158Y-17933436D02*
X15864634Y-17942960D01*
X15864634Y-17942960D02*
X15845586Y-17952484D01*
X15845586Y-17952484D02*
X15826539Y-17952484D01*
X15826539Y-17952484D02*
X15807491Y-17942960D01*
X15807491Y-17942960D02*
X15797967Y-17933436D01*
X15797967Y-17933436D02*
X15788443Y-17914389D01*
X15788443Y-17914389D02*
X15778920Y-17876293D01*
X15778920Y-17876293D02*
X15778920Y-17828674D01*
X15778920Y-17828674D02*
X15788443Y-17790579D01*
X15788443Y-17790579D02*
X15797967Y-17771531D01*
X15797967Y-17771531D02*
X15807491Y-17762008D01*
X15807491Y-17762008D02*
X15826539Y-17752484D01*
X15978920Y-17952484D02*
X15978920Y-17819150D01*
X15978920Y-17838198D02*
X15988443Y-17828674D01*
X15988443Y-17828674D02*
X16007491Y-17819150D01*
X16007491Y-17819150D02*
X16036063Y-17819150D01*
X16036063Y-17819150D02*
X16055110Y-17828674D01*
X16055110Y-17828674D02*
X16064634Y-17847722D01*
X16064634Y-17847722D02*
X16064634Y-17952484D01*
X16064634Y-17847722D02*
X16074158Y-17828674D01*
X16074158Y-17828674D02*
X16093205Y-17819150D01*
X16093205Y-17819150D02*
X16121777Y-17819150D01*
X16121777Y-17819150D02*
X16140824Y-17828674D01*
X16140824Y-17828674D02*
X16150348Y-17847722D01*
X16150348Y-17847722D02*
X16150348Y-17952484D01*
X16245586Y-17952484D02*
X16245586Y-17819150D01*
X16245586Y-17838198D02*
X16255110Y-17828674D01*
X16255110Y-17828674D02*
X16274158Y-17819150D01*
X16274158Y-17819150D02*
X16302729Y-17819150D01*
X16302729Y-17819150D02*
X16321777Y-17828674D01*
X16321777Y-17828674D02*
X16331301Y-17847722D01*
X16331301Y-17847722D02*
X16331301Y-17952484D01*
X16331301Y-17847722D02*
X16340824Y-17828674D01*
X16340824Y-17828674D02*
X16359872Y-17819150D01*
X16359872Y-17819150D02*
X16388443Y-17819150D01*
X16388443Y-17819150D02*
X16407491Y-17828674D01*
X16407491Y-17828674D02*
X16417015Y-17847722D01*
X16417015Y-17847722D02*
X16417015Y-17952484D01*
X16807491Y-17742960D02*
X16636063Y-18000103D01*
X17064634Y-17752484D02*
X17083682Y-17752484D01*
X17083682Y-17752484D02*
X17102729Y-17762008D01*
X17102729Y-17762008D02*
X17112253Y-17771531D01*
X17112253Y-17771531D02*
X17121777Y-17790579D01*
X17121777Y-17790579D02*
X17131301Y-17828674D01*
X17131301Y-17828674D02*
X17131301Y-17876293D01*
X17131301Y-17876293D02*
X17121777Y-17914389D01*
X17121777Y-17914389D02*
X17112253Y-17933436D01*
X17112253Y-17933436D02*
X17102729Y-17942960D01*
X17102729Y-17942960D02*
X17083682Y-17952484D01*
X17083682Y-17952484D02*
X17064634Y-17952484D01*
X17064634Y-17952484D02*
X17045587Y-17942960D01*
X17045587Y-17942960D02*
X17036063Y-17933436D01*
X17036063Y-17933436D02*
X17026539Y-17914389D01*
X17026539Y-17914389D02*
X17017015Y-17876293D01*
X17017015Y-17876293D02*
X17017015Y-17828674D01*
X17017015Y-17828674D02*
X17026539Y-17790579D01*
X17026539Y-17790579D02*
X17036063Y-17771531D01*
X17036063Y-17771531D02*
X17045587Y-17762008D01*
X17045587Y-17762008D02*
X17064634Y-17752484D01*
X17217015Y-17933436D02*
X17226539Y-17942960D01*
X17226539Y-17942960D02*
X17217015Y-17952484D01*
X17217015Y-17952484D02*
X17207491Y-17942960D01*
X17207491Y-17942960D02*
X17217015Y-17933436D01*
X17217015Y-17933436D02*
X17217015Y-17952484D01*
X17350348Y-17752484D02*
X17369396Y-17752484D01*
X17369396Y-17752484D02*
X17388444Y-17762008D01*
X17388444Y-17762008D02*
X17397968Y-17771531D01*
X17397968Y-17771531D02*
X17407491Y-17790579D01*
X17407491Y-17790579D02*
X17417015Y-17828674D01*
X17417015Y-17828674D02*
X17417015Y-17876293D01*
X17417015Y-17876293D02*
X17407491Y-17914389D01*
X17407491Y-17914389D02*
X17397968Y-17933436D01*
X17397968Y-17933436D02*
X17388444Y-17942960D01*
X17388444Y-17942960D02*
X17369396Y-17952484D01*
X17369396Y-17952484D02*
X17350348Y-17952484D01*
X17350348Y-17952484D02*
X17331301Y-17942960D01*
X17331301Y-17942960D02*
X17321777Y-17933436D01*
X17321777Y-17933436D02*
X17312253Y-17914389D01*
X17312253Y-17914389D02*
X17302729Y-17876293D01*
X17302729Y-17876293D02*
X17302729Y-17828674D01*
X17302729Y-17828674D02*
X17312253Y-17790579D01*
X17312253Y-17790579D02*
X17321777Y-17771531D01*
X17321777Y-17771531D02*
X17331301Y-17762008D01*
X17331301Y-17762008D02*
X17350348Y-17752484D01*
X17607491Y-17952484D02*
X17493206Y-17952484D01*
X17550348Y-17952484D02*
X17550348Y-17752484D01*
X17550348Y-17752484D02*
X17531301Y-17781055D01*
X17531301Y-17781055D02*
X17512253Y-17800103D01*
X17512253Y-17800103D02*
X17493206Y-17809627D01*
X17788444Y-17752484D02*
X17693206Y-17752484D01*
X17693206Y-17752484D02*
X17683682Y-17847722D01*
X17683682Y-17847722D02*
X17693206Y-17838198D01*
X17693206Y-17838198D02*
X17712253Y-17828674D01*
X17712253Y-17828674D02*
X17759872Y-17828674D01*
X17759872Y-17828674D02*
X17778920Y-17838198D01*
X17778920Y-17838198D02*
X17788444Y-17847722D01*
X17788444Y-17847722D02*
X17797968Y-17866770D01*
X17797968Y-17866770D02*
X17797968Y-17914389D01*
X17797968Y-17914389D02*
X17788444Y-17933436D01*
X17788444Y-17933436D02*
X17778920Y-17942960D01*
X17778920Y-17942960D02*
X17759872Y-17952484D01*
X17759872Y-17952484D02*
X17712253Y-17952484D01*
X17712253Y-17952484D02*
X17693206Y-17942960D01*
X17693206Y-17942960D02*
X17683682Y-17933436D01*
X17864634Y-17752484D02*
X17997968Y-17752484D01*
X17997968Y-17752484D02*
X17912253Y-17952484D01*
X18064634Y-17752484D02*
X18064634Y-17790579D01*
X18140825Y-17752484D02*
X18140825Y-17790579D01*
X18436063Y-18028674D02*
X18426539Y-18019150D01*
X18426539Y-18019150D02*
X18407491Y-17990579D01*
X18407491Y-17990579D02*
X18397968Y-17971531D01*
X18397968Y-17971531D02*
X18388444Y-17942960D01*
X18388444Y-17942960D02*
X18378920Y-17895341D01*
X18378920Y-17895341D02*
X18378920Y-17857246D01*
X18378920Y-17857246D02*
X18388444Y-17809627D01*
X18388444Y-17809627D02*
X18397968Y-17781055D01*
X18397968Y-17781055D02*
X18407491Y-17762008D01*
X18407491Y-17762008D02*
X18426539Y-17733436D01*
X18426539Y-17733436D02*
X18436063Y-17723912D01*
X18617015Y-17952484D02*
X18502730Y-17952484D01*
X18559872Y-17952484D02*
X18559872Y-17752484D01*
X18559872Y-17752484D02*
X18540825Y-17781055D01*
X18540825Y-17781055D02*
X18521777Y-17800103D01*
X18521777Y-17800103D02*
X18502730Y-17809627D01*
X18683682Y-17752484D02*
X18817015Y-17752484D01*
X18817015Y-17752484D02*
X18731301Y-17952484D01*
X18988444Y-17752484D02*
X18893206Y-17752484D01*
X18893206Y-17752484D02*
X18883682Y-17847722D01*
X18883682Y-17847722D02*
X18893206Y-17838198D01*
X18893206Y-17838198D02*
X18912253Y-17828674D01*
X18912253Y-17828674D02*
X18959872Y-17828674D01*
X18959872Y-17828674D02*
X18978920Y-17838198D01*
X18978920Y-17838198D02*
X18988444Y-17847722D01*
X18988444Y-17847722D02*
X18997968Y-17866770D01*
X18997968Y-17866770D02*
X18997968Y-17914389D01*
X18997968Y-17914389D02*
X18988444Y-17933436D01*
X18988444Y-17933436D02*
X18978920Y-17942960D01*
X18978920Y-17942960D02*
X18959872Y-17952484D01*
X18959872Y-17952484D02*
X18912253Y-17952484D01*
X18912253Y-17952484D02*
X18893206Y-17942960D01*
X18893206Y-17942960D02*
X18883682Y-17933436D01*
X19236063Y-17952484D02*
X19236063Y-17752484D01*
X19321777Y-17952484D02*
X19321777Y-17847722D01*
X19321777Y-17847722D02*
X19312253Y-17828674D01*
X19312253Y-17828674D02*
X19293206Y-17819150D01*
X19293206Y-17819150D02*
X19264634Y-17819150D01*
X19264634Y-17819150D02*
X19245587Y-17828674D01*
X19245587Y-17828674D02*
X19236063Y-17838198D01*
X19445587Y-17952484D02*
X19426539Y-17942960D01*
X19426539Y-17942960D02*
X19417015Y-17933436D01*
X19417015Y-17933436D02*
X19407492Y-17914389D01*
X19407492Y-17914389D02*
X19407492Y-17857246D01*
X19407492Y-17857246D02*
X19417015Y-17838198D01*
X19417015Y-17838198D02*
X19426539Y-17828674D01*
X19426539Y-17828674D02*
X19445587Y-17819150D01*
X19445587Y-17819150D02*
X19474158Y-17819150D01*
X19474158Y-17819150D02*
X19493206Y-17828674D01*
X19493206Y-17828674D02*
X19502730Y-17838198D01*
X19502730Y-17838198D02*
X19512253Y-17857246D01*
X19512253Y-17857246D02*
X19512253Y-17914389D01*
X19512253Y-17914389D02*
X19502730Y-17933436D01*
X19502730Y-17933436D02*
X19493206Y-17942960D01*
X19493206Y-17942960D02*
X19474158Y-17952484D01*
X19474158Y-17952484D02*
X19445587Y-17952484D01*
X19626539Y-17952484D02*
X19607492Y-17942960D01*
X19607492Y-17942960D02*
X19597968Y-17923912D01*
X19597968Y-17923912D02*
X19597968Y-17752484D01*
X19778920Y-17942960D02*
X19759873Y-17952484D01*
X19759873Y-17952484D02*
X19721777Y-17952484D01*
X19721777Y-17952484D02*
X19702730Y-17942960D01*
X19702730Y-17942960D02*
X19693206Y-17923912D01*
X19693206Y-17923912D02*
X19693206Y-17847722D01*
X19693206Y-17847722D02*
X19702730Y-17828674D01*
X19702730Y-17828674D02*
X19721777Y-17819150D01*
X19721777Y-17819150D02*
X19759873Y-17819150D01*
X19759873Y-17819150D02*
X19778920Y-17828674D01*
X19778920Y-17828674D02*
X19788444Y-17847722D01*
X19788444Y-17847722D02*
X19788444Y-17866770D01*
X19788444Y-17866770D02*
X19693206Y-17885817D01*
X19864634Y-17942960D02*
X19883682Y-17952484D01*
X19883682Y-17952484D02*
X19921777Y-17952484D01*
X19921777Y-17952484D02*
X19940825Y-17942960D01*
X19940825Y-17942960D02*
X19950349Y-17923912D01*
X19950349Y-17923912D02*
X19950349Y-17914389D01*
X19950349Y-17914389D02*
X19940825Y-17895341D01*
X19940825Y-17895341D02*
X19921777Y-17885817D01*
X19921777Y-17885817D02*
X19893206Y-17885817D01*
X19893206Y-17885817D02*
X19874158Y-17876293D01*
X19874158Y-17876293D02*
X19864634Y-17857246D01*
X19864634Y-17857246D02*
X19864634Y-17847722D01*
X19864634Y-17847722D02*
X19874158Y-17828674D01*
X19874158Y-17828674D02*
X19893206Y-17819150D01*
X19893206Y-17819150D02*
X19921777Y-17819150D01*
X19921777Y-17819150D02*
X19940825Y-17828674D01*
X20017015Y-18028674D02*
X20026539Y-18019150D01*
X20026539Y-18019150D02*
X20045587Y-17990579D01*
X20045587Y-17990579D02*
X20055111Y-17971531D01*
X20055111Y-17971531D02*
X20064634Y-17942960D01*
X20064634Y-17942960D02*
X20074158Y-17895341D01*
X20074158Y-17895341D02*
X20074158Y-17857246D01*
X20074158Y-17857246D02*
X20064634Y-17809627D01*
X20064634Y-17809627D02*
X20055111Y-17781055D01*
X20055111Y-17781055D02*
X20045587Y-17762008D01*
X20045587Y-17762008D02*
X20026539Y-17733436D01*
X20026539Y-17733436D02*
X20017015Y-17723912D01*
D10*
X14861000Y-18125000D02*
G75*
G02*
X14784800Y-18125000I-38100J0D01*
G01*
X14784800Y-18125000D02*
G75*
G02*
X14861000Y-18125000I38100J0D01*
G01*
D11*
X15159872Y-18016484D02*
X15178920Y-18016484D01*
X15178920Y-18016484D02*
X15197967Y-18026008D01*
X15197967Y-18026008D02*
X15207491Y-18035531D01*
X15207491Y-18035531D02*
X15217015Y-18054579D01*
X15217015Y-18054579D02*
X15226539Y-18092674D01*
X15226539Y-18092674D02*
X15226539Y-18140293D01*
X15226539Y-18140293D02*
X15217015Y-18178389D01*
X15217015Y-18178389D02*
X15207491Y-18197436D01*
X15207491Y-18197436D02*
X15197967Y-18206960D01*
X15197967Y-18206960D02*
X15178920Y-18216484D01*
X15178920Y-18216484D02*
X15159872Y-18216484D01*
X15159872Y-18216484D02*
X15140824Y-18206960D01*
X15140824Y-18206960D02*
X15131301Y-18197436D01*
X15131301Y-18197436D02*
X15121777Y-18178389D01*
X15121777Y-18178389D02*
X15112253Y-18140293D01*
X15112253Y-18140293D02*
X15112253Y-18092674D01*
X15112253Y-18092674D02*
X15121777Y-18054579D01*
X15121777Y-18054579D02*
X15131301Y-18035531D01*
X15131301Y-18035531D02*
X15140824Y-18026008D01*
X15140824Y-18026008D02*
X15159872Y-18016484D01*
X15312253Y-18197436D02*
X15321777Y-18206960D01*
X15321777Y-18206960D02*
X15312253Y-18216484D01*
X15312253Y-18216484D02*
X15302729Y-18206960D01*
X15302729Y-18206960D02*
X15312253Y-18197436D01*
X15312253Y-18197436D02*
X15312253Y-18216484D01*
X15388443Y-18016484D02*
X15521777Y-18016484D01*
X15521777Y-18016484D02*
X15436062Y-18216484D01*
X15683682Y-18016484D02*
X15645586Y-18016484D01*
X15645586Y-18016484D02*
X15626539Y-18026008D01*
X15626539Y-18026008D02*
X15617015Y-18035531D01*
X15617015Y-18035531D02*
X15597967Y-18064103D01*
X15597967Y-18064103D02*
X15588443Y-18102198D01*
X15588443Y-18102198D02*
X15588443Y-18178389D01*
X15588443Y-18178389D02*
X15597967Y-18197436D01*
X15597967Y-18197436D02*
X15607491Y-18206960D01*
X15607491Y-18206960D02*
X15626539Y-18216484D01*
X15626539Y-18216484D02*
X15664634Y-18216484D01*
X15664634Y-18216484D02*
X15683682Y-18206960D01*
X15683682Y-18206960D02*
X15693205Y-18197436D01*
X15693205Y-18197436D02*
X15702729Y-18178389D01*
X15702729Y-18178389D02*
X15702729Y-18130770D01*
X15702729Y-18130770D02*
X15693205Y-18111722D01*
X15693205Y-18111722D02*
X15683682Y-18102198D01*
X15683682Y-18102198D02*
X15664634Y-18092674D01*
X15664634Y-18092674D02*
X15626539Y-18092674D01*
X15626539Y-18092674D02*
X15607491Y-18102198D01*
X15607491Y-18102198D02*
X15597967Y-18111722D01*
X15597967Y-18111722D02*
X15588443Y-18130770D01*
X15778920Y-18035531D02*
X15788443Y-18026008D01*
X15788443Y-18026008D02*
X15807491Y-18016484D01*
X15807491Y-18016484D02*
X15855110Y-18016484D01*
X15855110Y-18016484D02*
X15874158Y-18026008D01*
X15874158Y-18026008D02*
X15883682Y-18035531D01*
X15883682Y-18035531D02*
X15893205Y-18054579D01*
X15893205Y-18054579D02*
X15893205Y-18073627D01*
X15893205Y-18073627D02*
X15883682Y-18102198D01*
X15883682Y-18102198D02*
X15769396Y-18216484D01*
X15769396Y-18216484D02*
X15893205Y-18216484D01*
X15978920Y-18216484D02*
X15978920Y-18083150D01*
X15978920Y-18102198D02*
X15988443Y-18092674D01*
X15988443Y-18092674D02*
X16007491Y-18083150D01*
X16007491Y-18083150D02*
X16036063Y-18083150D01*
X16036063Y-18083150D02*
X16055110Y-18092674D01*
X16055110Y-18092674D02*
X16064634Y-18111722D01*
X16064634Y-18111722D02*
X16064634Y-18216484D01*
X16064634Y-18111722D02*
X16074158Y-18092674D01*
X16074158Y-18092674D02*
X16093205Y-18083150D01*
X16093205Y-18083150D02*
X16121777Y-18083150D01*
X16121777Y-18083150D02*
X16140824Y-18092674D01*
X16140824Y-18092674D02*
X16150348Y-18111722D01*
X16150348Y-18111722D02*
X16150348Y-18216484D01*
X16245586Y-18216484D02*
X16245586Y-18083150D01*
X16245586Y-18102198D02*
X16255110Y-18092674D01*
X16255110Y-18092674D02*
X16274158Y-18083150D01*
X16274158Y-18083150D02*
X16302729Y-18083150D01*
X16302729Y-18083150D02*
X16321777Y-18092674D01*
X16321777Y-18092674D02*
X16331301Y-18111722D01*
X16331301Y-18111722D02*
X16331301Y-18216484D01*
X16331301Y-18111722D02*
X16340824Y-18092674D01*
X16340824Y-18092674D02*
X16359872Y-18083150D01*
X16359872Y-18083150D02*
X16388443Y-18083150D01*
X16388443Y-18083150D02*
X16407491Y-18092674D01*
X16407491Y-18092674D02*
X16417015Y-18111722D01*
X16417015Y-18111722D02*
X16417015Y-18216484D01*
X16807491Y-18006960D02*
X16636063Y-18264103D01*
X17064634Y-18016484D02*
X17083682Y-18016484D01*
X17083682Y-18016484D02*
X17102729Y-18026008D01*
X17102729Y-18026008D02*
X17112253Y-18035531D01*
X17112253Y-18035531D02*
X17121777Y-18054579D01*
X17121777Y-18054579D02*
X17131301Y-18092674D01*
X17131301Y-18092674D02*
X17131301Y-18140293D01*
X17131301Y-18140293D02*
X17121777Y-18178389D01*
X17121777Y-18178389D02*
X17112253Y-18197436D01*
X17112253Y-18197436D02*
X17102729Y-18206960D01*
X17102729Y-18206960D02*
X17083682Y-18216484D01*
X17083682Y-18216484D02*
X17064634Y-18216484D01*
X17064634Y-18216484D02*
X17045587Y-18206960D01*
X17045587Y-18206960D02*
X17036063Y-18197436D01*
X17036063Y-18197436D02*
X17026539Y-18178389D01*
X17026539Y-18178389D02*
X17017015Y-18140293D01*
X17017015Y-18140293D02*
X17017015Y-18092674D01*
X17017015Y-18092674D02*
X17026539Y-18054579D01*
X17026539Y-18054579D02*
X17036063Y-18035531D01*
X17036063Y-18035531D02*
X17045587Y-18026008D01*
X17045587Y-18026008D02*
X17064634Y-18016484D01*
X17217015Y-18197436D02*
X17226539Y-18206960D01*
X17226539Y-18206960D02*
X17217015Y-18216484D01*
X17217015Y-18216484D02*
X17207491Y-18206960D01*
X17207491Y-18206960D02*
X17217015Y-18197436D01*
X17217015Y-18197436D02*
X17217015Y-18216484D01*
X17350348Y-18016484D02*
X17369396Y-18016484D01*
X17369396Y-18016484D02*
X17388444Y-18026008D01*
X17388444Y-18026008D02*
X17397968Y-18035531D01*
X17397968Y-18035531D02*
X17407491Y-18054579D01*
X17407491Y-18054579D02*
X17417015Y-18092674D01*
X17417015Y-18092674D02*
X17417015Y-18140293D01*
X17417015Y-18140293D02*
X17407491Y-18178389D01*
X17407491Y-18178389D02*
X17397968Y-18197436D01*
X17397968Y-18197436D02*
X17388444Y-18206960D01*
X17388444Y-18206960D02*
X17369396Y-18216484D01*
X17369396Y-18216484D02*
X17350348Y-18216484D01*
X17350348Y-18216484D02*
X17331301Y-18206960D01*
X17331301Y-18206960D02*
X17321777Y-18197436D01*
X17321777Y-18197436D02*
X17312253Y-18178389D01*
X17312253Y-18178389D02*
X17302729Y-18140293D01*
X17302729Y-18140293D02*
X17302729Y-18092674D01*
X17302729Y-18092674D02*
X17312253Y-18054579D01*
X17312253Y-18054579D02*
X17321777Y-18035531D01*
X17321777Y-18035531D02*
X17331301Y-18026008D01*
X17331301Y-18026008D02*
X17350348Y-18016484D01*
X17483682Y-18016484D02*
X17607491Y-18016484D01*
X17607491Y-18016484D02*
X17540825Y-18092674D01*
X17540825Y-18092674D02*
X17569396Y-18092674D01*
X17569396Y-18092674D02*
X17588444Y-18102198D01*
X17588444Y-18102198D02*
X17597968Y-18111722D01*
X17597968Y-18111722D02*
X17607491Y-18130770D01*
X17607491Y-18130770D02*
X17607491Y-18178389D01*
X17607491Y-18178389D02*
X17597968Y-18197436D01*
X17597968Y-18197436D02*
X17588444Y-18206960D01*
X17588444Y-18206960D02*
X17569396Y-18216484D01*
X17569396Y-18216484D02*
X17512253Y-18216484D01*
X17512253Y-18216484D02*
X17493206Y-18206960D01*
X17493206Y-18206960D02*
X17483682Y-18197436D01*
X17731301Y-18016484D02*
X17750349Y-18016484D01*
X17750349Y-18016484D02*
X17769396Y-18026008D01*
X17769396Y-18026008D02*
X17778920Y-18035531D01*
X17778920Y-18035531D02*
X17788444Y-18054579D01*
X17788444Y-18054579D02*
X17797968Y-18092674D01*
X17797968Y-18092674D02*
X17797968Y-18140293D01*
X17797968Y-18140293D02*
X17788444Y-18178389D01*
X17788444Y-18178389D02*
X17778920Y-18197436D01*
X17778920Y-18197436D02*
X17769396Y-18206960D01*
X17769396Y-18206960D02*
X17750349Y-18216484D01*
X17750349Y-18216484D02*
X17731301Y-18216484D01*
X17731301Y-18216484D02*
X17712253Y-18206960D01*
X17712253Y-18206960D02*
X17702729Y-18197436D01*
X17702729Y-18197436D02*
X17693206Y-18178389D01*
X17693206Y-18178389D02*
X17683682Y-18140293D01*
X17683682Y-18140293D02*
X17683682Y-18092674D01*
X17683682Y-18092674D02*
X17693206Y-18054579D01*
X17693206Y-18054579D02*
X17702729Y-18035531D01*
X17702729Y-18035531D02*
X17712253Y-18026008D01*
X17712253Y-18026008D02*
X17731301Y-18016484D01*
X17921777Y-18016484D02*
X17940825Y-18016484D01*
X17940825Y-18016484D02*
X17959872Y-18026008D01*
X17959872Y-18026008D02*
X17969396Y-18035531D01*
X17969396Y-18035531D02*
X17978920Y-18054579D01*
X17978920Y-18054579D02*
X17988444Y-18092674D01*
X17988444Y-18092674D02*
X17988444Y-18140293D01*
X17988444Y-18140293D02*
X17978920Y-18178389D01*
X17978920Y-18178389D02*
X17969396Y-18197436D01*
X17969396Y-18197436D02*
X17959872Y-18206960D01*
X17959872Y-18206960D02*
X17940825Y-18216484D01*
X17940825Y-18216484D02*
X17921777Y-18216484D01*
X17921777Y-18216484D02*
X17902729Y-18206960D01*
X17902729Y-18206960D02*
X17893206Y-18197436D01*
X17893206Y-18197436D02*
X17883682Y-18178389D01*
X17883682Y-18178389D02*
X17874158Y-18140293D01*
X17874158Y-18140293D02*
X17874158Y-18092674D01*
X17874158Y-18092674D02*
X17883682Y-18054579D01*
X17883682Y-18054579D02*
X17893206Y-18035531D01*
X17893206Y-18035531D02*
X17902729Y-18026008D01*
X17902729Y-18026008D02*
X17921777Y-18016484D01*
X18064634Y-18016484D02*
X18064634Y-18054579D01*
X18140825Y-18016484D02*
X18140825Y-18054579D01*
X18436063Y-18292674D02*
X18426539Y-18283150D01*
X18426539Y-18283150D02*
X18407491Y-18254579D01*
X18407491Y-18254579D02*
X18397968Y-18235531D01*
X18397968Y-18235531D02*
X18388444Y-18206960D01*
X18388444Y-18206960D02*
X18378920Y-18159341D01*
X18378920Y-18159341D02*
X18378920Y-18121246D01*
X18378920Y-18121246D02*
X18388444Y-18073627D01*
X18388444Y-18073627D02*
X18397968Y-18045055D01*
X18397968Y-18045055D02*
X18407491Y-18026008D01*
X18407491Y-18026008D02*
X18426539Y-17997436D01*
X18426539Y-17997436D02*
X18436063Y-17987912D01*
X18493206Y-18016484D02*
X18617015Y-18016484D01*
X18617015Y-18016484D02*
X18550349Y-18092674D01*
X18550349Y-18092674D02*
X18578920Y-18092674D01*
X18578920Y-18092674D02*
X18597968Y-18102198D01*
X18597968Y-18102198D02*
X18607491Y-18111722D01*
X18607491Y-18111722D02*
X18617015Y-18130770D01*
X18617015Y-18130770D02*
X18617015Y-18178389D01*
X18617015Y-18178389D02*
X18607491Y-18197436D01*
X18607491Y-18197436D02*
X18597968Y-18206960D01*
X18597968Y-18206960D02*
X18578920Y-18216484D01*
X18578920Y-18216484D02*
X18521777Y-18216484D01*
X18521777Y-18216484D02*
X18502730Y-18206960D01*
X18502730Y-18206960D02*
X18493206Y-18197436D01*
X18855111Y-18216484D02*
X18855111Y-18016484D01*
X18940825Y-18216484D02*
X18940825Y-18111722D01*
X18940825Y-18111722D02*
X18931301Y-18092674D01*
X18931301Y-18092674D02*
X18912253Y-18083150D01*
X18912253Y-18083150D02*
X18883682Y-18083150D01*
X18883682Y-18083150D02*
X18864634Y-18092674D01*
X18864634Y-18092674D02*
X18855111Y-18102198D01*
X19064634Y-18216484D02*
X19045587Y-18206960D01*
X19045587Y-18206960D02*
X19036063Y-18197436D01*
X19036063Y-18197436D02*
X19026539Y-18178389D01*
X19026539Y-18178389D02*
X19026539Y-18121246D01*
X19026539Y-18121246D02*
X19036063Y-18102198D01*
X19036063Y-18102198D02*
X19045587Y-18092674D01*
X19045587Y-18092674D02*
X19064634Y-18083150D01*
X19064634Y-18083150D02*
X19093206Y-18083150D01*
X19093206Y-18083150D02*
X19112253Y-18092674D01*
X19112253Y-18092674D02*
X19121777Y-18102198D01*
X19121777Y-18102198D02*
X19131301Y-18121246D01*
X19131301Y-18121246D02*
X19131301Y-18178389D01*
X19131301Y-18178389D02*
X19121777Y-18197436D01*
X19121777Y-18197436D02*
X19112253Y-18206960D01*
X19112253Y-18206960D02*
X19093206Y-18216484D01*
X19093206Y-18216484D02*
X19064634Y-18216484D01*
X19245587Y-18216484D02*
X19226539Y-18206960D01*
X19226539Y-18206960D02*
X19217015Y-18187912D01*
X19217015Y-18187912D02*
X19217015Y-18016484D01*
X19397968Y-18206960D02*
X19378920Y-18216484D01*
X19378920Y-18216484D02*
X19340825Y-18216484D01*
X19340825Y-18216484D02*
X19321777Y-18206960D01*
X19321777Y-18206960D02*
X19312253Y-18187912D01*
X19312253Y-18187912D02*
X19312253Y-18111722D01*
X19312253Y-18111722D02*
X19321777Y-18092674D01*
X19321777Y-18092674D02*
X19340825Y-18083150D01*
X19340825Y-18083150D02*
X19378920Y-18083150D01*
X19378920Y-18083150D02*
X19397968Y-18092674D01*
X19397968Y-18092674D02*
X19407492Y-18111722D01*
X19407492Y-18111722D02*
X19407492Y-18130770D01*
X19407492Y-18130770D02*
X19312253Y-18149817D01*
X19483682Y-18206960D02*
X19502730Y-18216484D01*
X19502730Y-18216484D02*
X19540825Y-18216484D01*
X19540825Y-18216484D02*
X19559873Y-18206960D01*
X19559873Y-18206960D02*
X19569396Y-18187912D01*
X19569396Y-18187912D02*
X19569396Y-18178389D01*
X19569396Y-18178389D02*
X19559873Y-18159341D01*
X19559873Y-18159341D02*
X19540825Y-18149817D01*
X19540825Y-18149817D02*
X19512253Y-18149817D01*
X19512253Y-18149817D02*
X19493206Y-18140293D01*
X19493206Y-18140293D02*
X19483682Y-18121246D01*
X19483682Y-18121246D02*
X19483682Y-18111722D01*
X19483682Y-18111722D02*
X19493206Y-18092674D01*
X19493206Y-18092674D02*
X19512253Y-18083150D01*
X19512253Y-18083150D02*
X19540825Y-18083150D01*
X19540825Y-18083150D02*
X19559873Y-18092674D01*
X19636063Y-18292674D02*
X19645587Y-18283150D01*
X19645587Y-18283150D02*
X19664634Y-18254579D01*
X19664634Y-18254579D02*
X19674158Y-18235531D01*
X19674158Y-18235531D02*
X19683682Y-18206960D01*
X19683682Y-18206960D02*
X19693206Y-18159341D01*
X19693206Y-18159341D02*
X19693206Y-18121246D01*
X19693206Y-18121246D02*
X19683682Y-18073627D01*
X19683682Y-18073627D02*
X19674158Y-18045055D01*
X19674158Y-18045055D02*
X19664634Y-18026008D01*
X19664634Y-18026008D02*
X19645587Y-17997436D01*
X19645587Y-17997436D02*
X19636063Y-17987912D01*
D10*
X14811000Y-18339000D02*
X14811000Y-18439000D01*
X14761000Y-18389000D02*
X14861000Y-18389000D01*
D11*
X15226539Y-18480484D02*
X15112253Y-18480484D01*
X15169396Y-18480484D02*
X15169396Y-18280484D01*
X15169396Y-18280484D02*
X15150348Y-18309055D01*
X15150348Y-18309055D02*
X15131301Y-18328103D01*
X15131301Y-18328103D02*
X15112253Y-18337627D01*
X15312253Y-18461436D02*
X15321777Y-18470960D01*
X15321777Y-18470960D02*
X15312253Y-18480484D01*
X15312253Y-18480484D02*
X15302729Y-18470960D01*
X15302729Y-18470960D02*
X15312253Y-18461436D01*
X15312253Y-18461436D02*
X15312253Y-18480484D01*
X15445586Y-18280484D02*
X15464634Y-18280484D01*
X15464634Y-18280484D02*
X15483682Y-18290008D01*
X15483682Y-18290008D02*
X15493205Y-18299531D01*
X15493205Y-18299531D02*
X15502729Y-18318579D01*
X15502729Y-18318579D02*
X15512253Y-18356674D01*
X15512253Y-18356674D02*
X15512253Y-18404293D01*
X15512253Y-18404293D02*
X15502729Y-18442389D01*
X15502729Y-18442389D02*
X15493205Y-18461436D01*
X15493205Y-18461436D02*
X15483682Y-18470960D01*
X15483682Y-18470960D02*
X15464634Y-18480484D01*
X15464634Y-18480484D02*
X15445586Y-18480484D01*
X15445586Y-18480484D02*
X15426539Y-18470960D01*
X15426539Y-18470960D02*
X15417015Y-18461436D01*
X15417015Y-18461436D02*
X15407491Y-18442389D01*
X15407491Y-18442389D02*
X15397967Y-18404293D01*
X15397967Y-18404293D02*
X15397967Y-18356674D01*
X15397967Y-18356674D02*
X15407491Y-18318579D01*
X15407491Y-18318579D02*
X15417015Y-18299531D01*
X15417015Y-18299531D02*
X15426539Y-18290008D01*
X15426539Y-18290008D02*
X15445586Y-18280484D01*
X15636062Y-18280484D02*
X15655110Y-18280484D01*
X15655110Y-18280484D02*
X15674158Y-18290008D01*
X15674158Y-18290008D02*
X15683682Y-18299531D01*
X15683682Y-18299531D02*
X15693205Y-18318579D01*
X15693205Y-18318579D02*
X15702729Y-18356674D01*
X15702729Y-18356674D02*
X15702729Y-18404293D01*
X15702729Y-18404293D02*
X15693205Y-18442389D01*
X15693205Y-18442389D02*
X15683682Y-18461436D01*
X15683682Y-18461436D02*
X15674158Y-18470960D01*
X15674158Y-18470960D02*
X15655110Y-18480484D01*
X15655110Y-18480484D02*
X15636062Y-18480484D01*
X15636062Y-18480484D02*
X15617015Y-18470960D01*
X15617015Y-18470960D02*
X15607491Y-18461436D01*
X15607491Y-18461436D02*
X15597967Y-18442389D01*
X15597967Y-18442389D02*
X15588443Y-18404293D01*
X15588443Y-18404293D02*
X15588443Y-18356674D01*
X15588443Y-18356674D02*
X15597967Y-18318579D01*
X15597967Y-18318579D02*
X15607491Y-18299531D01*
X15607491Y-18299531D02*
X15617015Y-18290008D01*
X15617015Y-18290008D02*
X15636062Y-18280484D01*
X15826539Y-18280484D02*
X15845586Y-18280484D01*
X15845586Y-18280484D02*
X15864634Y-18290008D01*
X15864634Y-18290008D02*
X15874158Y-18299531D01*
X15874158Y-18299531D02*
X15883682Y-18318579D01*
X15883682Y-18318579D02*
X15893205Y-18356674D01*
X15893205Y-18356674D02*
X15893205Y-18404293D01*
X15893205Y-18404293D02*
X15883682Y-18442389D01*
X15883682Y-18442389D02*
X15874158Y-18461436D01*
X15874158Y-18461436D02*
X15864634Y-18470960D01*
X15864634Y-18470960D02*
X15845586Y-18480484D01*
X15845586Y-18480484D02*
X15826539Y-18480484D01*
X15826539Y-18480484D02*
X15807491Y-18470960D01*
X15807491Y-18470960D02*
X15797967Y-18461436D01*
X15797967Y-18461436D02*
X15788443Y-18442389D01*
X15788443Y-18442389D02*
X15778920Y-18404293D01*
X15778920Y-18404293D02*
X15778920Y-18356674D01*
X15778920Y-18356674D02*
X15788443Y-18318579D01*
X15788443Y-18318579D02*
X15797967Y-18299531D01*
X15797967Y-18299531D02*
X15807491Y-18290008D01*
X15807491Y-18290008D02*
X15826539Y-18280484D01*
X15978920Y-18480484D02*
X15978920Y-18347150D01*
X15978920Y-18366198D02*
X15988443Y-18356674D01*
X15988443Y-18356674D02*
X16007491Y-18347150D01*
X16007491Y-18347150D02*
X16036063Y-18347150D01*
X16036063Y-18347150D02*
X16055110Y-18356674D01*
X16055110Y-18356674D02*
X16064634Y-18375722D01*
X16064634Y-18375722D02*
X16064634Y-18480484D01*
X16064634Y-18375722D02*
X16074158Y-18356674D01*
X16074158Y-18356674D02*
X16093205Y-18347150D01*
X16093205Y-18347150D02*
X16121777Y-18347150D01*
X16121777Y-18347150D02*
X16140824Y-18356674D01*
X16140824Y-18356674D02*
X16150348Y-18375722D01*
X16150348Y-18375722D02*
X16150348Y-18480484D01*
X16245586Y-18480484D02*
X16245586Y-18347150D01*
X16245586Y-18366198D02*
X16255110Y-18356674D01*
X16255110Y-18356674D02*
X16274158Y-18347150D01*
X16274158Y-18347150D02*
X16302729Y-18347150D01*
X16302729Y-18347150D02*
X16321777Y-18356674D01*
X16321777Y-18356674D02*
X16331301Y-18375722D01*
X16331301Y-18375722D02*
X16331301Y-18480484D01*
X16331301Y-18375722D02*
X16340824Y-18356674D01*
X16340824Y-18356674D02*
X16359872Y-18347150D01*
X16359872Y-18347150D02*
X16388443Y-18347150D01*
X16388443Y-18347150D02*
X16407491Y-18356674D01*
X16407491Y-18356674D02*
X16417015Y-18375722D01*
X16417015Y-18375722D02*
X16417015Y-18480484D01*
X16807491Y-18270960D02*
X16636063Y-18528103D01*
X17064634Y-18280484D02*
X17083682Y-18280484D01*
X17083682Y-18280484D02*
X17102729Y-18290008D01*
X17102729Y-18290008D02*
X17112253Y-18299531D01*
X17112253Y-18299531D02*
X17121777Y-18318579D01*
X17121777Y-18318579D02*
X17131301Y-18356674D01*
X17131301Y-18356674D02*
X17131301Y-18404293D01*
X17131301Y-18404293D02*
X17121777Y-18442389D01*
X17121777Y-18442389D02*
X17112253Y-18461436D01*
X17112253Y-18461436D02*
X17102729Y-18470960D01*
X17102729Y-18470960D02*
X17083682Y-18480484D01*
X17083682Y-18480484D02*
X17064634Y-18480484D01*
X17064634Y-18480484D02*
X17045587Y-18470960D01*
X17045587Y-18470960D02*
X17036063Y-18461436D01*
X17036063Y-18461436D02*
X17026539Y-18442389D01*
X17026539Y-18442389D02*
X17017015Y-18404293D01*
X17017015Y-18404293D02*
X17017015Y-18356674D01*
X17017015Y-18356674D02*
X17026539Y-18318579D01*
X17026539Y-18318579D02*
X17036063Y-18299531D01*
X17036063Y-18299531D02*
X17045587Y-18290008D01*
X17045587Y-18290008D02*
X17064634Y-18280484D01*
X17217015Y-18461436D02*
X17226539Y-18470960D01*
X17226539Y-18470960D02*
X17217015Y-18480484D01*
X17217015Y-18480484D02*
X17207491Y-18470960D01*
X17207491Y-18470960D02*
X17217015Y-18461436D01*
X17217015Y-18461436D02*
X17217015Y-18480484D01*
X17350348Y-18280484D02*
X17369396Y-18280484D01*
X17369396Y-18280484D02*
X17388444Y-18290008D01*
X17388444Y-18290008D02*
X17397968Y-18299531D01*
X17397968Y-18299531D02*
X17407491Y-18318579D01*
X17407491Y-18318579D02*
X17417015Y-18356674D01*
X17417015Y-18356674D02*
X17417015Y-18404293D01*
X17417015Y-18404293D02*
X17407491Y-18442389D01*
X17407491Y-18442389D02*
X17397968Y-18461436D01*
X17397968Y-18461436D02*
X17388444Y-18470960D01*
X17388444Y-18470960D02*
X17369396Y-18480484D01*
X17369396Y-18480484D02*
X17350348Y-18480484D01*
X17350348Y-18480484D02*
X17331301Y-18470960D01*
X17331301Y-18470960D02*
X17321777Y-18461436D01*
X17321777Y-18461436D02*
X17312253Y-18442389D01*
X17312253Y-18442389D02*
X17302729Y-18404293D01*
X17302729Y-18404293D02*
X17302729Y-18356674D01*
X17302729Y-18356674D02*
X17312253Y-18318579D01*
X17312253Y-18318579D02*
X17321777Y-18299531D01*
X17321777Y-18299531D02*
X17331301Y-18290008D01*
X17331301Y-18290008D02*
X17350348Y-18280484D01*
X17483682Y-18280484D02*
X17607491Y-18280484D01*
X17607491Y-18280484D02*
X17540825Y-18356674D01*
X17540825Y-18356674D02*
X17569396Y-18356674D01*
X17569396Y-18356674D02*
X17588444Y-18366198D01*
X17588444Y-18366198D02*
X17597968Y-18375722D01*
X17597968Y-18375722D02*
X17607491Y-18394770D01*
X17607491Y-18394770D02*
X17607491Y-18442389D01*
X17607491Y-18442389D02*
X17597968Y-18461436D01*
X17597968Y-18461436D02*
X17588444Y-18470960D01*
X17588444Y-18470960D02*
X17569396Y-18480484D01*
X17569396Y-18480484D02*
X17512253Y-18480484D01*
X17512253Y-18480484D02*
X17493206Y-18470960D01*
X17493206Y-18470960D02*
X17483682Y-18461436D01*
X17702729Y-18480484D02*
X17740825Y-18480484D01*
X17740825Y-18480484D02*
X17759872Y-18470960D01*
X17759872Y-18470960D02*
X17769396Y-18461436D01*
X17769396Y-18461436D02*
X17788444Y-18432865D01*
X17788444Y-18432865D02*
X17797968Y-18394770D01*
X17797968Y-18394770D02*
X17797968Y-18318579D01*
X17797968Y-18318579D02*
X17788444Y-18299531D01*
X17788444Y-18299531D02*
X17778920Y-18290008D01*
X17778920Y-18290008D02*
X17759872Y-18280484D01*
X17759872Y-18280484D02*
X17721777Y-18280484D01*
X17721777Y-18280484D02*
X17702729Y-18290008D01*
X17702729Y-18290008D02*
X17693206Y-18299531D01*
X17693206Y-18299531D02*
X17683682Y-18318579D01*
X17683682Y-18318579D02*
X17683682Y-18366198D01*
X17683682Y-18366198D02*
X17693206Y-18385246D01*
X17693206Y-18385246D02*
X17702729Y-18394770D01*
X17702729Y-18394770D02*
X17721777Y-18404293D01*
X17721777Y-18404293D02*
X17759872Y-18404293D01*
X17759872Y-18404293D02*
X17778920Y-18394770D01*
X17778920Y-18394770D02*
X17788444Y-18385246D01*
X17788444Y-18385246D02*
X17797968Y-18366198D01*
X17969396Y-18347150D02*
X17969396Y-18480484D01*
X17921777Y-18270960D02*
X17874158Y-18413817D01*
X17874158Y-18413817D02*
X17997968Y-18413817D01*
X18064634Y-18280484D02*
X18064634Y-18318579D01*
X18140825Y-18280484D02*
X18140825Y-18318579D01*
X18436063Y-18556674D02*
X18426539Y-18547150D01*
X18426539Y-18547150D02*
X18407491Y-18518579D01*
X18407491Y-18518579D02*
X18397968Y-18499531D01*
X18397968Y-18499531D02*
X18388444Y-18470960D01*
X18388444Y-18470960D02*
X18378920Y-18423341D01*
X18378920Y-18423341D02*
X18378920Y-18385246D01*
X18378920Y-18385246D02*
X18388444Y-18337627D01*
X18388444Y-18337627D02*
X18397968Y-18309055D01*
X18397968Y-18309055D02*
X18407491Y-18290008D01*
X18407491Y-18290008D02*
X18426539Y-18261436D01*
X18426539Y-18261436D02*
X18436063Y-18251912D01*
X18502730Y-18299531D02*
X18512253Y-18290008D01*
X18512253Y-18290008D02*
X18531301Y-18280484D01*
X18531301Y-18280484D02*
X18578920Y-18280484D01*
X18578920Y-18280484D02*
X18597968Y-18290008D01*
X18597968Y-18290008D02*
X18607491Y-18299531D01*
X18607491Y-18299531D02*
X18617015Y-18318579D01*
X18617015Y-18318579D02*
X18617015Y-18337627D01*
X18617015Y-18337627D02*
X18607491Y-18366198D01*
X18607491Y-18366198D02*
X18493206Y-18480484D01*
X18493206Y-18480484D02*
X18617015Y-18480484D01*
X18731301Y-18366198D02*
X18712253Y-18356674D01*
X18712253Y-18356674D02*
X18702730Y-18347150D01*
X18702730Y-18347150D02*
X18693206Y-18328103D01*
X18693206Y-18328103D02*
X18693206Y-18318579D01*
X18693206Y-18318579D02*
X18702730Y-18299531D01*
X18702730Y-18299531D02*
X18712253Y-18290008D01*
X18712253Y-18290008D02*
X18731301Y-18280484D01*
X18731301Y-18280484D02*
X18769396Y-18280484D01*
X18769396Y-18280484D02*
X18788444Y-18290008D01*
X18788444Y-18290008D02*
X18797968Y-18299531D01*
X18797968Y-18299531D02*
X18807491Y-18318579D01*
X18807491Y-18318579D02*
X18807491Y-18328103D01*
X18807491Y-18328103D02*
X18797968Y-18347150D01*
X18797968Y-18347150D02*
X18788444Y-18356674D01*
X18788444Y-18356674D02*
X18769396Y-18366198D01*
X18769396Y-18366198D02*
X18731301Y-18366198D01*
X18731301Y-18366198D02*
X18712253Y-18375722D01*
X18712253Y-18375722D02*
X18702730Y-18385246D01*
X18702730Y-18385246D02*
X18693206Y-18404293D01*
X18693206Y-18404293D02*
X18693206Y-18442389D01*
X18693206Y-18442389D02*
X18702730Y-18461436D01*
X18702730Y-18461436D02*
X18712253Y-18470960D01*
X18712253Y-18470960D02*
X18731301Y-18480484D01*
X18731301Y-18480484D02*
X18769396Y-18480484D01*
X18769396Y-18480484D02*
X18788444Y-18470960D01*
X18788444Y-18470960D02*
X18797968Y-18461436D01*
X18797968Y-18461436D02*
X18807491Y-18442389D01*
X18807491Y-18442389D02*
X18807491Y-18404293D01*
X18807491Y-18404293D02*
X18797968Y-18385246D01*
X18797968Y-18385246D02*
X18788444Y-18375722D01*
X18788444Y-18375722D02*
X18769396Y-18366198D01*
X19045587Y-18480484D02*
X19045587Y-18280484D01*
X19131301Y-18480484D02*
X19131301Y-18375722D01*
X19131301Y-18375722D02*
X19121777Y-18356674D01*
X19121777Y-18356674D02*
X19102730Y-18347150D01*
X19102730Y-18347150D02*
X19074158Y-18347150D01*
X19074158Y-18347150D02*
X19055111Y-18356674D01*
X19055111Y-18356674D02*
X19045587Y-18366198D01*
X19255111Y-18480484D02*
X19236063Y-18470960D01*
X19236063Y-18470960D02*
X19226539Y-18461436D01*
X19226539Y-18461436D02*
X19217015Y-18442389D01*
X19217015Y-18442389D02*
X19217015Y-18385246D01*
X19217015Y-18385246D02*
X19226539Y-18366198D01*
X19226539Y-18366198D02*
X19236063Y-18356674D01*
X19236063Y-18356674D02*
X19255111Y-18347150D01*
X19255111Y-18347150D02*
X19283682Y-18347150D01*
X19283682Y-18347150D02*
X19302730Y-18356674D01*
X19302730Y-18356674D02*
X19312253Y-18366198D01*
X19312253Y-18366198D02*
X19321777Y-18385246D01*
X19321777Y-18385246D02*
X19321777Y-18442389D01*
X19321777Y-18442389D02*
X19312253Y-18461436D01*
X19312253Y-18461436D02*
X19302730Y-18470960D01*
X19302730Y-18470960D02*
X19283682Y-18480484D01*
X19283682Y-18480484D02*
X19255111Y-18480484D01*
X19436063Y-18480484D02*
X19417015Y-18470960D01*
X19417015Y-18470960D02*
X19407492Y-18451912D01*
X19407492Y-18451912D02*
X19407492Y-18280484D01*
X19588444Y-18470960D02*
X19569396Y-18480484D01*
X19569396Y-18480484D02*
X19531301Y-18480484D01*
X19531301Y-18480484D02*
X19512253Y-18470960D01*
X19512253Y-18470960D02*
X19502730Y-18451912D01*
X19502730Y-18451912D02*
X19502730Y-18375722D01*
X19502730Y-18375722D02*
X19512253Y-18356674D01*
X19512253Y-18356674D02*
X19531301Y-18347150D01*
X19531301Y-18347150D02*
X19569396Y-18347150D01*
X19569396Y-18347150D02*
X19588444Y-18356674D01*
X19588444Y-18356674D02*
X19597968Y-18375722D01*
X19597968Y-18375722D02*
X19597968Y-18394770D01*
X19597968Y-18394770D02*
X19502730Y-18413817D01*
X19674158Y-18470960D02*
X19693206Y-18480484D01*
X19693206Y-18480484D02*
X19731301Y-18480484D01*
X19731301Y-18480484D02*
X19750349Y-18470960D01*
X19750349Y-18470960D02*
X19759873Y-18451912D01*
X19759873Y-18451912D02*
X19759873Y-18442389D01*
X19759873Y-18442389D02*
X19750349Y-18423341D01*
X19750349Y-18423341D02*
X19731301Y-18413817D01*
X19731301Y-18413817D02*
X19702730Y-18413817D01*
X19702730Y-18413817D02*
X19683682Y-18404293D01*
X19683682Y-18404293D02*
X19674158Y-18385246D01*
X19674158Y-18385246D02*
X19674158Y-18375722D01*
X19674158Y-18375722D02*
X19683682Y-18356674D01*
X19683682Y-18356674D02*
X19702730Y-18347150D01*
X19702730Y-18347150D02*
X19731301Y-18347150D01*
X19731301Y-18347150D02*
X19750349Y-18356674D01*
X19826539Y-18556674D02*
X19836063Y-18547150D01*
X19836063Y-18547150D02*
X19855111Y-18518579D01*
X19855111Y-18518579D02*
X19864634Y-18499531D01*
X19864634Y-18499531D02*
X19874158Y-18470960D01*
X19874158Y-18470960D02*
X19883682Y-18423341D01*
X19883682Y-18423341D02*
X19883682Y-18385246D01*
X19883682Y-18385246D02*
X19874158Y-18337627D01*
X19874158Y-18337627D02*
X19864634Y-18309055D01*
X19864634Y-18309055D02*
X19855111Y-18290008D01*
X19855111Y-18290008D02*
X19836063Y-18261436D01*
X19836063Y-18261436D02*
X19826539Y-18251912D01*
D12*
X14846063Y-18689063D02*
X14846063Y-18616937D01*
X14773937Y-18616937D01*
X14773937Y-18689063D01*
X14846063Y-18689063D01*
D11*
X15226539Y-18744484D02*
X15112253Y-18744484D01*
X15169396Y-18744484D02*
X15169396Y-18544484D01*
X15169396Y-18544484D02*
X15150348Y-18573055D01*
X15150348Y-18573055D02*
X15131301Y-18592103D01*
X15131301Y-18592103D02*
X15112253Y-18601627D01*
X15312253Y-18725436D02*
X15321777Y-18734960D01*
X15321777Y-18734960D02*
X15312253Y-18744484D01*
X15312253Y-18744484D02*
X15302729Y-18734960D01*
X15302729Y-18734960D02*
X15312253Y-18725436D01*
X15312253Y-18725436D02*
X15312253Y-18744484D01*
X15445586Y-18544484D02*
X15464634Y-18544484D01*
X15464634Y-18544484D02*
X15483682Y-18554008D01*
X15483682Y-18554008D02*
X15493205Y-18563531D01*
X15493205Y-18563531D02*
X15502729Y-18582579D01*
X15502729Y-18582579D02*
X15512253Y-18620674D01*
X15512253Y-18620674D02*
X15512253Y-18668293D01*
X15512253Y-18668293D02*
X15502729Y-18706389D01*
X15502729Y-18706389D02*
X15493205Y-18725436D01*
X15493205Y-18725436D02*
X15483682Y-18734960D01*
X15483682Y-18734960D02*
X15464634Y-18744484D01*
X15464634Y-18744484D02*
X15445586Y-18744484D01*
X15445586Y-18744484D02*
X15426539Y-18734960D01*
X15426539Y-18734960D02*
X15417015Y-18725436D01*
X15417015Y-18725436D02*
X15407491Y-18706389D01*
X15407491Y-18706389D02*
X15397967Y-18668293D01*
X15397967Y-18668293D02*
X15397967Y-18620674D01*
X15397967Y-18620674D02*
X15407491Y-18582579D01*
X15407491Y-18582579D02*
X15417015Y-18563531D01*
X15417015Y-18563531D02*
X15426539Y-18554008D01*
X15426539Y-18554008D02*
X15445586Y-18544484D01*
X15588443Y-18563531D02*
X15597967Y-18554008D01*
X15597967Y-18554008D02*
X15617015Y-18544484D01*
X15617015Y-18544484D02*
X15664634Y-18544484D01*
X15664634Y-18544484D02*
X15683682Y-18554008D01*
X15683682Y-18554008D02*
X15693205Y-18563531D01*
X15693205Y-18563531D02*
X15702729Y-18582579D01*
X15702729Y-18582579D02*
X15702729Y-18601627D01*
X15702729Y-18601627D02*
X15693205Y-18630198D01*
X15693205Y-18630198D02*
X15578920Y-18744484D01*
X15578920Y-18744484D02*
X15702729Y-18744484D01*
X15826539Y-18544484D02*
X15845586Y-18544484D01*
X15845586Y-18544484D02*
X15864634Y-18554008D01*
X15864634Y-18554008D02*
X15874158Y-18563531D01*
X15874158Y-18563531D02*
X15883682Y-18582579D01*
X15883682Y-18582579D02*
X15893205Y-18620674D01*
X15893205Y-18620674D02*
X15893205Y-18668293D01*
X15893205Y-18668293D02*
X15883682Y-18706389D01*
X15883682Y-18706389D02*
X15874158Y-18725436D01*
X15874158Y-18725436D02*
X15864634Y-18734960D01*
X15864634Y-18734960D02*
X15845586Y-18744484D01*
X15845586Y-18744484D02*
X15826539Y-18744484D01*
X15826539Y-18744484D02*
X15807491Y-18734960D01*
X15807491Y-18734960D02*
X15797967Y-18725436D01*
X15797967Y-18725436D02*
X15788443Y-18706389D01*
X15788443Y-18706389D02*
X15778920Y-18668293D01*
X15778920Y-18668293D02*
X15778920Y-18620674D01*
X15778920Y-18620674D02*
X15788443Y-18582579D01*
X15788443Y-18582579D02*
X15797967Y-18563531D01*
X15797967Y-18563531D02*
X15807491Y-18554008D01*
X15807491Y-18554008D02*
X15826539Y-18544484D01*
X15978920Y-18744484D02*
X15978920Y-18611150D01*
X15978920Y-18630198D02*
X15988443Y-18620674D01*
X15988443Y-18620674D02*
X16007491Y-18611150D01*
X16007491Y-18611150D02*
X16036063Y-18611150D01*
X16036063Y-18611150D02*
X16055110Y-18620674D01*
X16055110Y-18620674D02*
X16064634Y-18639722D01*
X16064634Y-18639722D02*
X16064634Y-18744484D01*
X16064634Y-18639722D02*
X16074158Y-18620674D01*
X16074158Y-18620674D02*
X16093205Y-18611150D01*
X16093205Y-18611150D02*
X16121777Y-18611150D01*
X16121777Y-18611150D02*
X16140824Y-18620674D01*
X16140824Y-18620674D02*
X16150348Y-18639722D01*
X16150348Y-18639722D02*
X16150348Y-18744484D01*
X16245586Y-18744484D02*
X16245586Y-18611150D01*
X16245586Y-18630198D02*
X16255110Y-18620674D01*
X16255110Y-18620674D02*
X16274158Y-18611150D01*
X16274158Y-18611150D02*
X16302729Y-18611150D01*
X16302729Y-18611150D02*
X16321777Y-18620674D01*
X16321777Y-18620674D02*
X16331301Y-18639722D01*
X16331301Y-18639722D02*
X16331301Y-18744484D01*
X16331301Y-18639722D02*
X16340824Y-18620674D01*
X16340824Y-18620674D02*
X16359872Y-18611150D01*
X16359872Y-18611150D02*
X16388443Y-18611150D01*
X16388443Y-18611150D02*
X16407491Y-18620674D01*
X16407491Y-18620674D02*
X16417015Y-18639722D01*
X16417015Y-18639722D02*
X16417015Y-18744484D01*
X16807491Y-18534960D02*
X16636063Y-18792103D01*
X17064634Y-18544484D02*
X17083682Y-18544484D01*
X17083682Y-18544484D02*
X17102729Y-18554008D01*
X17102729Y-18554008D02*
X17112253Y-18563531D01*
X17112253Y-18563531D02*
X17121777Y-18582579D01*
X17121777Y-18582579D02*
X17131301Y-18620674D01*
X17131301Y-18620674D02*
X17131301Y-18668293D01*
X17131301Y-18668293D02*
X17121777Y-18706389D01*
X17121777Y-18706389D02*
X17112253Y-18725436D01*
X17112253Y-18725436D02*
X17102729Y-18734960D01*
X17102729Y-18734960D02*
X17083682Y-18744484D01*
X17083682Y-18744484D02*
X17064634Y-18744484D01*
X17064634Y-18744484D02*
X17045587Y-18734960D01*
X17045587Y-18734960D02*
X17036063Y-18725436D01*
X17036063Y-18725436D02*
X17026539Y-18706389D01*
X17026539Y-18706389D02*
X17017015Y-18668293D01*
X17017015Y-18668293D02*
X17017015Y-18620674D01*
X17017015Y-18620674D02*
X17026539Y-18582579D01*
X17026539Y-18582579D02*
X17036063Y-18563531D01*
X17036063Y-18563531D02*
X17045587Y-18554008D01*
X17045587Y-18554008D02*
X17064634Y-18544484D01*
X17217015Y-18725436D02*
X17226539Y-18734960D01*
X17226539Y-18734960D02*
X17217015Y-18744484D01*
X17217015Y-18744484D02*
X17207491Y-18734960D01*
X17207491Y-18734960D02*
X17217015Y-18725436D01*
X17217015Y-18725436D02*
X17217015Y-18744484D01*
X17350348Y-18544484D02*
X17369396Y-18544484D01*
X17369396Y-18544484D02*
X17388444Y-18554008D01*
X17388444Y-18554008D02*
X17397968Y-18563531D01*
X17397968Y-18563531D02*
X17407491Y-18582579D01*
X17407491Y-18582579D02*
X17417015Y-18620674D01*
X17417015Y-18620674D02*
X17417015Y-18668293D01*
X17417015Y-18668293D02*
X17407491Y-18706389D01*
X17407491Y-18706389D02*
X17397968Y-18725436D01*
X17397968Y-18725436D02*
X17388444Y-18734960D01*
X17388444Y-18734960D02*
X17369396Y-18744484D01*
X17369396Y-18744484D02*
X17350348Y-18744484D01*
X17350348Y-18744484D02*
X17331301Y-18734960D01*
X17331301Y-18734960D02*
X17321777Y-18725436D01*
X17321777Y-18725436D02*
X17312253Y-18706389D01*
X17312253Y-18706389D02*
X17302729Y-18668293D01*
X17302729Y-18668293D02*
X17302729Y-18620674D01*
X17302729Y-18620674D02*
X17312253Y-18582579D01*
X17312253Y-18582579D02*
X17321777Y-18563531D01*
X17321777Y-18563531D02*
X17331301Y-18554008D01*
X17331301Y-18554008D02*
X17350348Y-18544484D01*
X17588444Y-18611150D02*
X17588444Y-18744484D01*
X17540825Y-18534960D02*
X17493206Y-18677817D01*
X17493206Y-18677817D02*
X17617015Y-18677817D01*
X17731301Y-18544484D02*
X17750349Y-18544484D01*
X17750349Y-18544484D02*
X17769396Y-18554008D01*
X17769396Y-18554008D02*
X17778920Y-18563531D01*
X17778920Y-18563531D02*
X17788444Y-18582579D01*
X17788444Y-18582579D02*
X17797968Y-18620674D01*
X17797968Y-18620674D02*
X17797968Y-18668293D01*
X17797968Y-18668293D02*
X17788444Y-18706389D01*
X17788444Y-18706389D02*
X17778920Y-18725436D01*
X17778920Y-18725436D02*
X17769396Y-18734960D01*
X17769396Y-18734960D02*
X17750349Y-18744484D01*
X17750349Y-18744484D02*
X17731301Y-18744484D01*
X17731301Y-18744484D02*
X17712253Y-18734960D01*
X17712253Y-18734960D02*
X17702729Y-18725436D01*
X17702729Y-18725436D02*
X17693206Y-18706389D01*
X17693206Y-18706389D02*
X17683682Y-18668293D01*
X17683682Y-18668293D02*
X17683682Y-18620674D01*
X17683682Y-18620674D02*
X17693206Y-18582579D01*
X17693206Y-18582579D02*
X17702729Y-18563531D01*
X17702729Y-18563531D02*
X17712253Y-18554008D01*
X17712253Y-18554008D02*
X17731301Y-18544484D01*
X17874158Y-18563531D02*
X17883682Y-18554008D01*
X17883682Y-18554008D02*
X17902729Y-18544484D01*
X17902729Y-18544484D02*
X17950349Y-18544484D01*
X17950349Y-18544484D02*
X17969396Y-18554008D01*
X17969396Y-18554008D02*
X17978920Y-18563531D01*
X17978920Y-18563531D02*
X17988444Y-18582579D01*
X17988444Y-18582579D02*
X17988444Y-18601627D01*
X17988444Y-18601627D02*
X17978920Y-18630198D01*
X17978920Y-18630198D02*
X17864634Y-18744484D01*
X17864634Y-18744484D02*
X17988444Y-18744484D01*
X18064634Y-18544484D02*
X18064634Y-18582579D01*
X18140825Y-18544484D02*
X18140825Y-18582579D01*
X18436063Y-18820674D02*
X18426539Y-18811150D01*
X18426539Y-18811150D02*
X18407491Y-18782579D01*
X18407491Y-18782579D02*
X18397968Y-18763531D01*
X18397968Y-18763531D02*
X18388444Y-18734960D01*
X18388444Y-18734960D02*
X18378920Y-18687341D01*
X18378920Y-18687341D02*
X18378920Y-18649246D01*
X18378920Y-18649246D02*
X18388444Y-18601627D01*
X18388444Y-18601627D02*
X18397968Y-18573055D01*
X18397968Y-18573055D02*
X18407491Y-18554008D01*
X18407491Y-18554008D02*
X18426539Y-18525436D01*
X18426539Y-18525436D02*
X18436063Y-18515912D01*
X18597968Y-18611150D02*
X18597968Y-18744484D01*
X18550349Y-18534960D02*
X18502730Y-18677817D01*
X18502730Y-18677817D02*
X18626539Y-18677817D01*
X18683682Y-18544484D02*
X18807491Y-18544484D01*
X18807491Y-18544484D02*
X18740825Y-18620674D01*
X18740825Y-18620674D02*
X18769396Y-18620674D01*
X18769396Y-18620674D02*
X18788444Y-18630198D01*
X18788444Y-18630198D02*
X18797968Y-18639722D01*
X18797968Y-18639722D02*
X18807491Y-18658770D01*
X18807491Y-18658770D02*
X18807491Y-18706389D01*
X18807491Y-18706389D02*
X18797968Y-18725436D01*
X18797968Y-18725436D02*
X18788444Y-18734960D01*
X18788444Y-18734960D02*
X18769396Y-18744484D01*
X18769396Y-18744484D02*
X18712253Y-18744484D01*
X18712253Y-18744484D02*
X18693206Y-18734960D01*
X18693206Y-18734960D02*
X18683682Y-18725436D01*
X19045587Y-18744484D02*
X19045587Y-18544484D01*
X19131301Y-18744484D02*
X19131301Y-18639722D01*
X19131301Y-18639722D02*
X19121777Y-18620674D01*
X19121777Y-18620674D02*
X19102730Y-18611150D01*
X19102730Y-18611150D02*
X19074158Y-18611150D01*
X19074158Y-18611150D02*
X19055111Y-18620674D01*
X19055111Y-18620674D02*
X19045587Y-18630198D01*
X19255111Y-18744484D02*
X19236063Y-18734960D01*
X19236063Y-18734960D02*
X19226539Y-18725436D01*
X19226539Y-18725436D02*
X19217015Y-18706389D01*
X19217015Y-18706389D02*
X19217015Y-18649246D01*
X19217015Y-18649246D02*
X19226539Y-18630198D01*
X19226539Y-18630198D02*
X19236063Y-18620674D01*
X19236063Y-18620674D02*
X19255111Y-18611150D01*
X19255111Y-18611150D02*
X19283682Y-18611150D01*
X19283682Y-18611150D02*
X19302730Y-18620674D01*
X19302730Y-18620674D02*
X19312253Y-18630198D01*
X19312253Y-18630198D02*
X19321777Y-18649246D01*
X19321777Y-18649246D02*
X19321777Y-18706389D01*
X19321777Y-18706389D02*
X19312253Y-18725436D01*
X19312253Y-18725436D02*
X19302730Y-18734960D01*
X19302730Y-18734960D02*
X19283682Y-18744484D01*
X19283682Y-18744484D02*
X19255111Y-18744484D01*
X19436063Y-18744484D02*
X19417015Y-18734960D01*
X19417015Y-18734960D02*
X19407492Y-18715912D01*
X19407492Y-18715912D02*
X19407492Y-18544484D01*
X19588444Y-18734960D02*
X19569396Y-18744484D01*
X19569396Y-18744484D02*
X19531301Y-18744484D01*
X19531301Y-18744484D02*
X19512253Y-18734960D01*
X19512253Y-18734960D02*
X19502730Y-18715912D01*
X19502730Y-18715912D02*
X19502730Y-18639722D01*
X19502730Y-18639722D02*
X19512253Y-18620674D01*
X19512253Y-18620674D02*
X19531301Y-18611150D01*
X19531301Y-18611150D02*
X19569396Y-18611150D01*
X19569396Y-18611150D02*
X19588444Y-18620674D01*
X19588444Y-18620674D02*
X19597968Y-18639722D01*
X19597968Y-18639722D02*
X19597968Y-18658770D01*
X19597968Y-18658770D02*
X19502730Y-18677817D01*
X19674158Y-18734960D02*
X19693206Y-18744484D01*
X19693206Y-18744484D02*
X19731301Y-18744484D01*
X19731301Y-18744484D02*
X19750349Y-18734960D01*
X19750349Y-18734960D02*
X19759873Y-18715912D01*
X19759873Y-18715912D02*
X19759873Y-18706389D01*
X19759873Y-18706389D02*
X19750349Y-18687341D01*
X19750349Y-18687341D02*
X19731301Y-18677817D01*
X19731301Y-18677817D02*
X19702730Y-18677817D01*
X19702730Y-18677817D02*
X19683682Y-18668293D01*
X19683682Y-18668293D02*
X19674158Y-18649246D01*
X19674158Y-18649246D02*
X19674158Y-18639722D01*
X19674158Y-18639722D02*
X19683682Y-18620674D01*
X19683682Y-18620674D02*
X19702730Y-18611150D01*
X19702730Y-18611150D02*
X19731301Y-18611150D01*
X19731301Y-18611150D02*
X19750349Y-18620674D01*
X19826539Y-18820674D02*
X19836063Y-18811150D01*
X19836063Y-18811150D02*
X19855111Y-18782579D01*
X19855111Y-18782579D02*
X19864634Y-18763531D01*
X19864634Y-18763531D02*
X19874158Y-18734960D01*
X19874158Y-18734960D02*
X19883682Y-18687341D01*
X19883682Y-18687341D02*
X19883682Y-18649246D01*
X19883682Y-18649246D02*
X19874158Y-18601627D01*
X19874158Y-18601627D02*
X19864634Y-18573055D01*
X19864634Y-18573055D02*
X19855111Y-18554008D01*
X19855111Y-18554008D02*
X19836063Y-18525436D01*
X19836063Y-18525436D02*
X19826539Y-18515912D01*
D13*
X14806000Y-18972000D02*
X14861000Y-18917000D01*
X14806000Y-18862000D01*
X14751000Y-18917000D01*
X14806000Y-18972000D01*
D11*
X15226539Y-19008484D02*
X15112253Y-19008484D01*
X15169396Y-19008484D02*
X15169396Y-18808484D01*
X15169396Y-18808484D02*
X15150348Y-18837055D01*
X15150348Y-18837055D02*
X15131301Y-18856103D01*
X15131301Y-18856103D02*
X15112253Y-18865627D01*
X15312253Y-18989436D02*
X15321777Y-18998960D01*
X15321777Y-18998960D02*
X15312253Y-19008484D01*
X15312253Y-19008484D02*
X15302729Y-18998960D01*
X15302729Y-18998960D02*
X15312253Y-18989436D01*
X15312253Y-18989436D02*
X15312253Y-19008484D01*
X15512253Y-19008484D02*
X15397967Y-19008484D01*
X15455110Y-19008484D02*
X15455110Y-18808484D01*
X15455110Y-18808484D02*
X15436062Y-18837055D01*
X15436062Y-18837055D02*
X15417015Y-18856103D01*
X15417015Y-18856103D02*
X15397967Y-18865627D01*
X15636062Y-18808484D02*
X15655110Y-18808484D01*
X15655110Y-18808484D02*
X15674158Y-18818008D01*
X15674158Y-18818008D02*
X15683682Y-18827531D01*
X15683682Y-18827531D02*
X15693205Y-18846579D01*
X15693205Y-18846579D02*
X15702729Y-18884674D01*
X15702729Y-18884674D02*
X15702729Y-18932293D01*
X15702729Y-18932293D02*
X15693205Y-18970389D01*
X15693205Y-18970389D02*
X15683682Y-18989436D01*
X15683682Y-18989436D02*
X15674158Y-18998960D01*
X15674158Y-18998960D02*
X15655110Y-19008484D01*
X15655110Y-19008484D02*
X15636062Y-19008484D01*
X15636062Y-19008484D02*
X15617015Y-18998960D01*
X15617015Y-18998960D02*
X15607491Y-18989436D01*
X15607491Y-18989436D02*
X15597967Y-18970389D01*
X15597967Y-18970389D02*
X15588443Y-18932293D01*
X15588443Y-18932293D02*
X15588443Y-18884674D01*
X15588443Y-18884674D02*
X15597967Y-18846579D01*
X15597967Y-18846579D02*
X15607491Y-18827531D01*
X15607491Y-18827531D02*
X15617015Y-18818008D01*
X15617015Y-18818008D02*
X15636062Y-18808484D01*
X15826539Y-18808484D02*
X15845586Y-18808484D01*
X15845586Y-18808484D02*
X15864634Y-18818008D01*
X15864634Y-18818008D02*
X15874158Y-18827531D01*
X15874158Y-18827531D02*
X15883682Y-18846579D01*
X15883682Y-18846579D02*
X15893205Y-18884674D01*
X15893205Y-18884674D02*
X15893205Y-18932293D01*
X15893205Y-18932293D02*
X15883682Y-18970389D01*
X15883682Y-18970389D02*
X15874158Y-18989436D01*
X15874158Y-18989436D02*
X15864634Y-18998960D01*
X15864634Y-18998960D02*
X15845586Y-19008484D01*
X15845586Y-19008484D02*
X15826539Y-19008484D01*
X15826539Y-19008484D02*
X15807491Y-18998960D01*
X15807491Y-18998960D02*
X15797967Y-18989436D01*
X15797967Y-18989436D02*
X15788443Y-18970389D01*
X15788443Y-18970389D02*
X15778920Y-18932293D01*
X15778920Y-18932293D02*
X15778920Y-18884674D01*
X15778920Y-18884674D02*
X15788443Y-18846579D01*
X15788443Y-18846579D02*
X15797967Y-18827531D01*
X15797967Y-18827531D02*
X15807491Y-18818008D01*
X15807491Y-18818008D02*
X15826539Y-18808484D01*
X15978920Y-19008484D02*
X15978920Y-18875150D01*
X15978920Y-18894198D02*
X15988443Y-18884674D01*
X15988443Y-18884674D02*
X16007491Y-18875150D01*
X16007491Y-18875150D02*
X16036063Y-18875150D01*
X16036063Y-18875150D02*
X16055110Y-18884674D01*
X16055110Y-18884674D02*
X16064634Y-18903722D01*
X16064634Y-18903722D02*
X16064634Y-19008484D01*
X16064634Y-18903722D02*
X16074158Y-18884674D01*
X16074158Y-18884674D02*
X16093205Y-18875150D01*
X16093205Y-18875150D02*
X16121777Y-18875150D01*
X16121777Y-18875150D02*
X16140824Y-18884674D01*
X16140824Y-18884674D02*
X16150348Y-18903722D01*
X16150348Y-18903722D02*
X16150348Y-19008484D01*
X16245586Y-19008484D02*
X16245586Y-18875150D01*
X16245586Y-18894198D02*
X16255110Y-18884674D01*
X16255110Y-18884674D02*
X16274158Y-18875150D01*
X16274158Y-18875150D02*
X16302729Y-18875150D01*
X16302729Y-18875150D02*
X16321777Y-18884674D01*
X16321777Y-18884674D02*
X16331301Y-18903722D01*
X16331301Y-18903722D02*
X16331301Y-19008484D01*
X16331301Y-18903722D02*
X16340824Y-18884674D01*
X16340824Y-18884674D02*
X16359872Y-18875150D01*
X16359872Y-18875150D02*
X16388443Y-18875150D01*
X16388443Y-18875150D02*
X16407491Y-18884674D01*
X16407491Y-18884674D02*
X16417015Y-18903722D01*
X16417015Y-18903722D02*
X16417015Y-19008484D01*
X16807491Y-18798960D02*
X16636063Y-19056103D01*
X17064634Y-18808484D02*
X17083682Y-18808484D01*
X17083682Y-18808484D02*
X17102729Y-18818008D01*
X17102729Y-18818008D02*
X17112253Y-18827531D01*
X17112253Y-18827531D02*
X17121777Y-18846579D01*
X17121777Y-18846579D02*
X17131301Y-18884674D01*
X17131301Y-18884674D02*
X17131301Y-18932293D01*
X17131301Y-18932293D02*
X17121777Y-18970389D01*
X17121777Y-18970389D02*
X17112253Y-18989436D01*
X17112253Y-18989436D02*
X17102729Y-18998960D01*
X17102729Y-18998960D02*
X17083682Y-19008484D01*
X17083682Y-19008484D02*
X17064634Y-19008484D01*
X17064634Y-19008484D02*
X17045587Y-18998960D01*
X17045587Y-18998960D02*
X17036063Y-18989436D01*
X17036063Y-18989436D02*
X17026539Y-18970389D01*
X17026539Y-18970389D02*
X17017015Y-18932293D01*
X17017015Y-18932293D02*
X17017015Y-18884674D01*
X17017015Y-18884674D02*
X17026539Y-18846579D01*
X17026539Y-18846579D02*
X17036063Y-18827531D01*
X17036063Y-18827531D02*
X17045587Y-18818008D01*
X17045587Y-18818008D02*
X17064634Y-18808484D01*
X17217015Y-18989436D02*
X17226539Y-18998960D01*
X17226539Y-18998960D02*
X17217015Y-19008484D01*
X17217015Y-19008484D02*
X17207491Y-18998960D01*
X17207491Y-18998960D02*
X17217015Y-18989436D01*
X17217015Y-18989436D02*
X17217015Y-19008484D01*
X17350348Y-18808484D02*
X17369396Y-18808484D01*
X17369396Y-18808484D02*
X17388444Y-18818008D01*
X17388444Y-18818008D02*
X17397968Y-18827531D01*
X17397968Y-18827531D02*
X17407491Y-18846579D01*
X17407491Y-18846579D02*
X17417015Y-18884674D01*
X17417015Y-18884674D02*
X17417015Y-18932293D01*
X17417015Y-18932293D02*
X17407491Y-18970389D01*
X17407491Y-18970389D02*
X17397968Y-18989436D01*
X17397968Y-18989436D02*
X17388444Y-18998960D01*
X17388444Y-18998960D02*
X17369396Y-19008484D01*
X17369396Y-19008484D02*
X17350348Y-19008484D01*
X17350348Y-19008484D02*
X17331301Y-18998960D01*
X17331301Y-18998960D02*
X17321777Y-18989436D01*
X17321777Y-18989436D02*
X17312253Y-18970389D01*
X17312253Y-18970389D02*
X17302729Y-18932293D01*
X17302729Y-18932293D02*
X17302729Y-18884674D01*
X17302729Y-18884674D02*
X17312253Y-18846579D01*
X17312253Y-18846579D02*
X17321777Y-18827531D01*
X17321777Y-18827531D02*
X17331301Y-18818008D01*
X17331301Y-18818008D02*
X17350348Y-18808484D01*
X17588444Y-18875150D02*
X17588444Y-19008484D01*
X17540825Y-18798960D02*
X17493206Y-18941817D01*
X17493206Y-18941817D02*
X17617015Y-18941817D01*
X17674158Y-18808484D02*
X17797968Y-18808484D01*
X17797968Y-18808484D02*
X17731301Y-18884674D01*
X17731301Y-18884674D02*
X17759872Y-18884674D01*
X17759872Y-18884674D02*
X17778920Y-18894198D01*
X17778920Y-18894198D02*
X17788444Y-18903722D01*
X17788444Y-18903722D02*
X17797968Y-18922770D01*
X17797968Y-18922770D02*
X17797968Y-18970389D01*
X17797968Y-18970389D02*
X17788444Y-18989436D01*
X17788444Y-18989436D02*
X17778920Y-18998960D01*
X17778920Y-18998960D02*
X17759872Y-19008484D01*
X17759872Y-19008484D02*
X17702729Y-19008484D01*
X17702729Y-19008484D02*
X17683682Y-18998960D01*
X17683682Y-18998960D02*
X17674158Y-18989436D01*
X17864634Y-18808484D02*
X17988444Y-18808484D01*
X17988444Y-18808484D02*
X17921777Y-18884674D01*
X17921777Y-18884674D02*
X17950349Y-18884674D01*
X17950349Y-18884674D02*
X17969396Y-18894198D01*
X17969396Y-18894198D02*
X17978920Y-18903722D01*
X17978920Y-18903722D02*
X17988444Y-18922770D01*
X17988444Y-18922770D02*
X17988444Y-18970389D01*
X17988444Y-18970389D02*
X17978920Y-18989436D01*
X17978920Y-18989436D02*
X17969396Y-18998960D01*
X17969396Y-18998960D02*
X17950349Y-19008484D01*
X17950349Y-19008484D02*
X17893206Y-19008484D01*
X17893206Y-19008484D02*
X17874158Y-18998960D01*
X17874158Y-18998960D02*
X17864634Y-18989436D01*
X18064634Y-18808484D02*
X18064634Y-18846579D01*
X18140825Y-18808484D02*
X18140825Y-18846579D01*
X18436063Y-19084674D02*
X18426539Y-19075150D01*
X18426539Y-19075150D02*
X18407491Y-19046579D01*
X18407491Y-19046579D02*
X18397968Y-19027531D01*
X18397968Y-19027531D02*
X18388444Y-18998960D01*
X18388444Y-18998960D02*
X18378920Y-18951341D01*
X18378920Y-18951341D02*
X18378920Y-18913246D01*
X18378920Y-18913246D02*
X18388444Y-18865627D01*
X18388444Y-18865627D02*
X18397968Y-18837055D01*
X18397968Y-18837055D02*
X18407491Y-18818008D01*
X18407491Y-18818008D02*
X18426539Y-18789436D01*
X18426539Y-18789436D02*
X18436063Y-18779912D01*
X18597968Y-18875150D02*
X18597968Y-19008484D01*
X18550349Y-18798960D02*
X18502730Y-18941817D01*
X18502730Y-18941817D02*
X18626539Y-18941817D01*
X18855111Y-19008484D02*
X18855111Y-18808484D01*
X18940825Y-19008484D02*
X18940825Y-18903722D01*
X18940825Y-18903722D02*
X18931301Y-18884674D01*
X18931301Y-18884674D02*
X18912253Y-18875150D01*
X18912253Y-18875150D02*
X18883682Y-18875150D01*
X18883682Y-18875150D02*
X18864634Y-18884674D01*
X18864634Y-18884674D02*
X18855111Y-18894198D01*
X19064634Y-19008484D02*
X19045587Y-18998960D01*
X19045587Y-18998960D02*
X19036063Y-18989436D01*
X19036063Y-18989436D02*
X19026539Y-18970389D01*
X19026539Y-18970389D02*
X19026539Y-18913246D01*
X19026539Y-18913246D02*
X19036063Y-18894198D01*
X19036063Y-18894198D02*
X19045587Y-18884674D01*
X19045587Y-18884674D02*
X19064634Y-18875150D01*
X19064634Y-18875150D02*
X19093206Y-18875150D01*
X19093206Y-18875150D02*
X19112253Y-18884674D01*
X19112253Y-18884674D02*
X19121777Y-18894198D01*
X19121777Y-18894198D02*
X19131301Y-18913246D01*
X19131301Y-18913246D02*
X19131301Y-18970389D01*
X19131301Y-18970389D02*
X19121777Y-18989436D01*
X19121777Y-18989436D02*
X19112253Y-18998960D01*
X19112253Y-18998960D02*
X19093206Y-19008484D01*
X19093206Y-19008484D02*
X19064634Y-19008484D01*
X19245587Y-19008484D02*
X19226539Y-18998960D01*
X19226539Y-18998960D02*
X19217015Y-18979912D01*
X19217015Y-18979912D02*
X19217015Y-18808484D01*
X19397968Y-18998960D02*
X19378920Y-19008484D01*
X19378920Y-19008484D02*
X19340825Y-19008484D01*
X19340825Y-19008484D02*
X19321777Y-18998960D01*
X19321777Y-18998960D02*
X19312253Y-18979912D01*
X19312253Y-18979912D02*
X19312253Y-18903722D01*
X19312253Y-18903722D02*
X19321777Y-18884674D01*
X19321777Y-18884674D02*
X19340825Y-18875150D01*
X19340825Y-18875150D02*
X19378920Y-18875150D01*
X19378920Y-18875150D02*
X19397968Y-18884674D01*
X19397968Y-18884674D02*
X19407492Y-18903722D01*
X19407492Y-18903722D02*
X19407492Y-18922770D01*
X19407492Y-18922770D02*
X19312253Y-18941817D01*
X19483682Y-18998960D02*
X19502730Y-19008484D01*
X19502730Y-19008484D02*
X19540825Y-19008484D01*
X19540825Y-19008484D02*
X19559873Y-18998960D01*
X19559873Y-18998960D02*
X19569396Y-18979912D01*
X19569396Y-18979912D02*
X19569396Y-18970389D01*
X19569396Y-18970389D02*
X19559873Y-18951341D01*
X19559873Y-18951341D02*
X19540825Y-18941817D01*
X19540825Y-18941817D02*
X19512253Y-18941817D01*
X19512253Y-18941817D02*
X19493206Y-18932293D01*
X19493206Y-18932293D02*
X19483682Y-18913246D01*
X19483682Y-18913246D02*
X19483682Y-18903722D01*
X19483682Y-18903722D02*
X19493206Y-18884674D01*
X19493206Y-18884674D02*
X19512253Y-18875150D01*
X19512253Y-18875150D02*
X19540825Y-18875150D01*
X19540825Y-18875150D02*
X19559873Y-18884674D01*
X19636063Y-19084674D02*
X19645587Y-19075150D01*
X19645587Y-19075150D02*
X19664634Y-19046579D01*
X19664634Y-19046579D02*
X19674158Y-19027531D01*
X19674158Y-19027531D02*
X19683682Y-18998960D01*
X19683682Y-18998960D02*
X19693206Y-18951341D01*
X19693206Y-18951341D02*
X19693206Y-18913246D01*
X19693206Y-18913246D02*
X19683682Y-18865627D01*
X19683682Y-18865627D02*
X19674158Y-18837055D01*
X19674158Y-18837055D02*
X19664634Y-18818008D01*
X19664634Y-18818008D02*
X19645587Y-18789436D01*
X19645587Y-18789436D02*
X19636063Y-18779912D01*
D14*
X14742000Y-19121500D02*
X14861000Y-19240500D01*
X14861000Y-19121500D02*
X14742000Y-19240500D01*
X14861000Y-19181000D02*
G75*
G02*
X14742000Y-19181000I-59500J0D01*
G01*
X14742000Y-19181000D02*
G75*
G02*
X14861000Y-19181000I59500J0D01*
G01*
D11*
X15226539Y-19272484D02*
X15112253Y-19272484D01*
X15169396Y-19272484D02*
X15169396Y-19072484D01*
X15169396Y-19072484D02*
X15150348Y-19101055D01*
X15150348Y-19101055D02*
X15131301Y-19120103D01*
X15131301Y-19120103D02*
X15112253Y-19129627D01*
X15312253Y-19253436D02*
X15321777Y-19262960D01*
X15321777Y-19262960D02*
X15312253Y-19272484D01*
X15312253Y-19272484D02*
X15302729Y-19262960D01*
X15302729Y-19262960D02*
X15312253Y-19253436D01*
X15312253Y-19253436D02*
X15312253Y-19272484D01*
X15512253Y-19272484D02*
X15397967Y-19272484D01*
X15455110Y-19272484D02*
X15455110Y-19072484D01*
X15455110Y-19072484D02*
X15436062Y-19101055D01*
X15436062Y-19101055D02*
X15417015Y-19120103D01*
X15417015Y-19120103D02*
X15397967Y-19129627D01*
X15607491Y-19272484D02*
X15645586Y-19272484D01*
X15645586Y-19272484D02*
X15664634Y-19262960D01*
X15664634Y-19262960D02*
X15674158Y-19253436D01*
X15674158Y-19253436D02*
X15693205Y-19224865D01*
X15693205Y-19224865D02*
X15702729Y-19186770D01*
X15702729Y-19186770D02*
X15702729Y-19110579D01*
X15702729Y-19110579D02*
X15693205Y-19091531D01*
X15693205Y-19091531D02*
X15683682Y-19082008D01*
X15683682Y-19082008D02*
X15664634Y-19072484D01*
X15664634Y-19072484D02*
X15626539Y-19072484D01*
X15626539Y-19072484D02*
X15607491Y-19082008D01*
X15607491Y-19082008D02*
X15597967Y-19091531D01*
X15597967Y-19091531D02*
X15588443Y-19110579D01*
X15588443Y-19110579D02*
X15588443Y-19158198D01*
X15588443Y-19158198D02*
X15597967Y-19177246D01*
X15597967Y-19177246D02*
X15607491Y-19186770D01*
X15607491Y-19186770D02*
X15626539Y-19196293D01*
X15626539Y-19196293D02*
X15664634Y-19196293D01*
X15664634Y-19196293D02*
X15683682Y-19186770D01*
X15683682Y-19186770D02*
X15693205Y-19177246D01*
X15693205Y-19177246D02*
X15702729Y-19158198D01*
X15826539Y-19072484D02*
X15845586Y-19072484D01*
X15845586Y-19072484D02*
X15864634Y-19082008D01*
X15864634Y-19082008D02*
X15874158Y-19091531D01*
X15874158Y-19091531D02*
X15883682Y-19110579D01*
X15883682Y-19110579D02*
X15893205Y-19148674D01*
X15893205Y-19148674D02*
X15893205Y-19196293D01*
X15893205Y-19196293D02*
X15883682Y-19234389D01*
X15883682Y-19234389D02*
X15874158Y-19253436D01*
X15874158Y-19253436D02*
X15864634Y-19262960D01*
X15864634Y-19262960D02*
X15845586Y-19272484D01*
X15845586Y-19272484D02*
X15826539Y-19272484D01*
X15826539Y-19272484D02*
X15807491Y-19262960D01*
X15807491Y-19262960D02*
X15797967Y-19253436D01*
X15797967Y-19253436D02*
X15788443Y-19234389D01*
X15788443Y-19234389D02*
X15778920Y-19196293D01*
X15778920Y-19196293D02*
X15778920Y-19148674D01*
X15778920Y-19148674D02*
X15788443Y-19110579D01*
X15788443Y-19110579D02*
X15797967Y-19091531D01*
X15797967Y-19091531D02*
X15807491Y-19082008D01*
X15807491Y-19082008D02*
X15826539Y-19072484D01*
X15978920Y-19272484D02*
X15978920Y-19139150D01*
X15978920Y-19158198D02*
X15988443Y-19148674D01*
X15988443Y-19148674D02*
X16007491Y-19139150D01*
X16007491Y-19139150D02*
X16036063Y-19139150D01*
X16036063Y-19139150D02*
X16055110Y-19148674D01*
X16055110Y-19148674D02*
X16064634Y-19167722D01*
X16064634Y-19167722D02*
X16064634Y-19272484D01*
X16064634Y-19167722D02*
X16074158Y-19148674D01*
X16074158Y-19148674D02*
X16093205Y-19139150D01*
X16093205Y-19139150D02*
X16121777Y-19139150D01*
X16121777Y-19139150D02*
X16140824Y-19148674D01*
X16140824Y-19148674D02*
X16150348Y-19167722D01*
X16150348Y-19167722D02*
X16150348Y-19272484D01*
X16245586Y-19272484D02*
X16245586Y-19139150D01*
X16245586Y-19158198D02*
X16255110Y-19148674D01*
X16255110Y-19148674D02*
X16274158Y-19139150D01*
X16274158Y-19139150D02*
X16302729Y-19139150D01*
X16302729Y-19139150D02*
X16321777Y-19148674D01*
X16321777Y-19148674D02*
X16331301Y-19167722D01*
X16331301Y-19167722D02*
X16331301Y-19272484D01*
X16331301Y-19167722D02*
X16340824Y-19148674D01*
X16340824Y-19148674D02*
X16359872Y-19139150D01*
X16359872Y-19139150D02*
X16388443Y-19139150D01*
X16388443Y-19139150D02*
X16407491Y-19148674D01*
X16407491Y-19148674D02*
X16417015Y-19167722D01*
X16417015Y-19167722D02*
X16417015Y-19272484D01*
X16807491Y-19062960D02*
X16636063Y-19320103D01*
X17064634Y-19072484D02*
X17083682Y-19072484D01*
X17083682Y-19072484D02*
X17102729Y-19082008D01*
X17102729Y-19082008D02*
X17112253Y-19091531D01*
X17112253Y-19091531D02*
X17121777Y-19110579D01*
X17121777Y-19110579D02*
X17131301Y-19148674D01*
X17131301Y-19148674D02*
X17131301Y-19196293D01*
X17131301Y-19196293D02*
X17121777Y-19234389D01*
X17121777Y-19234389D02*
X17112253Y-19253436D01*
X17112253Y-19253436D02*
X17102729Y-19262960D01*
X17102729Y-19262960D02*
X17083682Y-19272484D01*
X17083682Y-19272484D02*
X17064634Y-19272484D01*
X17064634Y-19272484D02*
X17045587Y-19262960D01*
X17045587Y-19262960D02*
X17036063Y-19253436D01*
X17036063Y-19253436D02*
X17026539Y-19234389D01*
X17026539Y-19234389D02*
X17017015Y-19196293D01*
X17017015Y-19196293D02*
X17017015Y-19148674D01*
X17017015Y-19148674D02*
X17026539Y-19110579D01*
X17026539Y-19110579D02*
X17036063Y-19091531D01*
X17036063Y-19091531D02*
X17045587Y-19082008D01*
X17045587Y-19082008D02*
X17064634Y-19072484D01*
X17217015Y-19253436D02*
X17226539Y-19262960D01*
X17226539Y-19262960D02*
X17217015Y-19272484D01*
X17217015Y-19272484D02*
X17207491Y-19262960D01*
X17207491Y-19262960D02*
X17217015Y-19253436D01*
X17217015Y-19253436D02*
X17217015Y-19272484D01*
X17350348Y-19072484D02*
X17369396Y-19072484D01*
X17369396Y-19072484D02*
X17388444Y-19082008D01*
X17388444Y-19082008D02*
X17397968Y-19091531D01*
X17397968Y-19091531D02*
X17407491Y-19110579D01*
X17407491Y-19110579D02*
X17417015Y-19148674D01*
X17417015Y-19148674D02*
X17417015Y-19196293D01*
X17417015Y-19196293D02*
X17407491Y-19234389D01*
X17407491Y-19234389D02*
X17397968Y-19253436D01*
X17397968Y-19253436D02*
X17388444Y-19262960D01*
X17388444Y-19262960D02*
X17369396Y-19272484D01*
X17369396Y-19272484D02*
X17350348Y-19272484D01*
X17350348Y-19272484D02*
X17331301Y-19262960D01*
X17331301Y-19262960D02*
X17321777Y-19253436D01*
X17321777Y-19253436D02*
X17312253Y-19234389D01*
X17312253Y-19234389D02*
X17302729Y-19196293D01*
X17302729Y-19196293D02*
X17302729Y-19148674D01*
X17302729Y-19148674D02*
X17312253Y-19110579D01*
X17312253Y-19110579D02*
X17321777Y-19091531D01*
X17321777Y-19091531D02*
X17331301Y-19082008D01*
X17331301Y-19082008D02*
X17350348Y-19072484D01*
X17588444Y-19139150D02*
X17588444Y-19272484D01*
X17540825Y-19062960D02*
X17493206Y-19205817D01*
X17493206Y-19205817D02*
X17617015Y-19205817D01*
X17778920Y-19072484D02*
X17740825Y-19072484D01*
X17740825Y-19072484D02*
X17721777Y-19082008D01*
X17721777Y-19082008D02*
X17712253Y-19091531D01*
X17712253Y-19091531D02*
X17693206Y-19120103D01*
X17693206Y-19120103D02*
X17683682Y-19158198D01*
X17683682Y-19158198D02*
X17683682Y-19234389D01*
X17683682Y-19234389D02*
X17693206Y-19253436D01*
X17693206Y-19253436D02*
X17702729Y-19262960D01*
X17702729Y-19262960D02*
X17721777Y-19272484D01*
X17721777Y-19272484D02*
X17759872Y-19272484D01*
X17759872Y-19272484D02*
X17778920Y-19262960D01*
X17778920Y-19262960D02*
X17788444Y-19253436D01*
X17788444Y-19253436D02*
X17797968Y-19234389D01*
X17797968Y-19234389D02*
X17797968Y-19186770D01*
X17797968Y-19186770D02*
X17788444Y-19167722D01*
X17788444Y-19167722D02*
X17778920Y-19158198D01*
X17778920Y-19158198D02*
X17759872Y-19148674D01*
X17759872Y-19148674D02*
X17721777Y-19148674D01*
X17721777Y-19148674D02*
X17702729Y-19158198D01*
X17702729Y-19158198D02*
X17693206Y-19167722D01*
X17693206Y-19167722D02*
X17683682Y-19186770D01*
X17893206Y-19272484D02*
X17931301Y-19272484D01*
X17931301Y-19272484D02*
X17950349Y-19262960D01*
X17950349Y-19262960D02*
X17959872Y-19253436D01*
X17959872Y-19253436D02*
X17978920Y-19224865D01*
X17978920Y-19224865D02*
X17988444Y-19186770D01*
X17988444Y-19186770D02*
X17988444Y-19110579D01*
X17988444Y-19110579D02*
X17978920Y-19091531D01*
X17978920Y-19091531D02*
X17969396Y-19082008D01*
X17969396Y-19082008D02*
X17950349Y-19072484D01*
X17950349Y-19072484D02*
X17912253Y-19072484D01*
X17912253Y-19072484D02*
X17893206Y-19082008D01*
X17893206Y-19082008D02*
X17883682Y-19091531D01*
X17883682Y-19091531D02*
X17874158Y-19110579D01*
X17874158Y-19110579D02*
X17874158Y-19158198D01*
X17874158Y-19158198D02*
X17883682Y-19177246D01*
X17883682Y-19177246D02*
X17893206Y-19186770D01*
X17893206Y-19186770D02*
X17912253Y-19196293D01*
X17912253Y-19196293D02*
X17950349Y-19196293D01*
X17950349Y-19196293D02*
X17969396Y-19186770D01*
X17969396Y-19186770D02*
X17978920Y-19177246D01*
X17978920Y-19177246D02*
X17988444Y-19158198D01*
X18064634Y-19072484D02*
X18064634Y-19110579D01*
X18140825Y-19072484D02*
X18140825Y-19110579D01*
X18436063Y-19348674D02*
X18426539Y-19339150D01*
X18426539Y-19339150D02*
X18407491Y-19310579D01*
X18407491Y-19310579D02*
X18397968Y-19291531D01*
X18397968Y-19291531D02*
X18388444Y-19262960D01*
X18388444Y-19262960D02*
X18378920Y-19215341D01*
X18378920Y-19215341D02*
X18378920Y-19177246D01*
X18378920Y-19177246D02*
X18388444Y-19129627D01*
X18388444Y-19129627D02*
X18397968Y-19101055D01*
X18397968Y-19101055D02*
X18407491Y-19082008D01*
X18407491Y-19082008D02*
X18426539Y-19053436D01*
X18426539Y-19053436D02*
X18436063Y-19043912D01*
X18617015Y-19272484D02*
X18502730Y-19272484D01*
X18559872Y-19272484D02*
X18559872Y-19072484D01*
X18559872Y-19072484D02*
X18540825Y-19101055D01*
X18540825Y-19101055D02*
X18521777Y-19120103D01*
X18521777Y-19120103D02*
X18502730Y-19129627D01*
X18797968Y-19072484D02*
X18702730Y-19072484D01*
X18702730Y-19072484D02*
X18693206Y-19167722D01*
X18693206Y-19167722D02*
X18702730Y-19158198D01*
X18702730Y-19158198D02*
X18721777Y-19148674D01*
X18721777Y-19148674D02*
X18769396Y-19148674D01*
X18769396Y-19148674D02*
X18788444Y-19158198D01*
X18788444Y-19158198D02*
X18797968Y-19167722D01*
X18797968Y-19167722D02*
X18807491Y-19186770D01*
X18807491Y-19186770D02*
X18807491Y-19234389D01*
X18807491Y-19234389D02*
X18797968Y-19253436D01*
X18797968Y-19253436D02*
X18788444Y-19262960D01*
X18788444Y-19262960D02*
X18769396Y-19272484D01*
X18769396Y-19272484D02*
X18721777Y-19272484D01*
X18721777Y-19272484D02*
X18702730Y-19262960D01*
X18702730Y-19262960D02*
X18693206Y-19253436D01*
X19045587Y-19272484D02*
X19045587Y-19072484D01*
X19131301Y-19272484D02*
X19131301Y-19167722D01*
X19131301Y-19167722D02*
X19121777Y-19148674D01*
X19121777Y-19148674D02*
X19102730Y-19139150D01*
X19102730Y-19139150D02*
X19074158Y-19139150D01*
X19074158Y-19139150D02*
X19055111Y-19148674D01*
X19055111Y-19148674D02*
X19045587Y-19158198D01*
X19255111Y-19272484D02*
X19236063Y-19262960D01*
X19236063Y-19262960D02*
X19226539Y-19253436D01*
X19226539Y-19253436D02*
X19217015Y-19234389D01*
X19217015Y-19234389D02*
X19217015Y-19177246D01*
X19217015Y-19177246D02*
X19226539Y-19158198D01*
X19226539Y-19158198D02*
X19236063Y-19148674D01*
X19236063Y-19148674D02*
X19255111Y-19139150D01*
X19255111Y-19139150D02*
X19283682Y-19139150D01*
X19283682Y-19139150D02*
X19302730Y-19148674D01*
X19302730Y-19148674D02*
X19312253Y-19158198D01*
X19312253Y-19158198D02*
X19321777Y-19177246D01*
X19321777Y-19177246D02*
X19321777Y-19234389D01*
X19321777Y-19234389D02*
X19312253Y-19253436D01*
X19312253Y-19253436D02*
X19302730Y-19262960D01*
X19302730Y-19262960D02*
X19283682Y-19272484D01*
X19283682Y-19272484D02*
X19255111Y-19272484D01*
X19436063Y-19272484D02*
X19417015Y-19262960D01*
X19417015Y-19262960D02*
X19407492Y-19243912D01*
X19407492Y-19243912D02*
X19407492Y-19072484D01*
X19588444Y-19262960D02*
X19569396Y-19272484D01*
X19569396Y-19272484D02*
X19531301Y-19272484D01*
X19531301Y-19272484D02*
X19512253Y-19262960D01*
X19512253Y-19262960D02*
X19502730Y-19243912D01*
X19502730Y-19243912D02*
X19502730Y-19167722D01*
X19502730Y-19167722D02*
X19512253Y-19148674D01*
X19512253Y-19148674D02*
X19531301Y-19139150D01*
X19531301Y-19139150D02*
X19569396Y-19139150D01*
X19569396Y-19139150D02*
X19588444Y-19148674D01*
X19588444Y-19148674D02*
X19597968Y-19167722D01*
X19597968Y-19167722D02*
X19597968Y-19186770D01*
X19597968Y-19186770D02*
X19502730Y-19205817D01*
X19674158Y-19262960D02*
X19693206Y-19272484D01*
X19693206Y-19272484D02*
X19731301Y-19272484D01*
X19731301Y-19272484D02*
X19750349Y-19262960D01*
X19750349Y-19262960D02*
X19759873Y-19243912D01*
X19759873Y-19243912D02*
X19759873Y-19234389D01*
X19759873Y-19234389D02*
X19750349Y-19215341D01*
X19750349Y-19215341D02*
X19731301Y-19205817D01*
X19731301Y-19205817D02*
X19702730Y-19205817D01*
X19702730Y-19205817D02*
X19683682Y-19196293D01*
X19683682Y-19196293D02*
X19674158Y-19177246D01*
X19674158Y-19177246D02*
X19674158Y-19167722D01*
X19674158Y-19167722D02*
X19683682Y-19148674D01*
X19683682Y-19148674D02*
X19702730Y-19139150D01*
X19702730Y-19139150D02*
X19731301Y-19139150D01*
X19731301Y-19139150D02*
X19750349Y-19148674D01*
X19826539Y-19348674D02*
X19836063Y-19339150D01*
X19836063Y-19339150D02*
X19855111Y-19310579D01*
X19855111Y-19310579D02*
X19864634Y-19291531D01*
X19864634Y-19291531D02*
X19874158Y-19262960D01*
X19874158Y-19262960D02*
X19883682Y-19215341D01*
X19883682Y-19215341D02*
X19883682Y-19177246D01*
X19883682Y-19177246D02*
X19874158Y-19129627D01*
X19874158Y-19129627D02*
X19864634Y-19101055D01*
X19864634Y-19101055D02*
X19855111Y-19082008D01*
X19855111Y-19082008D02*
X19836063Y-19053436D01*
X19836063Y-19053436D02*
X19826539Y-19043912D01*
X14661000Y-19345000D02*
X14861000Y-19545000D01*
X14861000Y-19345000D02*
X14661000Y-19545000D01*
X14761000Y-19345000D02*
X14761000Y-19545000D01*
X14661000Y-19445000D02*
X14861000Y-19445000D01*
X15102729Y-19336484D02*
X15226539Y-19336484D01*
X15226539Y-19336484D02*
X15159872Y-19412674D01*
X15159872Y-19412674D02*
X15188443Y-19412674D01*
X15188443Y-19412674D02*
X15207491Y-19422198D01*
X15207491Y-19422198D02*
X15217015Y-19431722D01*
X15217015Y-19431722D02*
X15226539Y-19450770D01*
X15226539Y-19450770D02*
X15226539Y-19498389D01*
X15226539Y-19498389D02*
X15217015Y-19517436D01*
X15217015Y-19517436D02*
X15207491Y-19526960D01*
X15207491Y-19526960D02*
X15188443Y-19536484D01*
X15188443Y-19536484D02*
X15131301Y-19536484D01*
X15131301Y-19536484D02*
X15112253Y-19526960D01*
X15112253Y-19526960D02*
X15102729Y-19517436D01*
X15312253Y-19517436D02*
X15321777Y-19526960D01*
X15321777Y-19526960D02*
X15312253Y-19536484D01*
X15312253Y-19536484D02*
X15302729Y-19526960D01*
X15302729Y-19526960D02*
X15312253Y-19517436D01*
X15312253Y-19517436D02*
X15312253Y-19536484D01*
X15397967Y-19355531D02*
X15407491Y-19346008D01*
X15407491Y-19346008D02*
X15426539Y-19336484D01*
X15426539Y-19336484D02*
X15474158Y-19336484D01*
X15474158Y-19336484D02*
X15493205Y-19346008D01*
X15493205Y-19346008D02*
X15502729Y-19355531D01*
X15502729Y-19355531D02*
X15512253Y-19374579D01*
X15512253Y-19374579D02*
X15512253Y-19393627D01*
X15512253Y-19393627D02*
X15502729Y-19422198D01*
X15502729Y-19422198D02*
X15388443Y-19536484D01*
X15388443Y-19536484D02*
X15512253Y-19536484D01*
X15636062Y-19336484D02*
X15655110Y-19336484D01*
X15655110Y-19336484D02*
X15674158Y-19346008D01*
X15674158Y-19346008D02*
X15683682Y-19355531D01*
X15683682Y-19355531D02*
X15693205Y-19374579D01*
X15693205Y-19374579D02*
X15702729Y-19412674D01*
X15702729Y-19412674D02*
X15702729Y-19460293D01*
X15702729Y-19460293D02*
X15693205Y-19498389D01*
X15693205Y-19498389D02*
X15683682Y-19517436D01*
X15683682Y-19517436D02*
X15674158Y-19526960D01*
X15674158Y-19526960D02*
X15655110Y-19536484D01*
X15655110Y-19536484D02*
X15636062Y-19536484D01*
X15636062Y-19536484D02*
X15617015Y-19526960D01*
X15617015Y-19526960D02*
X15607491Y-19517436D01*
X15607491Y-19517436D02*
X15597967Y-19498389D01*
X15597967Y-19498389D02*
X15588443Y-19460293D01*
X15588443Y-19460293D02*
X15588443Y-19412674D01*
X15588443Y-19412674D02*
X15597967Y-19374579D01*
X15597967Y-19374579D02*
X15607491Y-19355531D01*
X15607491Y-19355531D02*
X15617015Y-19346008D01*
X15617015Y-19346008D02*
X15636062Y-19336484D01*
X15826539Y-19336484D02*
X15845586Y-19336484D01*
X15845586Y-19336484D02*
X15864634Y-19346008D01*
X15864634Y-19346008D02*
X15874158Y-19355531D01*
X15874158Y-19355531D02*
X15883682Y-19374579D01*
X15883682Y-19374579D02*
X15893205Y-19412674D01*
X15893205Y-19412674D02*
X15893205Y-19460293D01*
X15893205Y-19460293D02*
X15883682Y-19498389D01*
X15883682Y-19498389D02*
X15874158Y-19517436D01*
X15874158Y-19517436D02*
X15864634Y-19526960D01*
X15864634Y-19526960D02*
X15845586Y-19536484D01*
X15845586Y-19536484D02*
X15826539Y-19536484D01*
X15826539Y-19536484D02*
X15807491Y-19526960D01*
X15807491Y-19526960D02*
X15797967Y-19517436D01*
X15797967Y-19517436D02*
X15788443Y-19498389D01*
X15788443Y-19498389D02*
X15778920Y-19460293D01*
X15778920Y-19460293D02*
X15778920Y-19412674D01*
X15778920Y-19412674D02*
X15788443Y-19374579D01*
X15788443Y-19374579D02*
X15797967Y-19355531D01*
X15797967Y-19355531D02*
X15807491Y-19346008D01*
X15807491Y-19346008D02*
X15826539Y-19336484D01*
X15978920Y-19536484D02*
X15978920Y-19403150D01*
X15978920Y-19422198D02*
X15988443Y-19412674D01*
X15988443Y-19412674D02*
X16007491Y-19403150D01*
X16007491Y-19403150D02*
X16036063Y-19403150D01*
X16036063Y-19403150D02*
X16055110Y-19412674D01*
X16055110Y-19412674D02*
X16064634Y-19431722D01*
X16064634Y-19431722D02*
X16064634Y-19536484D01*
X16064634Y-19431722D02*
X16074158Y-19412674D01*
X16074158Y-19412674D02*
X16093205Y-19403150D01*
X16093205Y-19403150D02*
X16121777Y-19403150D01*
X16121777Y-19403150D02*
X16140824Y-19412674D01*
X16140824Y-19412674D02*
X16150348Y-19431722D01*
X16150348Y-19431722D02*
X16150348Y-19536484D01*
X16245586Y-19536484D02*
X16245586Y-19403150D01*
X16245586Y-19422198D02*
X16255110Y-19412674D01*
X16255110Y-19412674D02*
X16274158Y-19403150D01*
X16274158Y-19403150D02*
X16302729Y-19403150D01*
X16302729Y-19403150D02*
X16321777Y-19412674D01*
X16321777Y-19412674D02*
X16331301Y-19431722D01*
X16331301Y-19431722D02*
X16331301Y-19536484D01*
X16331301Y-19431722D02*
X16340824Y-19412674D01*
X16340824Y-19412674D02*
X16359872Y-19403150D01*
X16359872Y-19403150D02*
X16388443Y-19403150D01*
X16388443Y-19403150D02*
X16407491Y-19412674D01*
X16407491Y-19412674D02*
X16417015Y-19431722D01*
X16417015Y-19431722D02*
X16417015Y-19536484D01*
X16807491Y-19326960D02*
X16636063Y-19584103D01*
X17064634Y-19336484D02*
X17083682Y-19336484D01*
X17083682Y-19336484D02*
X17102729Y-19346008D01*
X17102729Y-19346008D02*
X17112253Y-19355531D01*
X17112253Y-19355531D02*
X17121777Y-19374579D01*
X17121777Y-19374579D02*
X17131301Y-19412674D01*
X17131301Y-19412674D02*
X17131301Y-19460293D01*
X17131301Y-19460293D02*
X17121777Y-19498389D01*
X17121777Y-19498389D02*
X17112253Y-19517436D01*
X17112253Y-19517436D02*
X17102729Y-19526960D01*
X17102729Y-19526960D02*
X17083682Y-19536484D01*
X17083682Y-19536484D02*
X17064634Y-19536484D01*
X17064634Y-19536484D02*
X17045587Y-19526960D01*
X17045587Y-19526960D02*
X17036063Y-19517436D01*
X17036063Y-19517436D02*
X17026539Y-19498389D01*
X17026539Y-19498389D02*
X17017015Y-19460293D01*
X17017015Y-19460293D02*
X17017015Y-19412674D01*
X17017015Y-19412674D02*
X17026539Y-19374579D01*
X17026539Y-19374579D02*
X17036063Y-19355531D01*
X17036063Y-19355531D02*
X17045587Y-19346008D01*
X17045587Y-19346008D02*
X17064634Y-19336484D01*
X17217015Y-19517436D02*
X17226539Y-19526960D01*
X17226539Y-19526960D02*
X17217015Y-19536484D01*
X17217015Y-19536484D02*
X17207491Y-19526960D01*
X17207491Y-19526960D02*
X17217015Y-19517436D01*
X17217015Y-19517436D02*
X17217015Y-19536484D01*
X17417015Y-19536484D02*
X17302729Y-19536484D01*
X17359872Y-19536484D02*
X17359872Y-19336484D01*
X17359872Y-19336484D02*
X17340825Y-19365055D01*
X17340825Y-19365055D02*
X17321777Y-19384103D01*
X17321777Y-19384103D02*
X17302729Y-19393627D01*
X17493206Y-19355531D02*
X17502729Y-19346008D01*
X17502729Y-19346008D02*
X17521777Y-19336484D01*
X17521777Y-19336484D02*
X17569396Y-19336484D01*
X17569396Y-19336484D02*
X17588444Y-19346008D01*
X17588444Y-19346008D02*
X17597968Y-19355531D01*
X17597968Y-19355531D02*
X17607491Y-19374579D01*
X17607491Y-19374579D02*
X17607491Y-19393627D01*
X17607491Y-19393627D02*
X17597968Y-19422198D01*
X17597968Y-19422198D02*
X17483682Y-19536484D01*
X17483682Y-19536484D02*
X17607491Y-19536484D01*
X17778920Y-19336484D02*
X17740825Y-19336484D01*
X17740825Y-19336484D02*
X17721777Y-19346008D01*
X17721777Y-19346008D02*
X17712253Y-19355531D01*
X17712253Y-19355531D02*
X17693206Y-19384103D01*
X17693206Y-19384103D02*
X17683682Y-19422198D01*
X17683682Y-19422198D02*
X17683682Y-19498389D01*
X17683682Y-19498389D02*
X17693206Y-19517436D01*
X17693206Y-19517436D02*
X17702729Y-19526960D01*
X17702729Y-19526960D02*
X17721777Y-19536484D01*
X17721777Y-19536484D02*
X17759872Y-19536484D01*
X17759872Y-19536484D02*
X17778920Y-19526960D01*
X17778920Y-19526960D02*
X17788444Y-19517436D01*
X17788444Y-19517436D02*
X17797968Y-19498389D01*
X17797968Y-19498389D02*
X17797968Y-19450770D01*
X17797968Y-19450770D02*
X17788444Y-19431722D01*
X17788444Y-19431722D02*
X17778920Y-19422198D01*
X17778920Y-19422198D02*
X17759872Y-19412674D01*
X17759872Y-19412674D02*
X17721777Y-19412674D01*
X17721777Y-19412674D02*
X17702729Y-19422198D01*
X17702729Y-19422198D02*
X17693206Y-19431722D01*
X17693206Y-19431722D02*
X17683682Y-19450770D01*
X17921777Y-19336484D02*
X17940825Y-19336484D01*
X17940825Y-19336484D02*
X17959872Y-19346008D01*
X17959872Y-19346008D02*
X17969396Y-19355531D01*
X17969396Y-19355531D02*
X17978920Y-19374579D01*
X17978920Y-19374579D02*
X17988444Y-19412674D01*
X17988444Y-19412674D02*
X17988444Y-19460293D01*
X17988444Y-19460293D02*
X17978920Y-19498389D01*
X17978920Y-19498389D02*
X17969396Y-19517436D01*
X17969396Y-19517436D02*
X17959872Y-19526960D01*
X17959872Y-19526960D02*
X17940825Y-19536484D01*
X17940825Y-19536484D02*
X17921777Y-19536484D01*
X17921777Y-19536484D02*
X17902729Y-19526960D01*
X17902729Y-19526960D02*
X17893206Y-19517436D01*
X17893206Y-19517436D02*
X17883682Y-19498389D01*
X17883682Y-19498389D02*
X17874158Y-19460293D01*
X17874158Y-19460293D02*
X17874158Y-19412674D01*
X17874158Y-19412674D02*
X17883682Y-19374579D01*
X17883682Y-19374579D02*
X17893206Y-19355531D01*
X17893206Y-19355531D02*
X17902729Y-19346008D01*
X17902729Y-19346008D02*
X17921777Y-19336484D01*
X18064634Y-19336484D02*
X18064634Y-19374579D01*
X18140825Y-19336484D02*
X18140825Y-19374579D01*
X18436063Y-19612674D02*
X18426539Y-19603150D01*
X18426539Y-19603150D02*
X18407491Y-19574579D01*
X18407491Y-19574579D02*
X18397968Y-19555531D01*
X18397968Y-19555531D02*
X18388444Y-19526960D01*
X18388444Y-19526960D02*
X18378920Y-19479341D01*
X18378920Y-19479341D02*
X18378920Y-19441246D01*
X18378920Y-19441246D02*
X18388444Y-19393627D01*
X18388444Y-19393627D02*
X18397968Y-19365055D01*
X18397968Y-19365055D02*
X18407491Y-19346008D01*
X18407491Y-19346008D02*
X18426539Y-19317436D01*
X18426539Y-19317436D02*
X18436063Y-19307912D01*
X18502730Y-19355531D02*
X18512253Y-19346008D01*
X18512253Y-19346008D02*
X18531301Y-19336484D01*
X18531301Y-19336484D02*
X18578920Y-19336484D01*
X18578920Y-19336484D02*
X18597968Y-19346008D01*
X18597968Y-19346008D02*
X18607491Y-19355531D01*
X18607491Y-19355531D02*
X18617015Y-19374579D01*
X18617015Y-19374579D02*
X18617015Y-19393627D01*
X18617015Y-19393627D02*
X18607491Y-19422198D01*
X18607491Y-19422198D02*
X18493206Y-19536484D01*
X18493206Y-19536484D02*
X18617015Y-19536484D01*
X18855111Y-19536484D02*
X18855111Y-19336484D01*
X18940825Y-19536484D02*
X18940825Y-19431722D01*
X18940825Y-19431722D02*
X18931301Y-19412674D01*
X18931301Y-19412674D02*
X18912253Y-19403150D01*
X18912253Y-19403150D02*
X18883682Y-19403150D01*
X18883682Y-19403150D02*
X18864634Y-19412674D01*
X18864634Y-19412674D02*
X18855111Y-19422198D01*
X19064634Y-19536484D02*
X19045587Y-19526960D01*
X19045587Y-19526960D02*
X19036063Y-19517436D01*
X19036063Y-19517436D02*
X19026539Y-19498389D01*
X19026539Y-19498389D02*
X19026539Y-19441246D01*
X19026539Y-19441246D02*
X19036063Y-19422198D01*
X19036063Y-19422198D02*
X19045587Y-19412674D01*
X19045587Y-19412674D02*
X19064634Y-19403150D01*
X19064634Y-19403150D02*
X19093206Y-19403150D01*
X19093206Y-19403150D02*
X19112253Y-19412674D01*
X19112253Y-19412674D02*
X19121777Y-19422198D01*
X19121777Y-19422198D02*
X19131301Y-19441246D01*
X19131301Y-19441246D02*
X19131301Y-19498389D01*
X19131301Y-19498389D02*
X19121777Y-19517436D01*
X19121777Y-19517436D02*
X19112253Y-19526960D01*
X19112253Y-19526960D02*
X19093206Y-19536484D01*
X19093206Y-19536484D02*
X19064634Y-19536484D01*
X19245587Y-19536484D02*
X19226539Y-19526960D01*
X19226539Y-19526960D02*
X19217015Y-19507912D01*
X19217015Y-19507912D02*
X19217015Y-19336484D01*
X19397968Y-19526960D02*
X19378920Y-19536484D01*
X19378920Y-19536484D02*
X19340825Y-19536484D01*
X19340825Y-19536484D02*
X19321777Y-19526960D01*
X19321777Y-19526960D02*
X19312253Y-19507912D01*
X19312253Y-19507912D02*
X19312253Y-19431722D01*
X19312253Y-19431722D02*
X19321777Y-19412674D01*
X19321777Y-19412674D02*
X19340825Y-19403150D01*
X19340825Y-19403150D02*
X19378920Y-19403150D01*
X19378920Y-19403150D02*
X19397968Y-19412674D01*
X19397968Y-19412674D02*
X19407492Y-19431722D01*
X19407492Y-19431722D02*
X19407492Y-19450770D01*
X19407492Y-19450770D02*
X19312253Y-19469817D01*
X19483682Y-19526960D02*
X19502730Y-19536484D01*
X19502730Y-19536484D02*
X19540825Y-19536484D01*
X19540825Y-19536484D02*
X19559873Y-19526960D01*
X19559873Y-19526960D02*
X19569396Y-19507912D01*
X19569396Y-19507912D02*
X19569396Y-19498389D01*
X19569396Y-19498389D02*
X19559873Y-19479341D01*
X19559873Y-19479341D02*
X19540825Y-19469817D01*
X19540825Y-19469817D02*
X19512253Y-19469817D01*
X19512253Y-19469817D02*
X19493206Y-19460293D01*
X19493206Y-19460293D02*
X19483682Y-19441246D01*
X19483682Y-19441246D02*
X19483682Y-19431722D01*
X19483682Y-19431722D02*
X19493206Y-19412674D01*
X19493206Y-19412674D02*
X19512253Y-19403150D01*
X19512253Y-19403150D02*
X19540825Y-19403150D01*
X19540825Y-19403150D02*
X19559873Y-19412674D01*
X19636063Y-19612674D02*
X19645587Y-19603150D01*
X19645587Y-19603150D02*
X19664634Y-19574579D01*
X19664634Y-19574579D02*
X19674158Y-19555531D01*
X19674158Y-19555531D02*
X19683682Y-19526960D01*
X19683682Y-19526960D02*
X19693206Y-19479341D01*
X19693206Y-19479341D02*
X19693206Y-19441246D01*
X19693206Y-19441246D02*
X19683682Y-19393627D01*
X19683682Y-19393627D02*
X19674158Y-19365055D01*
X19674158Y-19365055D02*
X19664634Y-19346008D01*
X19664634Y-19346008D02*
X19645587Y-19317436D01*
X19645587Y-19317436D02*
X19636063Y-19307912D01*
X14661000Y-19665000D02*
X14861000Y-19865000D01*
X14861000Y-19665000D02*
X14661000Y-19865000D01*
X14831711Y-19835711D02*
X14831711Y-19694289D01*
X14690289Y-19694289D01*
X14690289Y-19835711D01*
X14831711Y-19835711D01*
X15207491Y-19723150D02*
X15207491Y-19856484D01*
X15159872Y-19646960D02*
X15112253Y-19789817D01*
X15112253Y-19789817D02*
X15236062Y-19789817D01*
X15312253Y-19837436D02*
X15321777Y-19846960D01*
X15321777Y-19846960D02*
X15312253Y-19856484D01*
X15312253Y-19856484D02*
X15302729Y-19846960D01*
X15302729Y-19846960D02*
X15312253Y-19837436D01*
X15312253Y-19837436D02*
X15312253Y-19856484D01*
X15502729Y-19656484D02*
X15407491Y-19656484D01*
X15407491Y-19656484D02*
X15397967Y-19751722D01*
X15397967Y-19751722D02*
X15407491Y-19742198D01*
X15407491Y-19742198D02*
X15426539Y-19732674D01*
X15426539Y-19732674D02*
X15474158Y-19732674D01*
X15474158Y-19732674D02*
X15493205Y-19742198D01*
X15493205Y-19742198D02*
X15502729Y-19751722D01*
X15502729Y-19751722D02*
X15512253Y-19770770D01*
X15512253Y-19770770D02*
X15512253Y-19818389D01*
X15512253Y-19818389D02*
X15502729Y-19837436D01*
X15502729Y-19837436D02*
X15493205Y-19846960D01*
X15493205Y-19846960D02*
X15474158Y-19856484D01*
X15474158Y-19856484D02*
X15426539Y-19856484D01*
X15426539Y-19856484D02*
X15407491Y-19846960D01*
X15407491Y-19846960D02*
X15397967Y-19837436D01*
X15636062Y-19656484D02*
X15655110Y-19656484D01*
X15655110Y-19656484D02*
X15674158Y-19666008D01*
X15674158Y-19666008D02*
X15683682Y-19675531D01*
X15683682Y-19675531D02*
X15693205Y-19694579D01*
X15693205Y-19694579D02*
X15702729Y-19732674D01*
X15702729Y-19732674D02*
X15702729Y-19780293D01*
X15702729Y-19780293D02*
X15693205Y-19818389D01*
X15693205Y-19818389D02*
X15683682Y-19837436D01*
X15683682Y-19837436D02*
X15674158Y-19846960D01*
X15674158Y-19846960D02*
X15655110Y-19856484D01*
X15655110Y-19856484D02*
X15636062Y-19856484D01*
X15636062Y-19856484D02*
X15617015Y-19846960D01*
X15617015Y-19846960D02*
X15607491Y-19837436D01*
X15607491Y-19837436D02*
X15597967Y-19818389D01*
X15597967Y-19818389D02*
X15588443Y-19780293D01*
X15588443Y-19780293D02*
X15588443Y-19732674D01*
X15588443Y-19732674D02*
X15597967Y-19694579D01*
X15597967Y-19694579D02*
X15607491Y-19675531D01*
X15607491Y-19675531D02*
X15617015Y-19666008D01*
X15617015Y-19666008D02*
X15636062Y-19656484D01*
X15826539Y-19656484D02*
X15845586Y-19656484D01*
X15845586Y-19656484D02*
X15864634Y-19666008D01*
X15864634Y-19666008D02*
X15874158Y-19675531D01*
X15874158Y-19675531D02*
X15883682Y-19694579D01*
X15883682Y-19694579D02*
X15893205Y-19732674D01*
X15893205Y-19732674D02*
X15893205Y-19780293D01*
X15893205Y-19780293D02*
X15883682Y-19818389D01*
X15883682Y-19818389D02*
X15874158Y-19837436D01*
X15874158Y-19837436D02*
X15864634Y-19846960D01*
X15864634Y-19846960D02*
X15845586Y-19856484D01*
X15845586Y-19856484D02*
X15826539Y-19856484D01*
X15826539Y-19856484D02*
X15807491Y-19846960D01*
X15807491Y-19846960D02*
X15797967Y-19837436D01*
X15797967Y-19837436D02*
X15788443Y-19818389D01*
X15788443Y-19818389D02*
X15778920Y-19780293D01*
X15778920Y-19780293D02*
X15778920Y-19732674D01*
X15778920Y-19732674D02*
X15788443Y-19694579D01*
X15788443Y-19694579D02*
X15797967Y-19675531D01*
X15797967Y-19675531D02*
X15807491Y-19666008D01*
X15807491Y-19666008D02*
X15826539Y-19656484D01*
X15978920Y-19856484D02*
X15978920Y-19723150D01*
X15978920Y-19742198D02*
X15988443Y-19732674D01*
X15988443Y-19732674D02*
X16007491Y-19723150D01*
X16007491Y-19723150D02*
X16036063Y-19723150D01*
X16036063Y-19723150D02*
X16055110Y-19732674D01*
X16055110Y-19732674D02*
X16064634Y-19751722D01*
X16064634Y-19751722D02*
X16064634Y-19856484D01*
X16064634Y-19751722D02*
X16074158Y-19732674D01*
X16074158Y-19732674D02*
X16093205Y-19723150D01*
X16093205Y-19723150D02*
X16121777Y-19723150D01*
X16121777Y-19723150D02*
X16140824Y-19732674D01*
X16140824Y-19732674D02*
X16150348Y-19751722D01*
X16150348Y-19751722D02*
X16150348Y-19856484D01*
X16245586Y-19856484D02*
X16245586Y-19723150D01*
X16245586Y-19742198D02*
X16255110Y-19732674D01*
X16255110Y-19732674D02*
X16274158Y-19723150D01*
X16274158Y-19723150D02*
X16302729Y-19723150D01*
X16302729Y-19723150D02*
X16321777Y-19732674D01*
X16321777Y-19732674D02*
X16331301Y-19751722D01*
X16331301Y-19751722D02*
X16331301Y-19856484D01*
X16331301Y-19751722D02*
X16340824Y-19732674D01*
X16340824Y-19732674D02*
X16359872Y-19723150D01*
X16359872Y-19723150D02*
X16388443Y-19723150D01*
X16388443Y-19723150D02*
X16407491Y-19732674D01*
X16407491Y-19732674D02*
X16417015Y-19751722D01*
X16417015Y-19751722D02*
X16417015Y-19856484D01*
X16807491Y-19646960D02*
X16636063Y-19904103D01*
X17064634Y-19656484D02*
X17083682Y-19656484D01*
X17083682Y-19656484D02*
X17102729Y-19666008D01*
X17102729Y-19666008D02*
X17112253Y-19675531D01*
X17112253Y-19675531D02*
X17121777Y-19694579D01*
X17121777Y-19694579D02*
X17131301Y-19732674D01*
X17131301Y-19732674D02*
X17131301Y-19780293D01*
X17131301Y-19780293D02*
X17121777Y-19818389D01*
X17121777Y-19818389D02*
X17112253Y-19837436D01*
X17112253Y-19837436D02*
X17102729Y-19846960D01*
X17102729Y-19846960D02*
X17083682Y-19856484D01*
X17083682Y-19856484D02*
X17064634Y-19856484D01*
X17064634Y-19856484D02*
X17045587Y-19846960D01*
X17045587Y-19846960D02*
X17036063Y-19837436D01*
X17036063Y-19837436D02*
X17026539Y-19818389D01*
X17026539Y-19818389D02*
X17017015Y-19780293D01*
X17017015Y-19780293D02*
X17017015Y-19732674D01*
X17017015Y-19732674D02*
X17026539Y-19694579D01*
X17026539Y-19694579D02*
X17036063Y-19675531D01*
X17036063Y-19675531D02*
X17045587Y-19666008D01*
X17045587Y-19666008D02*
X17064634Y-19656484D01*
X17217015Y-19837436D02*
X17226539Y-19846960D01*
X17226539Y-19846960D02*
X17217015Y-19856484D01*
X17217015Y-19856484D02*
X17207491Y-19846960D01*
X17207491Y-19846960D02*
X17217015Y-19837436D01*
X17217015Y-19837436D02*
X17217015Y-19856484D01*
X17417015Y-19856484D02*
X17302729Y-19856484D01*
X17359872Y-19856484D02*
X17359872Y-19656484D01*
X17359872Y-19656484D02*
X17340825Y-19685055D01*
X17340825Y-19685055D02*
X17321777Y-19704103D01*
X17321777Y-19704103D02*
X17302729Y-19713627D01*
X17483682Y-19656484D02*
X17617015Y-19656484D01*
X17617015Y-19656484D02*
X17531301Y-19856484D01*
X17674158Y-19656484D02*
X17807491Y-19656484D01*
X17807491Y-19656484D02*
X17721777Y-19856484D01*
X17874158Y-19675531D02*
X17883682Y-19666008D01*
X17883682Y-19666008D02*
X17902729Y-19656484D01*
X17902729Y-19656484D02*
X17950349Y-19656484D01*
X17950349Y-19656484D02*
X17969396Y-19666008D01*
X17969396Y-19666008D02*
X17978920Y-19675531D01*
X17978920Y-19675531D02*
X17988444Y-19694579D01*
X17988444Y-19694579D02*
X17988444Y-19713627D01*
X17988444Y-19713627D02*
X17978920Y-19742198D01*
X17978920Y-19742198D02*
X17864634Y-19856484D01*
X17864634Y-19856484D02*
X17988444Y-19856484D01*
X18064634Y-19656484D02*
X18064634Y-19694579D01*
X18140825Y-19656484D02*
X18140825Y-19694579D01*
X18436063Y-19932674D02*
X18426539Y-19923150D01*
X18426539Y-19923150D02*
X18407491Y-19894579D01*
X18407491Y-19894579D02*
X18397968Y-19875531D01*
X18397968Y-19875531D02*
X18388444Y-19846960D01*
X18388444Y-19846960D02*
X18378920Y-19799341D01*
X18378920Y-19799341D02*
X18378920Y-19761246D01*
X18378920Y-19761246D02*
X18388444Y-19713627D01*
X18388444Y-19713627D02*
X18397968Y-19685055D01*
X18397968Y-19685055D02*
X18407491Y-19666008D01*
X18407491Y-19666008D02*
X18426539Y-19637436D01*
X18426539Y-19637436D02*
X18436063Y-19627912D01*
X18597968Y-19723150D02*
X18597968Y-19856484D01*
X18550349Y-19646960D02*
X18502730Y-19789817D01*
X18502730Y-19789817D02*
X18626539Y-19789817D01*
X18855111Y-19856484D02*
X18855111Y-19656484D01*
X18940825Y-19856484D02*
X18940825Y-19751722D01*
X18940825Y-19751722D02*
X18931301Y-19732674D01*
X18931301Y-19732674D02*
X18912253Y-19723150D01*
X18912253Y-19723150D02*
X18883682Y-19723150D01*
X18883682Y-19723150D02*
X18864634Y-19732674D01*
X18864634Y-19732674D02*
X18855111Y-19742198D01*
X19064634Y-19856484D02*
X19045587Y-19846960D01*
X19045587Y-19846960D02*
X19036063Y-19837436D01*
X19036063Y-19837436D02*
X19026539Y-19818389D01*
X19026539Y-19818389D02*
X19026539Y-19761246D01*
X19026539Y-19761246D02*
X19036063Y-19742198D01*
X19036063Y-19742198D02*
X19045587Y-19732674D01*
X19045587Y-19732674D02*
X19064634Y-19723150D01*
X19064634Y-19723150D02*
X19093206Y-19723150D01*
X19093206Y-19723150D02*
X19112253Y-19732674D01*
X19112253Y-19732674D02*
X19121777Y-19742198D01*
X19121777Y-19742198D02*
X19131301Y-19761246D01*
X19131301Y-19761246D02*
X19131301Y-19818389D01*
X19131301Y-19818389D02*
X19121777Y-19837436D01*
X19121777Y-19837436D02*
X19112253Y-19846960D01*
X19112253Y-19846960D02*
X19093206Y-19856484D01*
X19093206Y-19856484D02*
X19064634Y-19856484D01*
X19245587Y-19856484D02*
X19226539Y-19846960D01*
X19226539Y-19846960D02*
X19217015Y-19827912D01*
X19217015Y-19827912D02*
X19217015Y-19656484D01*
X19397968Y-19846960D02*
X19378920Y-19856484D01*
X19378920Y-19856484D02*
X19340825Y-19856484D01*
X19340825Y-19856484D02*
X19321777Y-19846960D01*
X19321777Y-19846960D02*
X19312253Y-19827912D01*
X19312253Y-19827912D02*
X19312253Y-19751722D01*
X19312253Y-19751722D02*
X19321777Y-19732674D01*
X19321777Y-19732674D02*
X19340825Y-19723150D01*
X19340825Y-19723150D02*
X19378920Y-19723150D01*
X19378920Y-19723150D02*
X19397968Y-19732674D01*
X19397968Y-19732674D02*
X19407492Y-19751722D01*
X19407492Y-19751722D02*
X19407492Y-19770770D01*
X19407492Y-19770770D02*
X19312253Y-19789817D01*
X19483682Y-19846960D02*
X19502730Y-19856484D01*
X19502730Y-19856484D02*
X19540825Y-19856484D01*
X19540825Y-19856484D02*
X19559873Y-19846960D01*
X19559873Y-19846960D02*
X19569396Y-19827912D01*
X19569396Y-19827912D02*
X19569396Y-19818389D01*
X19569396Y-19818389D02*
X19559873Y-19799341D01*
X19559873Y-19799341D02*
X19540825Y-19789817D01*
X19540825Y-19789817D02*
X19512253Y-19789817D01*
X19512253Y-19789817D02*
X19493206Y-19780293D01*
X19493206Y-19780293D02*
X19483682Y-19761246D01*
X19483682Y-19761246D02*
X19483682Y-19751722D01*
X19483682Y-19751722D02*
X19493206Y-19732674D01*
X19493206Y-19732674D02*
X19512253Y-19723150D01*
X19512253Y-19723150D02*
X19540825Y-19723150D01*
X19540825Y-19723150D02*
X19559873Y-19732674D01*
X19636063Y-19932674D02*
X19645587Y-19923150D01*
X19645587Y-19923150D02*
X19664634Y-19894579D01*
X19664634Y-19894579D02*
X19674158Y-19875531D01*
X19674158Y-19875531D02*
X19683682Y-19846960D01*
X19683682Y-19846960D02*
X19693206Y-19799341D01*
X19693206Y-19799341D02*
X19693206Y-19761246D01*
X19693206Y-19761246D02*
X19683682Y-19713627D01*
X19683682Y-19713627D02*
X19674158Y-19685055D01*
X19674158Y-19685055D02*
X19664634Y-19666008D01*
X19664634Y-19666008D02*
X19645587Y-19637436D01*
X19645587Y-19637436D02*
X19636063Y-19627912D01*
M02*
