%TF.GenerationSoftware,KiCad,Pcbnew,8.0.5*%
%TF.CreationDate,2024-12-03T15:09:02+00:00*%
%TF.ProjectId,test-rig-black-box,74657374-2d72-4696-972d-626c61636b2d,1.0*%
%TF.SameCoordinates,Original*%
%TF.FileFunction,Legend,Bot*%
%TF.FilePolarity,Positive*%
%FSLAX46Y46*%
G04 Gerber Fmt 4.6, Leading zero omitted, Abs format (unit mm)*
G04 Created by KiCad (PCBNEW 8.0.5) date 2024-12-03 15:09:02*
%MOMM*%
%LPD*%
G01*
G04 APERTURE LIST*
G04 Aperture macros list*
%AMRoundRect*
0 Rectangle with rounded corners*
0 $1 Rounding radius*
0 $2 $3 $4 $5 $6 $7 $8 $9 X,Y pos of 4 corners*
0 Add a 4 corners polygon primitive as box body*
4,1,4,$2,$3,$4,$5,$6,$7,$8,$9,$2,$3,0*
0 Add four circle primitives for the rounded corners*
1,1,$1+$1,$2,$3*
1,1,$1+$1,$4,$5*
1,1,$1+$1,$6,$7*
1,1,$1+$1,$8,$9*
0 Add four rect primitives between the rounded corners*
20,1,$1+$1,$2,$3,$4,$5,0*
20,1,$1+$1,$4,$5,$6,$7,0*
20,1,$1+$1,$6,$7,$8,$9,0*
20,1,$1+$1,$8,$9,$2,$3,0*%
G04 Aperture macros list end*
%ADD10C,3.200000*%
%ADD11C,4.200000*%
%ADD12R,1.600000X1.600000*%
%ADD13C,1.600000*%
%ADD14C,1.524000*%
%ADD15O,1.800000X1.800000*%
%ADD16O,1.500000X1.500000*%
%ADD17O,1.700000X1.700000*%
%ADD18R,1.700000X1.700000*%
%ADD19RoundRect,0.250000X0.845000X-0.620000X0.845000X0.620000X-0.845000X0.620000X-0.845000X-0.620000X0*%
%ADD20O,2.190000X1.740000*%
%ADD21RoundRect,1.500000X1.500000X-1.500000X1.500000X1.500000X-1.500000X1.500000X-1.500000X-1.500000X0*%
%ADD22C,6.000000*%
%ADD23C,2.000000*%
G04 APERTURE END LIST*
%LPC*%
D10*
%TO.C,H1*%
X152160000Y-75660000D03*
%TD*%
D11*
%TO.C,J2*%
X213899669Y-130580000D03*
X213899669Y-97280000D03*
D12*
X212479669Y-104235000D03*
D13*
X212479669Y-107005000D03*
X212479669Y-109775000D03*
X212479669Y-112545000D03*
X212479669Y-115315000D03*
X212479669Y-118085000D03*
X212479669Y-120855000D03*
X212479669Y-123625000D03*
X215319669Y-105620000D03*
X215319669Y-108390000D03*
X215319669Y-111160000D03*
X215319669Y-113930000D03*
X215319669Y-116700000D03*
X215319669Y-119470000D03*
X215319669Y-122240000D03*
%TD*%
D14*
%TO.C,U8*%
X196660000Y-84580000D03*
X196660000Y-87120000D03*
X196660000Y-89660000D03*
%TD*%
D15*
%TO.C,U1*%
X188885000Y-169440000D03*
D16*
X188585000Y-166410000D03*
X183735000Y-166410000D03*
D15*
X183435000Y-169440000D03*
D17*
X195050000Y-169570000D03*
X195050000Y-167030000D03*
D18*
X195050000Y-164490000D03*
D17*
X195050000Y-161950000D03*
X195050000Y-159410000D03*
X195050000Y-156870000D03*
X195050000Y-154330000D03*
D18*
X195050000Y-151790000D03*
D17*
X195050000Y-149250000D03*
X195050000Y-146710000D03*
X195050000Y-144170000D03*
X195050000Y-141630000D03*
D18*
X195050000Y-139090000D03*
D17*
X195050000Y-136550000D03*
X195050000Y-134010000D03*
X195050000Y-131470000D03*
X195050000Y-128930000D03*
D18*
X195050000Y-126390000D03*
D17*
X195050000Y-123850000D03*
X195050000Y-121310000D03*
X177270000Y-121310000D03*
X177270000Y-123850000D03*
D18*
X177270000Y-126390000D03*
D17*
X177270000Y-128930000D03*
X177270000Y-131470000D03*
X177270000Y-134010000D03*
X177270000Y-136550000D03*
D18*
X177270000Y-139090000D03*
D17*
X177270000Y-141630000D03*
X177270000Y-144170000D03*
X177270000Y-146710000D03*
X177270000Y-149250000D03*
D18*
X177270000Y-151790000D03*
D17*
X177270000Y-154330000D03*
X177270000Y-156870000D03*
X177270000Y-159410000D03*
X177270000Y-161950000D03*
D18*
X177270000Y-164490000D03*
D17*
X177270000Y-167030000D03*
X177270000Y-169570000D03*
X188700000Y-121540000D03*
D18*
X186160000Y-121540000D03*
D17*
X183620000Y-121540000D03*
%TD*%
D10*
%TO.C,H2*%
X220160000Y-75660000D03*
%TD*%
D19*
%TO.C,J3*%
X152430000Y-126990000D03*
D20*
X152430000Y-124450000D03*
X152430000Y-121910000D03*
X152430000Y-119370000D03*
%TD*%
D19*
%TO.C,J1*%
X152410000Y-114295000D03*
D20*
X152410000Y-111755000D03*
X152410000Y-109215000D03*
X152410000Y-106675000D03*
%TD*%
D21*
%TO.C,J4*%
X208910000Y-84260000D03*
D22*
X208910000Y-77060000D03*
%TD*%
D21*
%TO.C,J5*%
X163410000Y-84260000D03*
D22*
X163410000Y-77060000D03*
%TD*%
D18*
%TO.C,J9*%
X209085000Y-146950000D03*
D17*
X209085000Y-144410000D03*
X211625000Y-146950000D03*
X211625000Y-144410000D03*
X214165000Y-146950000D03*
X214165000Y-144410000D03*
X216705000Y-146950000D03*
X216705000Y-144410000D03*
X219245000Y-146950000D03*
X219245000Y-144410000D03*
%TD*%
D10*
%TO.C,H3*%
X152160000Y-168660000D03*
%TD*%
D19*
%TO.C,J8*%
X152410000Y-149950000D03*
D20*
X152410000Y-147410000D03*
X152410000Y-144870000D03*
X152410000Y-142330000D03*
%TD*%
D19*
%TO.C,J6*%
X152410000Y-137410000D03*
D20*
X152410000Y-134870000D03*
X152410000Y-132330000D03*
%TD*%
D23*
%TO.C,SW1*%
X207910000Y-160910000D03*
X214410000Y-160910000D03*
X207910000Y-165410000D03*
X214410000Y-165410000D03*
%TD*%
D10*
%TO.C,H4*%
X220160000Y-168660000D03*
%TD*%
D18*
%TO.C,J7*%
X152410000Y-155580000D03*
D17*
X152410000Y-158120000D03*
X152410000Y-160660000D03*
%TD*%
%LPD*%
M02*
