M48
; DRILL file {KiCad 8.0.5} date 2024-12-03T15:08:57+0000
; FORMAT={-:-/ absolute / inch / decimal}
; #@! TF.CreationDate,2024-12-03T15:08:57+00:00
; #@! TF.GenerationSoftware,Kicad,Pcbnew,8.0.5
; #@! TF.FileFunction,Plated,1,4,PTH
FMAT,2
INCH
; #@! TA.AperFunction,Plated,PTH,ViaDrill
T1C0.0157
; #@! TA.AperFunction,Plated,PTH,ComponentDrill
T2C0.0300
; #@! TA.AperFunction,Plated,PTH,ComponentDrill
T3C0.0394
; #@! TA.AperFunction,Plated,PTH,ComponentDrill
T4C0.0402
; #@! TA.AperFunction,Plated,PTH,ComponentDrill
T5C0.0433
; #@! TA.AperFunction,Plated,PTH,ComponentDrill
T6C0.0469
; #@! TA.AperFunction,Plated,PTH,ComponentDrill
T7C0.1260
; #@! TA.AperFunction,Plated,PTH,ComponentDrill
T8C0.1772
%
G90
G05
T1
X5.9646Y-3.9531
X5.9807Y-3.5594
X5.9807Y-5.1343
X6.148Y-4.1205
X6.1579Y-4.0041
X6.1579Y-5.1047
X6.2563Y-5.0654
X6.2563Y-5.528
X6.2894Y-3.2185
X6.2894Y-3.3563
X6.2957Y-2.8902
X6.2957Y-3.1461
X6.3252Y-4.8783
X6.335Y-4.2878
X6.3744Y-3.5594
X6.3744Y-3.9531
X6.3744Y-4.4748
X6.3744Y-4.7406
X6.3744Y-5.1343
X6.3744Y-5.528
X6.3744Y-5.9217
X6.3744Y-6.276
X6.3978Y-5.7543
X6.4236Y-5.7169
X6.4335Y-2.8902
X6.4433Y-5.3705
X6.4581Y-4.2533
X6.4728Y-4.7996
X6.5319Y-3.8547
X6.5614Y-5.5083
X6.5713Y-2.8902
X6.5713Y-3.1461
X6.5748Y-3.2185
X6.5748Y-3.3563
X6.6303Y-4.3469
X6.65Y-3.9236
X6.6628Y-5.6264
X6.6894Y-5.2327
X6.6894Y-5.3902
X6.6992Y-2.8902
X6.6992Y-3.1461
X6.7287Y-5.5673
X6.7386Y-4.7406
X6.7386Y-5.1343
X6.7386Y-5.9217
X6.7386Y-6.276
X6.7681Y-3.5594
X6.7681Y-3.9531
X6.7976Y-2.8902
X6.7976Y-3.0772
X6.8264Y-3.5496
X6.837Y-4.1894
X6.8764Y-3.8843
X6.9059Y-2.8902
X6.9157Y-3.0772
X6.9264Y-3.5594
X6.9437Y-4.3764
X6.9551Y-4.0909
X6.9748Y-3.776
X7.0137Y-4.1732
X7.0142Y-2.8902
X7.0142Y-3.1461
X7.0496Y-3.8484
X7.0669Y-3.248
X7.0669Y-3.3366
X7.0732Y-4.337
X7.0732Y-4.9276
X7.0866Y-3.7303
X7.1028Y-5.9217
X7.1358Y-4.0846
X7.1421Y-4.337
X7.1618Y-2.8902
X7.1618Y-3.1461
X7.1618Y-3.9827
X7.1618Y-6.3843
X7.1913Y-5.1343
X7.1913Y-5.528
X7.1949Y-3.3366
X7.1949Y-3.4843
X7.1949Y-3.6811
X7.2031Y-5.776
X7.2047Y-5.876
X7.2244Y-4.5965
X7.2539Y-5.1476
X7.2736Y-4.9213
X7.3031Y-3.3366
X7.3031Y-3.4843
X7.3031Y-3.6811
X7.3094Y-2.8902
X7.3094Y-3.1461
X7.313Y-5.076
X7.3425Y-5.8268
X7.372Y-5.2756
X7.4079Y-5.9906
X7.4311Y-3.878
X7.4311Y-3.9173
X7.4472Y-4.0909
X7.4571Y-2.8902
X7.4571Y-3.1461
X7.4866Y-3.963
X7.4965Y-6.1579
X7.4965Y-6.4827
X7.5161Y-4.3961
X7.5457Y-6.6598
X7.5555Y-4.022
X7.5555Y-4.3469
X7.5555Y-4.4669
X7.5654Y-4.6126
X7.5752Y-4.2287
X7.5949Y-2.8902
X7.5949Y-3.1461
X7.5949Y-5.7248
X7.6047Y-5.1343
X7.6047Y-5.528
X7.6047Y-6.5516
X7.6083Y-4.1535
X7.6146Y-6.1579
X7.6476Y-3.4252
X7.6476Y-4.2815
X7.6835Y-4.524
X7.7228Y-4.3862
X7.7425Y-2.8902
X7.7425Y-3.1461
X7.7425Y-3.6874
X7.8213Y-3.9728
X7.8508Y-2.8902
X7.8508Y-3.1461
X7.874Y-3.248
X7.8803Y-4.3862
X7.9Y-4.0811
X7.9Y-4.1411
X7.9429Y-4.8671
X7.9492Y-3.5791
X7.9492Y-4.7406
X7.9492Y-5.528
X7.9492Y-5.902
X7.9492Y-6.2661
X7.9787Y-5.1343
X7.9823Y-6.0236
X7.9921Y-4.6161
X7.9984Y-2.8902
X7.9984Y-3.1461
X7.9984Y-6.3252
X8.0807Y-3.2185
X8.0807Y-3.3563
X8.0817Y-4.3701
X8.087Y-2.8902
X8.087Y-3.1461
X8.1067Y-6.5909
X8.1594Y-4.7736
X8.1953Y-4.15
X8.1988Y-4.0059
X8.2051Y-6.076
X8.2248Y-2.8902
X8.2283Y-4.065
X8.3429Y-6.3154
X8.3626Y-2.8902
X8.3626Y-3.1461
X8.3661Y-3.2185
X8.3661Y-3.3661
X8.3823Y-5.902
X8.5299Y-6.1874
X8.5496Y-3.5791
X8.5496Y-4.524
X8.5496Y-4.7701
X8.5791Y-4.8671
X8.5791Y-5.961
X8.6087Y-3.963
X8.6382Y-5.1343
X8.6579Y-4.5945
X8.6776Y-4.3469
X8.6874Y-3.9531
X8.6972Y-4.7307
X8.6972Y-6.1283
X8.7366Y-3.5594
T2
X7.7425Y-3.3299
X7.7425Y-3.4299
X7.7425Y-3.5299
T3
X6.0004Y-6.1252
X6.0004Y-6.2252
X6.0004Y-6.3252
X8.2317Y-5.6854
X8.2317Y-5.7854
X8.3317Y-5.6854
X8.3317Y-5.7854
X8.3653Y-4.1037
X8.3653Y-4.2128
X8.3653Y-4.3219
X8.3653Y-4.4309
X8.3653Y-4.54
X8.3653Y-4.649
X8.3653Y-4.7581
X8.3653Y-4.8671
X8.4317Y-5.6854
X8.4317Y-5.7854
X8.4772Y-4.1583
X8.4772Y-4.2673
X8.4772Y-4.3764
X8.4772Y-4.4854
X8.4772Y-4.5945
X8.4772Y-4.7035
X8.4772Y-4.8126
X8.5317Y-5.6854
X8.5317Y-5.7854
X8.6317Y-5.6854
X8.6317Y-5.7854
T4
X6.9791Y-4.776
X6.9791Y-4.876
X6.9791Y-4.976
X6.9791Y-5.076
X6.9791Y-5.176
X6.9791Y-5.276
X6.9791Y-5.376
X6.9791Y-5.476
X6.9791Y-5.576
X6.9791Y-5.676
X6.9791Y-5.776
X6.9791Y-5.876
X6.9791Y-5.976
X6.9791Y-6.076
X6.9791Y-6.176
X6.9791Y-6.276
X6.9791Y-6.376
X6.9791Y-6.476
X6.9791Y-6.576
X6.9791Y-6.676
X7.2291Y-4.785
X7.3291Y-4.785
X7.4291Y-4.785
X7.6791Y-4.776
X7.6791Y-4.876
X7.6791Y-4.976
X7.6791Y-5.076
X7.6791Y-5.176
X7.6791Y-5.276
X7.6791Y-5.376
X7.6791Y-5.476
X7.6791Y-5.576
X7.6791Y-5.676
X7.6791Y-5.776
X7.6791Y-5.876
X7.6791Y-5.976
X7.6791Y-6.076
X7.6791Y-6.176
X7.6791Y-6.276
X7.6791Y-6.376
X7.6791Y-6.476
X7.6791Y-6.576
X7.6791Y-6.676
T5
X8.1854Y-6.335
X8.1854Y-6.5122
X8.4413Y-6.335
X8.4413Y-6.5122
T6
X6.0004Y-4.1998
X6.0004Y-4.2998
X6.0004Y-4.3998
X6.0004Y-4.4998
X6.0004Y-5.2098
X6.0004Y-5.3098
X6.0004Y-5.4098
X6.0004Y-5.6035
X6.0004Y-5.7035
X6.0004Y-5.8035
X6.0004Y-5.9035
X6.0012Y-4.6996
X6.0012Y-4.7996
X6.0012Y-4.8996
X6.0012Y-4.9996
T7
X8.4212Y-3.8299
X8.4212Y-5.1409
T8
X6.4335Y-3.0339
X6.4335Y-3.3173
X8.2248Y-3.0339
X8.2248Y-3.3173
M30
